<?xml version="1.0" encoding="utf-8"?>
<!-- Generator: Adobe Illustrator 19.0.0, SVG Export Plug-In . SVG Version: 6.00 Build 0)  -->
<svg version="1.1" id="Layer_1" xmlns="http://www.w3.org/2000/svg" xmlns:xlink="http://www.w3.org/1999/xlink" x="0px" y="0px"
	 viewBox="-284 381 43 31" style="enable-background:new -284 381 43 31;" xml:space="preserve">
<style type="text/css">
	.st0{fill:#2D3D45;}
</style>
<path id="XMLID_20_" class="st0" d="M-248.9,386.7l0.9-2.4l4.8-0.1v-2.7h-6.8l0,0l0,0l0,0l0,0l-1.8,5.1h-2.2h-20.7h-5l0.9,2.6
	l3.3,10.8l0.5,1.6h1.3h18.7h1.3l0.5-1.7l3.3-10.7l0.2-0.4l0,0l0.5-1.3L-248.9,386.7L-248.9,386.7z M-275.8,389.5h1.1h4.2l0.6,3.1h-5
	L-275.8,389.5z M-272.9,398.8l-1.2-3.8h4.6l0.7,3.8H-272.9z M-262.5,398.8h-3.6l-0.7-3.8h5L-262.5,398.8z M-261.4,392.5h-6l-0.6-3.1
	h7.2L-261.4,392.5z M-255.7,398.8h-4.3l0.7-3.8h4.7L-255.7,398.8z M-253.8,392.5h-5l0.6-3.1h4.2h1.1L-253.8,392.5z"/>
<path id="XMLID_17_" class="st0" d="M-269.7,403.5c-2.3,0-4.2,1.9-4.1,4.2c0,2.2,1.9,4.1,4.2,4.1c2.3,0,4.2-1.9,4.1-4.1
	C-265.5,405.3-267.4,403.5-269.7,403.5z M-269.7,409.2c-0.9,0-1.6-0.7-1.5-1.6c0-0.8,0.7-1.6,1.6-1.6s1.5,0.7,1.5,1.6
	C-268.1,408.6-268.8,409.3-269.7,409.2z"/>
<path id="XMLID_14_" class="st0" d="M-258.1,403.5c-2.3-0.1-4.2,1.7-4.3,4s1.8,4.3,4.1,4.3c2.3,0,4.2-1.8,4.2-4.1
	C-254,405.5-255.8,403.6-258.1,403.5z M-258.2,409.2c-0.9,0-1.6-0.8-1.6-1.6c0-0.8,0.8-1.6,1.6-1.6c0.8,0,1.6,0.8,1.6,1.6
	C-256.6,408.5-257.4,409.3-258.2,409.2z"/>
</svg>
