<?xml version="1.0" encoding="utf-8"?>
<!-- Generator: Adobe Illustrator 19.0.0, SVG Export Plug-In . SVG Version: 6.00 Build 0)  -->
<svg version="1.1" id="Layer_1" xmlns="http://www.w3.org/2000/svg" xmlns:xlink="http://www.w3.org/1999/xlink" x="0px" y="0px"
	 viewBox="0 0 284 171" style="enable-background:new 0 0 284 171;" xml:space="preserve">
<style type="text/css">
	.st0{fill:#231F20;}
	.st1{fill:#AE8A35;}
	.st2{fill-rule:evenodd;clip-rule:evenodd;fill:#231F20;}
</style>
<g id="XMLID_320_">
	<path id="XMLID_100_" class="st0" d="M99.4,128.2v23.9h4.9v-25C102.7,127.4,101.1,127.8,99.4,128.2z"/>
	<path id="XMLID_99_" class="st0" d="M104.3,46V20.5h-4.9v26.3C101.1,46.5,102.7,46.2,104.3,46z"/>
</g>
<g id="XMLID_317_">
	<path id="XMLID_98_" class="st0" d="M170.5,125.9v26.2h4.9v-25.3C173.7,126.5,172.1,126.2,170.5,125.9z"/>
	<path id="XMLID_97_" class="st0" d="M175.3,45.8V20.5h-4.9v24.7C172.1,45.4,173.7,45.6,175.3,45.8z"/>
</g>
<g id="XMLID_288_">
	<g id="XMLID_313_">
		<path id="XMLID_314_" class="st0" d="M19.7,81.6l0.9,3.2l24.4,22.8l2.8,1.2l-8.8,6.4l-0.8-2.8l-3.9-3.9l-5.2,3.8l2.5,5l2.4,1.6
			l-8.9,6.4l-0.2-3.1L10.9,91.9L8.2,90L19.7,81.6z M26,105.8l3.3-2.4L20,94.1L26,105.8z"/>
	</g>
	<g id="XMLID_310_">
		<path id="XMLID_311_" class="st0" d="M56.4,64l6.7,2.9l1.3,3.3l-6,6L57,72.7l-1.8-0.8l-4.6,1.8l-0.8,1.9l7.8,20.2l1.8,0.8l4.6-1.7
			l0.8-1.9l-0.6-1.6l6.1-6l3.1,7.9l-3,6.6l-12.2,4.7l-6.6-2.9L41.3,75.3l2.9-6.6L56.4,64z"/>
	</g>
	<g id="XMLID_306_">
		<path id="XMLID_307_" class="st0" d="M94.8,54.2l-0.5,3.2l12.6,30.9l2.1,2.3l-10.7,2.1l0.5-2.9l-1.9-5.2l-6.3,1.2l0.2,5.6l1.5,2.4
			l-10.7,2.1l1.1-2.9l-0.2-33.4L80.8,57L94.8,54.2z M90.3,78.9l4-0.8l-4.6-12.4L90.3,78.9z"/>
	</g>
	<g id="XMLID_302_">
		<path id="XMLID_303_" class="st0" d="M134.2,50.5l5.3,4.8l1.4,28.4l-4.7,5.2l-19.3,0.9l0.8-2.6l-1.6-33l-1.1-2.8L134.2,50.5z
			 M125.3,82.5l6-0.3l1.6-1.7l-1-21.2l-1.7-1.6l-6.1,0.3L125.3,82.5z"/>
	</g>
	<g id="XMLID_299_">
		<path id="XMLID_300_" class="st0" d="M174,52.1l1,8.2l-3.1-1.4l-10.7-0.9l-0.7,8.3l7.6,0.6l3.2-0.8l-0.7,8.9l-2.9-1.2l-7.8-0.6
			l-0.8,9.4l12.8,1.1l0,0l3.3-0.8l-2.2,7.9l-23.2-1.9l1.3-2.8l2.6-32.4l-0.8-3.2L174,52.1z"/>
	</g>
	<g id="XMLID_296_">
		<path id="XMLID_297_" class="st0" d="M221.2,61.7l-1.8,2.8l-7.8,31.5l0.7,3.1l-9.2-2.3l1.7-2.6l0,0l4.8-19.6l-8.2,12l-5-1.2
			l-1.8-14.4l-4.8,19.6l0.7,3.1l-9.2-2.3l1.7-2.6l7.7-31.5l-0.3-3.4l9.9,2.4l1.8,16.1l9.1-13.4L221.2,61.7z"/>
	</g>
	<g id="XMLID_293_">
		<path id="XMLID_294_" class="st0" d="M244.5,71.3l-2.2,2.5l-13,29.9l0.1,3.2l-9.5-4.2l2-2.1l13.2-29.9l0.3-3.3L244.5,71.3z"/>
	</g>
	<g id="XMLID_289_">
		<path id="XMLID_290_" class="st0" d="M275,90.1l-2.7,1.8L258,122.2l-0.3,3.1l-8.8-6.4l2.5-1.6l2.5-4.9l-5.2-3.8l-4,3.9l-0.8,2.8
			l-8.8-6.5l2.8-1.2l24.4-22.7l1-3.2L275,90.1z M253.8,103.5l3.3,2.4l6.1-11.8L253.8,103.5z"/>
	</g>
</g>
<g id="XMLID_252_">
	<g id="XMLID_285_">
		<path id="XMLID_286_" class="st0" d="M51.8,120.9c2.2-1.1,3.2-1.6,3.1-1.6c-0.1,0,2.3,1.8,7.3,5.3l-3-6l-1-0.9l3.7-1.9l0.1,1.3
			l6.6,13.1l1,0.8l-3,1.5l-7.8-6l3.4,6.8l0,0l1.1,0.9l-3.8,1.9l-0.2-1.3l-6.6-13L51.8,120.9z"/>
	</g>
	<g id="XMLID_280_">
		<path id="XMLID_281_" class="st0" d="M77.7,104.3l0,0.4c0.1,0.9,0,1.6-0.3,2.2c-0.3,0.6-0.8,1-1.5,1.2c-0.2,0.1-0.6,0.1-1.1,0.1
			l-0.3,0l-0.3,0c-0.2,0-0.4,0.1-0.6,0.1c-0.5,0.1-0.7,0.5-0.8,1l0,0.2l-1.7,0.6l0-0.4c-0.1-0.9,0-1.6,0.3-2.3
			c0.3-0.6,0.9-1.1,1.6-1.3c0.2-0.1,0.4-0.1,0.6-0.1l0.3,0l0.3,0c0.5,0,0.9-0.1,1.1-0.2c0.3-0.1,0.5-0.4,0.6-0.8l0-0.2L77.7,104.3z
			 M78.6,109.6l0,1.5l7.2,12.9l1,0.9l-4.6,1.5l0-1.3l-1.1-2.2l-2.7,0.9l0.4,2.4l0.8,1l-4.6,1.5l0.3-1.3l-1.9-14.6l-0.9-1.2
			L78.6,109.6z M78,120.7l1.7-0.6l-2.7-5.2L78,120.7z"/>
	</g>
	<g id="XMLID_276_">
		<path id="XMLID_277_" class="st0" d="M97,104.9l2.7,1.7l2.6,12.2l-1.7,2.7l-5.6,1.2l-2.7-1.7l-2.6-12.2l1.7-2.7L97,104.9z
			 M98.2,118.9l0.5-0.8l-2-9.3l-0.7-0.5l-2.1,0.5l-0.5,0.8l2,9.3l0.7,0.5L98.2,118.9z"/>
	</g>
	<g id="XMLID_272_">
		<path id="XMLID_273_" class="st0" d="M128,101l2.4,2.1l0.9,12.5l-2.1,2.4l-5.7,0.4l-2.4-2.1l-0.9-12.5l2.1-2.4L128,101z
			 M127.2,115l0.6-0.7l-0.7-9.5l-0.6-0.6l-2.2,0.2l-0.6,0.7l0.7,9.5l0.6,0.6L127.2,115z"/>
	</g>
	<g id="XMLID_269_">
		<path id="XMLID_270_" class="st0" d="M148.4,100.7l0.7,3.6l-1.4-0.5l-4.8,0l0,3.7l3.4,0l1.4-0.4l0,3.9l-1.3-0.5l-3.4,0l-0.1,6
			l0.5,1.3l-4.5,0l0.5-1.3l0.1-14.4l-0.4-1.4L148.4,100.7z"/>
	</g>
	<g id="XMLID_266_">
		<path id="XMLID_267_" class="st0" d="M161.7,101.5l-0.6,1.4l-1.1,14.4l0.5,1.3l-4.6-0.4l0.5-1.2l1.2-14.4l-0.4-1.4L161.7,101.5z"
			/>
	</g>
	<g id="XMLID_263_">
		<path id="XMLID_264_" class="st0" d="M178.3,103.5l1.9,2.6l-0.2,1.5l-3.6,1l0.2-1.6l-0.5-0.7L174,106l-0.7,0.5l-1.4,9.5l0.5,0.7
			l2.1,0.3l0.7-0.6l0.1-0.8l3.7-1l-0.6,3.7l-2.6,1.9l-5.7-0.9l-1.9-2.6l1.8-12.4l2.6-1.9L178.3,103.5z"/>
	</g>
	<g id="XMLID_260_">
		<path id="XMLID_261_" class="st0" d="M193.6,106.6l-0.8,1.2l-3.2,14.1l0.3,1.4l-4.5-1l0.7-1.1l3.3-14.1l-0.1-1.5L193.6,106.6z"/>
	</g>
	<g id="XMLID_256_">
		<path id="XMLID_257_" class="st0" d="M210,111.5l-0.9,1.1l-1.9,14.7l0.3,1.3l-4.6-1.5l0.8-1l0.4-2.4l-2.7-0.9l-1.1,2.2l0,1.3
			l-4.6-1.5l1-0.9l7.2-12.9l0-1.5L210,111.5z M202.9,120l1.7,0.6l0.9-5.8L202.9,120z"/>
	</g>
	<g id="XMLID_253_">
		<path id="XMLID_254_" class="st0" d="M224.7,117.6l-1.1,1.1l-5.6,11.2l5.1,2.6l0,0l1.5,0.2l-0.3,0.4l-1.9,2.5l-9.2-4.6l1-0.9
			l6.4-12.9l0.2-1.5L224.7,117.6z"/>
	</g>
</g>
<g id="XMLID_225_">
	<g id="XMLID_250_">
		<path id="XMLID_69_" class="st1" d="M26.4,118.9c-0.1,0-0.2-0.1-0.3-0.2L11.9,89.4l4.5-3.3l23.5,22.7c0.1,0.1,0.1,0.3,0,0.4
			c-0.1,0.1-0.3,0.1-0.4,0L16.3,86.9l-3.7,2.7l14.1,28.9c0.1,0.2,0,0.3-0.1,0.4C26.5,118.9,26.5,118.9,26.4,118.9z"/>
	</g>
	<g id="XMLID_248_">
		<path id="XMLID_68_" class="st1" d="M22.7,111.3c-0.1,0-0.2,0-0.2-0.1c-0.1-0.1-0.1-0.3,0.1-0.4l10.9-7.9c0.1-0.1,0.3-0.1,0.4,0.1
			c0.1,0.1,0.1,0.3-0.1,0.4l-10.9,7.9C22.8,111.3,22.8,111.3,22.7,111.3z"/>
	</g>
	<g id="XMLID_246_">
		<path id="XMLID_67_" class="st1" d="M85,91.5c-0.2,0-0.3-0.1-0.3-0.3l-0.5-32.7l5.5-1L101.4,88c0.1,0.2,0,0.3-0.2,0.4
			c-0.2,0.1-0.3,0-0.4-0.2l-11.6-30l-4.5,0.9l0.5,32.1C85.3,91.4,85.1,91.5,85,91.5C85,91.5,85,91.5,85,91.5z"/>
	</g>
	<g id="XMLID_244_">
		<path id="XMLID_66_" class="st1" d="M84.8,83.1c-0.1,0-0.3-0.1-0.3-0.2c0-0.2,0.1-0.3,0.2-0.4L98,79.9c0.2,0,0.3,0.1,0.4,0.2
			c0,0.2-0.1,0.3-0.2,0.4L84.8,83.1C84.9,83.1,84.9,83.1,84.8,83.1z"/>
	</g>
	<g id="XMLID_242_">
		<path id="XMLID_65_" class="st1" d="M253.6,119.2c0,0-0.1,0-0.1,0c-0.2-0.1-0.2-0.3-0.1-0.4l14.1-28.9l-3.7-2.7l-23.2,22.3
			c-0.1,0.1-0.3,0.1-0.4,0c-0.1-0.1-0.1-0.3,0-0.4l23.5-22.7l4.5,3.3L253.8,119C253.8,119.1,253.7,119.2,253.6,119.2z"/>
	</g>
	<g id="XMLID_240_">
		<path id="XMLID_64_" class="st1" d="M257.3,111.5c-0.1,0-0.1,0-0.2-0.1l-10.9-7.9c-0.1-0.1-0.2-0.3-0.1-0.4
			c0.1-0.1,0.3-0.2,0.4-0.1l10.9,7.9c0.1,0.1,0.2,0.3,0.1,0.4C257.5,111.5,257.4,111.5,257.3,111.5z"/>
	</g>
	<g id="XMLID_238_">
		<path id="XMLID_63_" class="st1" d="M57.1,100.6l-4.3-1.9L43.6,75l2-4.4l8.7-3.5l4.3,2c0.2,0.1,0.2,0.2,0.2,0.4
			c-0.1,0.2-0.2,0.2-0.4,0.2l-4.1-1.8L46,71.1L44.3,75l9,23.2l3.8,1.7l8.3-3.2l1.7-4l-0.5-1.3c-0.1-0.2,0-0.3,0.2-0.4
			c0.2-0.1,0.3,0,0.4,0.2l0.6,1.5l-2,4.4L57.1,100.6z"/>
	</g>
	<g id="XMLID_234_">
		<path id="XMLID_235_" class="st1" d="M119.8,86l-1.6-31.9l12.6-0.7l3.6,3.3l1.2,24.9l-3.4,3.8L119.8,86z M118.8,54.7l1.5,30.7
			l11.6-0.6l3.1-3.4L133.9,57l-3.3-3L118.8,54.7z"/>
	</g>
	<g id="XMLID_232_">
		<path id="XMLID_60_" class="st1" d="M169.2,86.9C169.2,86.9,169.2,86.9,169.2,86.9l-16-1.4l2.6-32l13.8,1.1c0.2,0,0.3,0.2,0.3,0.3
			c0,0.2-0.2,0.3-0.3,0.3l-13.2-1.1L153.9,85l15.4,1.3c0.2,0,0.3,0.2,0.3,0.3C169.5,86.8,169.4,86.9,169.2,86.9z"/>
	</g>
	<g id="XMLID_230_">
		<path id="XMLID_59_" class="st1" d="M166.2,70.3C166.2,70.3,166.2,70.3,166.2,70.3l-11.4-0.9c-0.2,0-0.3-0.2-0.3-0.3
			c0-0.2,0.2-0.3,0.3-0.3l11.4,0.9c0.2,0,0.3,0.2,0.3,0.3C166.5,70.1,166.4,70.3,166.2,70.3z"/>
	</g>
	<g id="XMLID_228_">
		<path id="XMLID_58_" class="st1" d="M206.8,94.8C206.8,94.8,206.8,94.8,206.8,94.8c-0.2,0-0.3-0.2-0.3-0.4l7.6-30.8l-2.2-0.6
			L198,83.1L195.2,59l-2.3-0.6l-7.6,30.8c0,0.2-0.2,0.3-0.4,0.2c-0.2,0-0.3-0.2-0.2-0.4l7.7-31.3l3.3,0.8l2.7,22.9l13.1-19.1
			l3.2,0.8l-7.7,31.4C207.1,94.7,206.9,94.8,206.8,94.8z"/>
	</g>
	<g id="XMLID_226_">
		<path id="XMLID_57_" class="st1" d="M224.3,101.6c0,0-0.1,0-0.1,0c-0.2-0.1-0.2-0.2-0.2-0.4l12.9-29.4c0.1-0.2,0.2-0.2,0.4-0.2
			c0.2,0.1,0.2,0.2,0.2,0.4l-12.9,29.4C224.5,101.5,224.4,101.6,224.3,101.6z"/>
	</g>
</g>
<g id="XMLID_218_">
	<g id="XMLID_222_">
		<g id="XMLID_223_">
			<path id="XMLID_56_" class="st1" d="M49.9,135.4c-1.3-1.9-2.5-3.8-3.8-5.7c-2.4,1.6-4.8,3.4-7.1,5.3c-1.5-1.8-2.9-3.5-4.4-5.3
				c-2.5,2.1-4.9,4.3-7.1,6.7c-1.7-1.6-3.3-3.2-5-4.7c-2.5,2.6-4.8,5.3-7,8.3l7-4.1l4.3,4.1l7.9-4.1l4.6,5.4
				C39.4,141.3,43.5,138.9,49.9,135.4z"/>
		</g>
	</g>
	<g id="XMLID_219_">
		<g id="XMLID_220_">
			<path id="XMLID_55_" class="st1" d="M233.1,135.4c1.3-1.9,2.5-3.8,3.8-5.7c2.4,1.6,4.8,3.4,7.1,5.3c1.5-1.8,2.9-3.5,4.4-5.3
				c2.5,2.1,4.9,4.3,7.1,6.7c1.7-1.6,3.3-3.2,5-4.7c2.5,2.6,4.8,5.3,7,8.3l-7-4.1l-4.3,4.1l-7.9-4.1l-4.6,5.4
				C243.5,141.3,239.5,138.9,233.1,135.4z"/>
		</g>
	</g>
</g>
<g id="XMLID_168_">
	<g id="XMLID_169_">
		<g id="XMLID_170_">
			<g id="XMLID_189_">
				<g id="XMLID_190_">
					<g id="XMLID_197_">
						<g id="XMLID_216_">
							<path id="XMLID_54_" class="st1" d="M133.4,134.5c-0.1,0.5-0.5,2.6-0.6,3l0.2-0.2c0.1-0.6,0.5-2.4,0.6-2.7
								c0.1-0.4,0.2-0.8-0.1-1C133.5,133.8,133.4,134.2,133.4,134.5z"/>
						</g>
						<g id="XMLID_214_">
							<path id="XMLID_53_" class="st1" d="M128.9,135.8c0.1,0.1,0.2,0.2,0.2,0.2c0.3-1.1,0.4-1.6,0.6-2.2c-0.1,0-0.2,0-0.2-0.1
								C129.2,134.3,129.1,134.7,128.9,135.8z"/>
						</g>
						<g id="XMLID_212_">
							<path id="XMLID_52_" class="st1" d="M142.2,138.5l-3.7,3c0,0,0.1,0.1,0.1,0.1l3.5-3L142.2,138.5z"/>
						</g>
						<g id="XMLID_210_">
							<path id="XMLID_51_" class="st1" d="M149.7,141.4c1.4-0.1,2-0.1,3.4-0.7l0.1-0.3c-1.6,0.7-2.2,0.7-3.5,0.8L149.7,141.4z"/>
						</g>
						<g id="XMLID_208_">
							<path id="XMLID_50_" class="st1" d="M141.9,135.5c1.1,0,1.9,0.8,1.9,1.9c0,1.1-1,2.1-1.8,2.6l0,0.2c0.9-0.5,2-1.6,2-2.9
								c0-1.2-0.9-2.1-2.1-2.1c-2.2,0.1-3.9,2.1-4.2,4.7c0,0.4,0,1.2,0.1,1.4c0,0.1,0.1,0.1,0.1,0.2c0-0.2-0.1-1.2,0-1.6
								C138.1,137.5,140,135.5,141.9,135.5z"/>
						</g>
						<g id="XMLID_206_">
							<path id="XMLID_49_" class="st1" d="M146.6,142.4c0.1-0.3,0.2-0.7,0.3-1.1l1.2-5.7c0.1-0.4,0.2-0.8,0.2-1.1
								c0-0.3,0-0.5,0-0.8H148c0.1,0.3,0.1,0.6,0.1,0.9c0,0.3-0.1,0.7-0.2,1.1l-1.2,5.5c-0.1,0.4-0.2,0.8-0.3,1.1
								c-0.1,0.3-0.3,0.6-0.5,0.9h0.4C146.4,142.9,146.5,142.6,146.6,142.4z"/>
						</g>
						<g id="XMLID_204_">
							<path id="XMLID_48_" class="st1" d="M136.8,141.4c-0.5-0.8-1.7-3.2-1.7-3.2s3.2-3.6,3.6-3.9c0.4-0.3,0.7-0.5,0.9-0.7h-0.3
								c-0.2,0.1-0.4,0.3-0.7,0.5c-0.4,0.3-3.7,4-3.7,4s1.3,2.4,1.8,3.3c0.7,1.2,1.4,1.8,1.8,2.1c0.1,0,0.1-0.1,0.2-0.1
								C138.2,143.2,137.5,142.7,136.8,141.4z"/>
						</g>
						<g id="XMLID_202_">
							<path id="XMLID_47_" class="st1" d="M124.4,142.1c0.4,0,0.7-0.1,1-0.3c-0.2,0.1-0.5,0.1-0.7,0.1c-1.5-0.1-2.3-1.6-2.3-1.6
								c0,0.1-0.1,0.2-0.1,0.3C122.5,141.1,123.2,142.1,124.4,142.1z"/>
						</g>
						<g id="XMLID_200_">
							<path id="XMLID_46_" class="st1" d="M126.6,137c-0.8-0.6-1.2-0.8-1.2-1.4c0-0.8,0.9-1,1.5-1c0.2,0,0.4,0,0.6,0.1
								c-0.3-0.1-0.6-0.2-0.9-0.2c-0.6,0-1.4,0.3-1.5,1.1c0,0.6,0.4,0.9,1.2,1.5c1.6,1.1,2.3,1.8,2.3,3.2c0,1.1-0.4,1.9-1.1,2.5
								c0.8-0.6,1.3-1.4,1.3-2.6C128.8,138.9,128.2,138.2,126.6,137z"/>
						</g>
						<g id="XMLID_198_">
							<path id="XMLID_45_" class="st1" d="M132.4,139.3c0,0-0.5,2.9-0.5,3.1c-0.1,0.4-0.1,0.6-0.2,0.8c0.2-0.2,0.3-0.5,0.4-1
								c0-0.2,0.3-2,0.4-2.7C132.4,139.3,132.4,139.3,132.4,139.3z"/>
						</g>
					</g>
					<g id="XMLID_191_">
						<path id="XMLID_192_" class="st0" d="M147,137.4c0-2.8-1.9-4.3-4.3-4.3c-2.6,0-5.8,2.4-5.8,5.9c0,0.9,0.4,1.8,0.8,2.5
							c0-0.2-0.1-0.6-0.1-0.9c0-3.3,2.2-5.3,4.3-5.3c1.2,0,2.1,0.8,2.1,2.2c0,1.4-1,2.5-2,3l0.4-1.8l-4.3,3.6
							c1.3,1.4,2.9,2.4,5.8,2.6c-0.8-0.6-1.5-1.5-1.5-1.5C146,142.1,147,139.2,147,137.4z M126.2,137.1c-0.8-0.6-1.2-1-1.2-1.5
							c0-0.8,0.9-1.1,1.5-1.1c1.2,0,2.2,1.4,2.2,1.4c0.3-1.2,0.4-1.6,0.6-2.3c-0.9-0.3-1.8-0.5-2.7-0.5c-2.9,0-4.3,1.8-4.3,3.3
							c0,1.7,1.1,2.3,2.1,3c0.6,0.5,1.2,0.8,1.2,1.6c0,0.7-0.6,1.1-1.3,1.1c-1.5-0.1-2.3-1.7-2.3-1.7c-0.4,1.2-0.5,1.8-0.8,2.6
							c0.9,0.4,2,0.7,3.2,0.7c2.2,0,4.1-1.1,4.1-3.5C128.4,138.9,127.7,138.2,126.2,137.1 M136.5,141.5c-0.5-0.9-1.8-3.4-1.8-3.4
							s3.3-3.7,3.7-4c0.4-0.3,0.7-0.5,0.9-0.7h-3.2c0,0.1-0.1,0.2-0.2,0.3c-0.1,0.1-0.2,0.2-0.3,0.4l-3,3.4c0.1-0.4,0.5-2.6,0.6-3
							c0.1-0.5,0.2-1.1-0.3-1.1h-2.6c0.1,0.3,0.1,0.6,0.1,0.9c0,0.3-0.1,0.7-0.2,1.2l-1.2,5.8c-0.1,0.5-0.2,0.8-0.3,1.2
							c-0.1,0.3-0.3,0.6-0.5,0.9h2.7c0.6,0,0.6-0.3,0.8-1.1c0-0.3,0.6-3.1,0.6-3.1s0.9,2,1.5,3c0.9,1.5,2.5,1.7,3.1,1.7
							c0.9,0,1.5-0.1,1.5-0.2C138,143.4,137.3,142.8,136.5,141.5z M149.8,141.5l1.3-5.9c0.1-0.5,0.2-0.8,0.2-1.1
							c0.1-0.6,0.2-1-0.3-1h-2.7c0.1,0.3,0.1,0.6,0.1,0.9c0,0.3-0.1,0.7-0.2,1.2l-1.2,5.8c-0.1,0.5-0.2,0.8-0.3,1.2
							c-0.1,0.3-0.3,0.6-0.5,0.9h6l1.4-2.9C152,141.4,151.3,141.4,149.8,141.5z"/>
					</g>
				</g>
			</g>
			<g id="XMLID_171_">
				<g id="XMLID_186_">
					<path id="XMLID_187_" class="st1" d="M123.5,146.9l-0.6-0.3h2.4l-0.6,0.3v2.4c0,0.4,0.7,0.7,1.5,0.7c0.8,0,1.5-0.3,1.5-0.7
						v-2.4l-0.6-0.3h2l-0.6,0.3v2.4c0,0.6-1.2,1.1-2.5,1.1c-1.3,0-2.5-0.4-2.5-1.1V146.9z"/>
				</g>
				<g id="XMLID_183_">
					<path id="XMLID_184_" class="st1" d="M134.2,150.3h-4.4l0.6-0.3v-3.1l-0.6-0.3h2.4l-0.6,0.3v3.1h1.8l0.9-0.4V150.3z"/>
				</g>
				<g id="XMLID_180_">
					<path id="XMLID_181_" class="st1" d="M137.8,150.3h-2.4l0.6-0.3v-3.1h-1.3l-0.9,0.4v-0.7h5.4v0.7l-0.9-0.4h-1.3v3.1
						L137.8,150.3z"/>
				</g>
				<g id="XMLID_176_">
					<path id="XMLID_177_" class="st1" d="M145.9,150.3h-1.6l-1.8-1.7h-0.8v1.4l0.6,0.3h-2.4l0.6-0.3v-3.1l-0.6-0.3h2.5
						c1.3,0,2.6,0.4,2.6,1c0,0.4-0.6,0.8-1.4,0.9l1.7,1.5L145.9,150.3z M141.7,148.3h0.7c0.7,0,1.3-0.3,1.3-0.7
						c0-0.4-0.5-0.7-1.3-0.7h-0.7V148.3z"/>
				</g>
				<g id="XMLID_172_">
					<path id="XMLID_173_" class="st1" d="M147.6,150.3h-2l0.7-0.3l2.4-3.4h0.7l2.3,3.4l0.7,0.3h-2.5l0.6-0.3l-0.5-0.7h-2.4
						l-0.5,0.7L147.6,150.3z M147.6,148.9h2l-1-1.5L147.6,148.9z"/>
				</g>
			</g>
		</g>
	</g>
</g>
<g id="XMLID_166_">
	<path id="XMLID_33_" class="st0" d="M99,17c0-5.4,4.4-9.8,9.8-9.8v5.8c-2.2,0-4,1.8-4,4H99z"/>
</g>
<g id="XMLID_164_">
	<path id="XMLID_32_" class="st1" d="M100.2,16.1C100.2,16.1,100.2,16.1,100.2,16.1c-0.2,0-0.3-0.2-0.3-0.3c0.5-4,3.7-7.2,7.7-7.7
		c0.2,0,0.3,0.1,0.3,0.3c0,0.2-0.1,0.3-0.3,0.3c-3.7,0.5-6.7,3.4-7.2,7.2C100.5,16,100.4,16.1,100.2,16.1z"/>
</g>
<g id="XMLID_162_">
	<rect id="XMLID_31_" x="109.4" y="6.5" class="st0" width="2.2" height="7.1"/>
</g>
<g id="XMLID_160_">
	<rect id="XMLID_30_" x="98.3" y="17.6" class="st0" width="7.1" height="2.2"/>
</g>
<g id="XMLID_158_">
	<path id="XMLID_29_" class="st0" d="M108.8,165.4c-5.4,0-9.8-4.4-9.8-9.8h5.8c0,2.2,1.8,4,4,4V165.4z"/>
</g>
<g id="XMLID_156_">
	<rect id="XMLID_28_" x="98.3" y="152.9" class="st0" width="7.1" height="2.2"/>
</g>
<g id="XMLID_154_">
	<rect id="XMLID_27_" x="109.4" y="159" class="st0" width="2.2" height="7.1"/>
</g>
<g id="XMLID_152_">
	<path id="XMLID_26_" class="st0" d="M170,17c0-2.2-1.8-4-4-4V7.2c5.4,0,9.8,4.4,9.8,9.8H170z"/>
</g>
<g id="XMLID_150_">
	<path id="XMLID_25_" class="st1" d="M171.9,15c-0.1,0-0.2-0.1-0.3-0.2c-0.6-1.6-1.9-2.8-3.4-3.4c-0.2-0.1-0.2-0.2-0.2-0.4
		c0.1-0.2,0.2-0.2,0.4-0.2c1.7,0.7,3.1,2.1,3.8,3.8c0.1,0.2,0,0.3-0.2,0.4C171.9,15,171.9,15,171.9,15z"/>
</g>
<g id="XMLID_148_">
	<rect id="XMLID_24_" x="163.2" y="6.5" class="st0" width="2.2" height="7.1"/>
</g>
<g id="XMLID_146_">
	<rect id="XMLID_23_" x="169.4" y="17.6" class="st0" width="7.1" height="2.2"/>
</g>
<g id="XMLID_144_">
	<path id="XMLID_22_" class="st0" d="M166,159.7c2.2,0,4-1.8,4-4h5.8c0,5.4-4.4,9.8-9.8,9.8V159.7z"/>
</g>
<g id="XMLID_142_">
	<rect id="XMLID_21_" x="169.4" y="152.9" class="st0" width="7.1" height="2.2"/>
</g>
<g id="XMLID_140_">
	<rect id="XMLID_20_" x="163.2" y="159" class="st0" width="2.2" height="7.1"/>
</g>
<g id="XMLID_138_">
	<rect id="XMLID_19_" x="112.5" y="7.6" class="st0" width="49.8" height="4.9"/>
</g>
<g id="XMLID_136_">
	<rect id="XMLID_18_" x="112.5" y="160.1" class="st0" width="49.8" height="4.9"/>
</g>
<g id="XMLID_134_">
	<path id="XMLID_17_" class="st2" d="M149.8,28.3c0.9-0.4,2.1,0.7,4.3-1.5c-1.1-0.6-3.3,0.7-4.1,1.3c-0.2,0.1-0.4,0.2-0.6,0.3
		c0.3-0.4,0.6-0.9,0.8-1.4c0.1-0.1,0.3-0.2,0.4-0.3c0.9-0.6,2.2,0,4-2.6c-1.2-0.3-3.4,1.9-3.9,2.4c-0.2,0.2-0.3,0.3-0.4,0.4
		c0.3-0.6,0.6-1.2,0.8-1.8c0.1-0.1,0.2-0.2,0.2-0.3c0.6-0.6,2.1-0.3,2.9-2.8c-1.6,0-2.8,2.6-3.1,2.9c0.1-0.4,0.3-1,0.4-1.5
		c0-0.1,0-0.1,0.1-0.2c0.3-0.7,1.1-2.7-0.1-3.8c-0.7,1.6-0.5,2.5-0.1,3.6c0,0.1,0,0.2,0,0.3c-0.3,1-0.7,2-1.2,3c0-0.1,0-0.2,0.1-0.4
		c0.2-0.5,0.9-2.5,0-3.4c-1.2,1.8,0,2.8-0.1,3.6c0,0.1,0,0.3-0.1,0.4c-0.3,0.6-0.7,1.2-1,1.7c0-0.1,0-0.3,0.1-0.4
		c0.2-0.5,0.8-2.6-0.1-3.5c-1.2,1.9,0,2.8,0,3.6c0,0.1,0,0.3-0.1,0.4c-0.4,0.6-0.9,1.2-1.5,1.8c0-0.1,0-0.1,0.1-0.2
		c0.2-0.5,1-2.8,0.2-4c-1.4,2-0.2,3.3-0.4,4.1c0,0,0,0.1,0,0.1c-0.5,0.5-1,1.1-1.6,1.6c0-0.1,0.1-0.2,0.1-0.4
		c0.3-0.6,1.3-2.9,0.5-4.3c-1.6,2-0.4,3.5-0.6,4.5c0,0.1-0.1,0.2-0.1,0.3c-0.5,0.4-1,0.9-1.5,1.3c0-0.1,0.1-0.2,0.1-0.4
		c0.4-0.9,1.3-3.4,0.4-4.4c-1.8,2.5-0.4,3.6-0.5,4.6c0,0.1,0,0.2-0.1,0.2c-0.6,0.5-1.3,1-2,1.4c0.1-0.2,0.1-0.4,0.2-0.6
		c0.4-0.7,1.4-3.2,0.6-4.5c-1.7,2.1-0.6,3.7-0.8,4.6c-0.1,0.2-0.1,0.4-0.2,0.5c-0.5,0.3-1,0.6-1.4,0.9c0-0.2,0.1-0.3,0.1-0.5
		c0.2-0.5,1.2-2.6,0.3-3.5c-1.5,2-0.3,2.9-0.4,3.7c0,0.1-0.1,0.3-0.1,0.4c-0.5,0.3-0.9,0.5-1.4,0.8c0-0.1,0.1-0.3,0.1-0.4
		c0.1-0.3,1-2.2,0.2-3.2c-1.3,1.6-0.3,2.6-0.4,3.4c0,0.1-0.1,0.3-0.1,0.3c-0.5,0.2-1,0.5-1.5,0.7c-0.5-0.2-1-0.5-1.5-0.7
		c0-0.1-0.1-0.2-0.1-0.3c-0.1-0.7,1-1.7-0.4-3.4c-0.8,1.1,0.1,2.9,0.2,3.2c0.1,0.2,0.1,0.3,0.1,0.4c-0.5-0.2-0.9-0.5-1.4-0.8
		c0-0.1-0.1-0.3-0.1-0.4c-0.1-0.8,1.1-1.7-0.4-3.7c-0.9,0.9,0.1,3.1,0.3,3.5c0.1,0.2,0.1,0.3,0.1,0.5c-0.5-0.3-1-0.6-1.4-0.9
		c-0.1-0.1-0.1-0.4-0.2-0.5c-0.2-1,0.9-2.5-0.8-4.6c-0.8,1.3,0.2,3.7,0.6,4.5c0.1,0.2,0.1,0.4,0.2,0.6c-0.7-0.4-1.3-0.9-2-1.4
		c0-0.1,0-0.2-0.1-0.2c-0.2-1,1.3-2.1-0.5-4.6c-1,1-0.1,3.5,0.4,4.4c0.1,0.1,0.1,0.3,0.1,0.4c-0.5-0.4-1-0.8-1.5-1.3
		c0-0.1-0.1-0.2-0.1-0.3c-0.2-0.9,1-2.5-0.6-4.5c-0.8,1.4,0.2,3.8,0.5,4.3c0.1,0.1,0.1,0.2,0.1,0.4c-0.6-0.5-1.1-1-1.6-1.6
		c0,0,0-0.1,0-0.1c-0.1-0.9,1-2.1-0.4-4.1c-0.8,1.1,0,3.5,0.2,4c0,0.1,0,0.1,0.1,0.2c-0.5-0.6-1-1.2-1.5-1.8c0-0.1-0.1-0.3-0.1-0.4
		c0-0.8,1.2-1.8,0-3.6c-0.9,0.9-0.3,3-0.1,3.5c0.1,0.1,0.1,0.3,0.1,0.4c-0.4-0.6-0.7-1.1-1-1.7c0-0.1,0-0.3-0.1-0.4
		c-0.1-0.8,1.1-1.7-0.1-3.6c-0.9,0.9-0.2,2.9,0,3.4c0,0.1,0.1,0.2,0.1,0.4c-0.5-1-0.9-2-1.2-3c0-0.1,0-0.3,0-0.3
		c0.4-1.1,0.6-2-0.1-3.6c-1.1,1-0.4,3.1-0.1,3.8c0,0.1,0,0.1,0.1,0.2c0.1,0.5,0.3,1.1,0.4,1.5c-0.3-0.3-1.5-2.8-3.1-2.9
		c0.9,2.4,2.3,2.1,2.9,2.8c0.1,0.1,0.2,0.2,0.2,0.3c0.2,0.6,0.5,1.2,0.8,1.8c-0.1-0.1-0.3-0.2-0.4-0.4c-0.5-0.5-2.7-2.7-3.9-2.4
		c1.9,2.6,3.2,2,4,2.6c0.1,0.1,0.3,0.2,0.4,0.3c0.2,0.5,0.5,0.9,0.8,1.4c-0.2-0.1-0.4-0.2-0.6-0.3c-0.8-0.6-3.1-1.9-4.1-1.3
		c2.3,2.2,3.4,1.2,4.3,1.5c0.2,0.1,0.4,0.2,0.5,0.3c0.5,0.7,1,1.4,1.6,2c-0.2-0.1-0.4-0.2-0.7-0.3c-0.8-0.4-3.7-2.1-5.2-1.3
		c2.8,2.4,4.3,1.2,5.5,1.5c0.2,0.1,0.4,0.2,0.6,0.3c0.4,0.4,0.8,0.8,1.2,1.2c-0.3,0-0.5-0.1-0.8-0.2c-1.4-0.5-4-1.1-5.1-0.2
		c3,1.7,4.2,0.3,5.3,0.4c0.2,0.1,0.5,0.1,0.6,0.1c0.6,0.5,1.1,1,1.7,1.5c-0.3,0-0.5,0-0.8-0.1c-1.4-0.3-4.2-0.8-5.6,0.4
		c3.3,1.6,4.6-0.2,5.9-0.2c0.2,0,0.5,0.1,0.7,0.1c0.5,0.4,1.1,0.8,1.6,1.2c-0.3,0-0.5,0-0.8,0c-1-0.1-4.4-0.4-5.4,1.2
		c3.5,1.3,4.5-0.8,5.7-1c0.3,0,0.6,0,0.8,0c0.6,0.4,1.1,0.7,1.7,1.1c-0.2,0-0.3,0.1-0.5,0c-2.4-0.1-3.8,0.6-4.3,1.4
		c2.8,0.8,3.5-1.1,4.5-1.3c0.1,0,0.3,0,0.4,0c0.4,0.2,0.7,0.4,1.1,0.6c-1.7,0.2-2.4,0.7-2.6,1.8c1.9,0,2.1-1.4,2.8-1.7
		c0.4,0.2,0.9,0.5,1.3,0.7c-1.5,0.7-3.1,1.2-4,1.5c0,0-0.1,0-0.1,0.1c0,0.2,0,0.4,0.1,0.5c0,0,0.1,0,0.1,0c1.4-0.5,2.9-1.1,4.4-1.8
		c1.5,0.7,3,1.3,4.4,1.8c0,0,0.1,0,0.1,0c0.1-0.1,0.1-0.3,0.1-0.5c0,0,0-0.1-0.1-0.1c-0.8-0.2-2.4-0.8-4-1.5
		c0.4-0.2,0.9-0.4,1.3-0.7c0.7,0.3,0.8,1.7,2.8,1.7c-0.2-1.1-0.9-1.6-2.6-1.8c0.4-0.2,0.7-0.4,1.1-0.6c0.1,0,0.3,0,0.4,0
		c1,0.2,1.7,2.1,4.5,1.3c-0.5-0.8-1.9-1.5-4.3-1.4c-0.2,0-0.3,0-0.5,0c0.6-0.3,1.1-0.7,1.7-1.1c0.2,0,0.5,0,0.8,0
		c1.2,0.2,2.2,2.3,5.7,1c-1-1.6-4.4-1.3-5.4-1.2c-0.3,0-0.6,0-0.8,0c0.6-0.4,1.1-0.8,1.6-1.2c0.2,0,0.5,0,0.7-0.1
		c1.3,0,2.6,1.8,5.9,0.2c-1.4-1.2-4.2-0.7-5.6-0.4c-0.3,0.1-0.5,0.1-0.8,0.1c0.6-0.5,1.2-1,1.7-1.5c0.2,0,0.4-0.1,0.6-0.1
		c1.1-0.1,2.4,1.3,5.3-0.4c-1.1-0.9-3.7-0.3-5.1,0.2c-0.3,0.1-0.5,0.1-0.8,0.2c0.4-0.4,0.8-0.8,1.2-1.2c0.2-0.1,0.4-0.2,0.6-0.3
		c1.2-0.4,2.7,0.8,5.5-1.5c-1.5-0.8-4.4,0.9-5.2,1.3c-0.2,0.1-0.5,0.2-0.7,0.3c0.6-0.6,1.1-1.3,1.6-2
		C149.4,28.5,149.6,28.4,149.8,28.3z"/>
</g>
<g id="XMLID_132_">
	<path id="XMLID_16_" class="st1" d="M100.6,45.6c-0.2,0-0.3-0.1-0.3-0.3V21.6c0-0.2,0.1-0.3,0.3-0.3c0.2,0,0.3,0.1,0.3,0.3v23.7
		C100.9,45.5,100.8,45.6,100.6,45.6z"/>
</g>
<g id="XMLID_130_">
	<path id="XMLID_15_" class="st1" d="M171.7,44.3c-0.2,0-0.3-0.1-0.3-0.3V21.6c0-0.2,0.1-0.3,0.3-0.3s0.3,0.1,0.3,0.3V44
		C172,44.2,171.8,44.3,171.7,44.3z"/>
</g>
<g id="XMLID_128_">
	<path id="XMLID_14_" class="st1" d="M99.5,19.2c-0.2,0-0.3-0.1-0.3-0.3v-0.5c0-0.2,0.1-0.3,0.3-0.3s0.3,0.1,0.3,0.3v0.5
		C99.8,19,99.6,19.2,99.5,19.2z"/>
</g>
<g id="XMLID_126_">
	<path id="XMLID_13_" class="st1" d="M170.5,19.2c-0.2,0-0.3-0.1-0.3-0.3v-0.5c0-0.2,0.1-0.3,0.3-0.3s0.3,0.1,0.3,0.3v0.5
		C170.8,19,170.6,19.2,170.5,19.2z"/>
</g>
<g id="XMLID_124_">
	<path id="XMLID_12_" class="st1" d="M110.7,8h-0.5c-0.2,0-0.3-0.1-0.3-0.3s0.1-0.3,0.3-0.3h0.5c0.2,0,0.3,0.1,0.3,0.3
		S110.9,8,110.7,8z"/>
</g>
<g id="XMLID_122_">
	<path id="XMLID_11_" class="st1" d="M164.5,8h-0.5c-0.2,0-0.3-0.1-0.3-0.3s0.1-0.3,0.3-0.3h0.5c0.2,0,0.3,0.1,0.3,0.3
		S164.7,8,164.5,8z"/>
</g>
<g id="XMLID_120_">
	<path id="XMLID_10_" class="st1" d="M161,10.3h-47.3c-0.2,0-0.3-0.1-0.3-0.3s0.1-0.3,0.3-0.3H161c0.2,0,0.3,0.1,0.3,0.3
		S161.2,10.3,161,10.3z"/>
</g>
<g id="XMLID_118_">
	<path id="XMLID_9_" class="st1" d="M107.6,164.4C107.6,164.4,107.6,164.4,107.6,164.4c-4-0.5-7.2-3.7-7.7-7.7
		c0-0.2,0.1-0.3,0.3-0.3c0.2,0,0.3,0.1,0.3,0.3c0.5,3.7,3.4,6.7,7.2,7.2c0.2,0,0.3,0.2,0.3,0.3C107.9,164.3,107.8,164.4,107.6,164.4
		z"/>
</g>
<g id="XMLID_116_">
	<path id="XMLID_8_" class="st1" d="M168.3,161.7c-0.1,0-0.2-0.1-0.3-0.2c-0.1-0.2,0-0.3,0.2-0.4c1.6-0.6,2.8-1.9,3.4-3.4
		c0.1-0.2,0.2-0.2,0.4-0.2c0.2,0.1,0.2,0.2,0.2,0.4c-0.7,1.7-2,3.1-3.8,3.8C168.3,161.7,168.3,161.7,168.3,161.7z"/>
</g>
<g id="XMLID_114_">
	<path id="XMLID_7_" class="st1" d="M100.6,151.2c-0.2,0-0.3-0.1-0.3-0.3v-21.1c0-0.2,0.1-0.3,0.3-0.3c0.2,0,0.3,0.1,0.3,0.3v21.1
		C100.9,151,100.8,151.2,100.6,151.2z"/>
</g>
<g id="XMLID_112_">
	<path id="XMLID_6_" class="st1" d="M171.7,151.2c-0.2,0-0.3-0.1-0.3-0.3v-23.1c0-0.2,0.1-0.3,0.3-0.3s0.3,0.1,0.3,0.3v23.1
		C172,151,171.8,151.2,171.7,151.2z"/>
</g>
<g id="XMLID_110_">
	<path id="XMLID_5_" class="st1" d="M99.5,154.4c-0.2,0-0.3-0.1-0.3-0.3v-0.5c0-0.2,0.1-0.3,0.3-0.3s0.3,0.1,0.3,0.3v0.5
		C99.8,154.2,99.6,154.4,99.5,154.4z"/>
</g>
<g id="XMLID_108_">
	<path id="XMLID_4_" class="st1" d="M170.5,154.4c-0.2,0-0.3-0.1-0.3-0.3v-0.5c0-0.2,0.1-0.3,0.3-0.3s0.3,0.1,0.3,0.3v0.5
		C170.8,154.2,170.6,154.4,170.5,154.4z"/>
</g>
<g id="XMLID_106_">
	<path id="XMLID_3_" class="st1" d="M110.7,165.1h-0.5c-0.2,0-0.3-0.1-0.3-0.3s0.1-0.3,0.3-0.3h0.5c0.2,0,0.3,0.1,0.3,0.3
		S110.9,165.1,110.7,165.1z"/>
</g>
<g id="XMLID_104_">
	<path id="XMLID_2_" class="st1" d="M164.5,165.1h-0.5c-0.2,0-0.3-0.1-0.3-0.3s0.1-0.3,0.3-0.3h0.5c0.2,0,0.3,0.1,0.3,0.3
		S164.7,165.1,164.5,165.1z"/>
</g>
<g id="XMLID_102_">
	<path id="XMLID_1_" class="st1" d="M161,162.7h-47.3c-0.2,0-0.3-0.1-0.3-0.3s0.1-0.3,0.3-0.3H161c0.2,0,0.3,0.1,0.3,0.3
		S161.2,162.7,161,162.7z"/>
</g>
</svg>
