<?xml version="1.0" encoding="utf-8"?>
<!-- Generator: Adobe Illustrator 19.0.0, SVG Export Plug-In . SVG Version: 6.00 Build 0)  -->
<svg version="1.1" id="Layer_1" xmlns="http://www.w3.org/2000/svg" xmlns:xlink="http://www.w3.org/1999/xlink" x="0px" y="0px"
	 viewBox="0 0 104 65" style="enable-background:new 0 0 104 65;" xml:space="preserve">
<style type="text/css">
	.st0{fill:#CBBB96;}
	.st1{fill:#93732B;}
	.st2{fill:#AE8A35;}
</style>
<g id="XMLID_68_">
	<path id="XMLID_21_" class="st0" d="M40,10.2c-0.3,1.4-1.6,7.9-1.9,9.2l0.5-0.6c0.4-2,1.5-7.1,1.8-8.3c0.3-1.3,0.5-2.6-0.3-2.9
		C40.4,8.2,40.3,9.2,40,10.2z"/>
</g>
<g id="XMLID_66_">
	<path id="XMLID_20_" class="st0" d="M26.5,14c0.3,0.4,0.5,0.7,0.5,0.7c0.9-3.4,1.2-4.7,1.7-6.7c-0.2-0.1-0.5-0.1-0.7-0.2
		C27.6,9.6,27.2,10.9,26.5,14z"/>
</g>
<g id="XMLID_64_">
	<path id="XMLID_19_" class="st0" d="M67,22.2l-11.2,9.2c0.1,0.1,0.2,0.2,0.3,0.4l10.7-9L67,22.2z"/>
</g>
<g id="XMLID_62_">
	<path id="XMLID_18_" class="st0" d="M89.4,31c4.2-0.3,6.2-0.2,10.4-2.1l0.4-0.8c-4.7,2.2-6.7,2.3-10.7,2.5L89.4,31z"/>
</g>
<g id="XMLID_60_">
	<path id="XMLID_17_" class="st0" d="M65.9,13.3c3.3,0,5.7,2.4,5.7,5.9c0,3.4-2.9,6.5-5.3,7.9l-0.1,0.7c2.7-1.4,5.9-4.9,5.9-8.7
		c0-3.7-2.7-6.4-6.3-6.3c-6.6,0.2-11.9,6.3-12.6,14.4c-0.1,1.2,0.1,3.6,0.2,4.3c0.1,0.2,0.2,0.4,0.3,0.5c-0.1-0.6-0.2-3.7-0.1-4.9
		C54.5,19.3,60.1,13.3,65.9,13.3z"/>
</g>
<g id="XMLID_58_">
	<path id="XMLID_16_" class="st0" d="M80.1,34.1c0.4-0.9,0.7-2.1,1-3.4l3.7-17.1c0.3-1.4,0.5-2.5,0.5-3.4c0-0.8,0-1.6-0.1-2.4h-0.8
		c0.2,0.9,0.2,1.8,0.2,2.7c0,0.9-0.2,2-0.5,3.3l-3.7,16.6c-0.3,1.3-0.6,2.4-1,3.3c-0.4,0.9-0.8,1.8-1.4,2.7H79
		C79.4,35.6,79.8,34.8,80.1,34.1z"/>
</g>
<g id="XMLID_56_">
	<path id="XMLID_15_" class="st0" d="M50.3,31c-1.6-2.5-5.2-9.7-5.2-9.7s9.7-11,10.8-11.9c1.1-0.9,2-1.6,2.7-2h-0.9
		c-0.6,0.4-1.3,1-2.1,1.6c-1.1,1-11.2,12.1-11.2,12.1s3.9,7.4,5.4,10c2.2,3.7,4.1,5.5,5.3,6.5c0.3-0.1,0.4-0.2,0.5-0.3
		C54.6,36.6,52.7,34.9,50.3,31z"/>
</g>
<g id="XMLID_54_">
	<path id="XMLID_14_" class="st0" d="M12.9,33.3c1.1,0,2.2-0.2,2.9-0.8c-0.6,0.3-1.4,0.4-2.3,0.4C9,32.7,6.7,28,6.7,28
		c-0.1,0.3-0.2,0.6-0.3,0.9C7.2,30.2,9.4,33.1,12.9,33.3z"/>
</g>
<g id="XMLID_52_">
	<path id="XMLID_13_" class="st0" d="M19.5,17.8c-2.4-1.7-3.7-2.5-3.6-4.2c0.1-2.3,2.6-3.2,4.5-3.2c0.7,0,1.3,0.1,1.9,0.4
		c-0.8-0.4-1.7-0.7-2.6-0.7c-1.9,0-4.4,0.9-4.5,3.3c-0.1,1.8,1.2,2.9,3.6,4.6c4.8,3.5,6.9,5.5,6.9,9.7c0,3.3-1.3,5.8-3.3,7.5
		c2.4-1.7,4-4.3,4-7.8C26.4,23.5,24.3,21.2,19.5,17.8z"/>
</g>
<g id="XMLID_50_">
	<path id="XMLID_12_" class="st0" d="M37.1,24.6c0,0-1.5,8.7-1.6,9.4c-0.2,1.1-0.3,1.9-0.5,2.4c0.7-0.5,0.9-1.5,1.1-3
		c0.1-0.6,1-6,1.3-8.1C37.2,24.8,37.1,24.6,37.1,24.6z"/>
</g>
<path id="XMLID_44_" class="st1" d="M81.4,18.9c0-8.4-5.9-13-13-13c-8,0-17.7,7.2-17.7,17.9c0,2.9,1.1,5.6,2.4,7.5
	c-0.1-0.7-0.2-1.8-0.2-2.7c0-10.1,6.7-16.1,13.1-16.1c3.7,0,6.5,2.4,6.5,6.5c0,4.1-3.1,7.5-6,9l1.2-5.4l-13,10.8
	c4,4.4,8.6,7.2,17.7,7.9c-2.4-1.7-4.4-4.6-4.4-4.6C78.2,33,81.4,24.4,81.4,18.9z M18.2,18c-2.4-1.8-3.6-2.9-3.6-4.7
	c0.1-2.4,2.6-3.3,4.5-3.3c3.6,0,6.7,4.3,6.7,4.3c0.9-3.5,1.2-4.9,1.7-7c-2.7-0.9-5.4-1.4-8.3-1.4c-8.7,0-12.9,5.5-12.9,9.9
	c0,5.2,3.3,6.8,6.4,9.2c1.8,1.4,3.7,2.5,3.7,5c0,2.2-1.8,3.3-4,3.2c-4.6-0.2-6.9-5-6.9-5c-1.1,3.7-1.7,5.3-2.4,7.9
	c2.6,1.2,5.9,2,9.7,2c6.6,0,12.5-3.4,12.5-10.5C25.1,23.5,23,21.5,18.2,18 M49.5,31.2C48,28.6,44.1,21,44.1,21S54.2,9.9,55.3,9
	c1.1-1,2-1.6,2.7-2h-9.6c-0.1,0.3-0.3,0.6-0.5,0.9c-0.2,0.3-0.6,0.7-1,1.2l-9.1,10.3c0.3-1.3,1.6-7.8,1.9-9.2c0.4-1.6,0.6-3.2-1-3.2
	h-7.9c0.2,0.9,0.2,1.9,0.2,2.8c0,1-0.2,2.1-0.5,3.5l-3.7,17.5c-0.3,1.4-0.6,2.6-1,3.5c-0.4,1-0.8,1.9-1.4,2.8h8.1
	c1.8,0,1.9-1,2.3-3.3c0.1-0.8,1.8-9.4,1.8-9.4s2.7,5.9,4.6,9.2c2.7,4.7,7.5,5,9.3,5c2.8,0,4.4-0.4,4.5-0.7
	C54.1,37.1,51.9,35.3,49.5,31.2z M89.9,31.2l3.9-17.9c0.3-1.4,0.6-2.5,0.7-3.5c0.3-1.9,0.7-2.9-1-2.9h-8.1c0.2,0.9,0.2,1.9,0.2,2.8
	c0,1-0.2,2.1-0.5,3.5l-3.7,17.5c-0.3,1.4-0.6,2.6-1,3.5c-0.4,1-0.8,1.9-1.4,2.8h18.1l4.2-8.6C96.4,31,94.5,30.9,89.9,31.2z"/>
<g id="XMLID_40_">
	<path id="XMLID_41_" class="st2" d="M10.3,47.6l-2-1h7.4l-1.9,1V55c0,1.3,2.1,2.3,4.7,2.3s4.7-1,4.7-2.3v-7.3l-1.9-1h6.1l-1.9,1V55
		c0,2-3.6,3.3-7.5,3.3c-3.9,0-7.5-1.3-7.5-3.3V47.6z"/>
</g>
<g id="XMLID_37_">
	<path id="XMLID_38_" class="st2" d="M42.7,58H29.3l2-1v-9.4l-2-1h7.4l-2,1v9.4h5.4l2.6-1.3V58z"/>
</g>
<g id="XMLID_34_">
	<path id="XMLID_35_" class="st2" d="M53.5,58h-7.4l2-1v-9.4h-3.8l-2.6,1.3v-2.2h16.3v2.2l-2.6-1.3h-3.8V57L53.5,58z"/>
</g>
<g id="XMLID_30_">
	<path id="XMLID_31_" class="st2" d="M78.1,58h-4.9l-5.4-5.2h-2.5V57l2,1h-7.4l2-1v-9.4l-2-1h7.7c3.8,0,7.8,1.2,7.8,3.1
		c0,1.2-1.7,2.3-4.2,2.7l5,4.6L78.1,58z M65.3,51.9h2.3c2.2,0,3.9-1,3.9-2.1c0-1.2-1.6-2.2-3.9-2.2h-2.3V51.9z"/>
</g>
<g id="XMLID_26_">
	<path id="XMLID_27_" class="st2" d="M83.1,58H77l2-1l7.2-10.3h2.1L95.3,57l2,1h-7.7l1.9-1l-1.5-2.2h-7.4L81.1,57L83.1,58z
		 M83.3,53.9h6.1l-3-4.5L83.3,53.9z"/>
</g>
</svg>
