<?xml version="1.0" encoding="utf-8"?>
<!-- Generator: Adobe Illustrator 19.0.0, SVG Export Plug-In . SVG Version: 6.00 Build 0)  -->
<svg version="1.1" id="Layer_1" xmlns="http://www.w3.org/2000/svg" xmlns:xlink="http://www.w3.org/1999/xlink" x="0px" y="0px"
	 viewBox="0 0 836 500" style="enable-background:new 0 0 836 500;" xml:space="preserve">
<style type="text/css">
	.st0{clip-path:url(#XMLID_103_);fill:#FFFFFF;}
	.st1{clip-path:url(#XMLID_103_);fill-rule:evenodd;clip-rule:evenodd;fill:#FFFFFF;}
	.st2{clip-path:url(#XMLID_103_);fill:#AE8A35;}
	.st3{clip-path:url(#XMLID_103_);}
	.st4{fill:#FFFFFF;}
</style>
<g id="XMLID_102_">
	<defs>
		<rect id="XMLID_1_" x="20.1" y="12.7" width="793.9" height="474.7"/>
	</defs>
	<clipPath id="XMLID_103_">
		<use xlink:href="#XMLID_1_"  style="overflow:visible;"/>
	</clipPath>
	<path id="XMLID_100_" class="st0" d="M149.8,352.9c6.5-3.3,9.6-4.8,9.4-4.7c-0.2,0.1,7,5.4,21.6,15.9l-9.1-18l-3.1-2.7l11-5.6
		l0.4,3.9l19.7,38.9l3,2.3l-8.8,4.5l-23.1-17.8l10.2,20.1l0,0l3.4,2.6l-11.3,5.7l-0.5-3.9L153,355.3L149.8,352.9z"/>
	<path id="XMLID_239_" class="st0" d="M227,303.4l0.1,1.1c0.3,2.6,0,4.8-0.9,6.6c-0.9,1.8-2.4,3-4.5,3.7c-0.6,0.2-1.7,0.3-3.3,0.4
		l-1,0l-1,0.1c-0.7,0.1-1.3,0.2-1.8,0.3c-1.3,0.4-2.1,1.4-2.4,2.9l-0.1,0.5l-5.2,1.7l-0.1-1.1c-0.3-2.6,0-4.8,1-6.7
		c1-1.9,2.7-3.2,4.8-3.9c0.5-0.2,1.2-0.3,1.9-0.4l1-0.1l1,0c1.6-0.1,2.7-0.3,3.3-0.5c1-0.3,1.6-1.1,1.7-2.2l0.1-0.6L227,303.4z
		 M229.6,319.3l-0.1,4.3L251,362l3.1,2.6l-13.7,4.5l0.1-3.9l-3.4-6.4l-8,2.6l1.2,7.3l2.4,2.9l-13.7,4.5l0.9-3.9l-5.7-43.6l-2.7-3.5
		L229.6,319.3z M227.8,352.3l5.1-1.7l-8-15.5L227.8,352.3z"/>
	<path id="XMLID_236_" class="st0" d="M284.5,305.5l8.1,5.1l7.9,36.4l-5.2,8l-16.8,3.6l-8-5.2l-7.9-36.4l5.2-8L284.5,305.5z
		 M288,347.1l1.4-2.3l-6-27.8l-2.1-1.4l-6.3,1.4l-1.5,2.4l6,27.8l2.2,1.4L288,347.1z"/>
	<path id="XMLID_233_" class="st0" d="M376.6,293.8l7.2,6.2l2.6,37.2l-6.3,7.2l-17.1,1.2l-7.2-6.3l-2.6-37.1l6.3-7.2L376.6,293.8z
		 M374.2,335.5l1.7-2.1l-2-28.4l-1.9-1.7l-6.4,0.4l-1.8,2.1l2,28.4l1.9,1.7L374.2,335.5z"/>
	<polygon id="XMLID_92_" class="st0" points="437.2,292.9 439.3,303.5 435.1,302.1 420.9,301.9 420.8,312.8 430.9,312.9 435,311.6 
		434.9,323.3 431,321.9 420.7,321.8 420.6,339.7 422.2,343.4 408.9,343.3 410.3,339.6 410.7,296.8 409.4,292.6 	"/>
	<polygon id="XMLID_91_" class="st0" points="476.8,295.1 475.1,299.1 471.9,342 473.5,345.9 459.8,344.8 461.4,341.3 464.9,298.4 
		463.8,294.1 	"/>
	<polygon id="XMLID_90_" class="st0" points="526.3,301.3 532.1,309 531.4,313.6 520.6,316.5 521.3,311.7 519.8,309.6 513.4,308.7 
		511.1,310.4 506.9,338.6 508.5,340.6 514.9,341.6 517,340 517.4,337.7 528.3,334.8 526.6,345.9 518.9,351.5 501.8,349 496.2,341.3 
		501.7,304.5 509.3,298.8 	"/>
	<polygon id="XMLID_89_" class="st0" points="571.7,310.4 569.4,314.1 559.8,356 560.8,360 547.4,357 549.5,353.8 559.4,311.8 
		559,307.5 	"/>
	<path id="XMLID_226_" class="st0" d="M620.6,324.9l-2.7,3.4l-5.6,43.7l0.9,4l-13.7-4.5l2.4-3l1.1-7.2l-8-2.6l-3.4,6.5l0.1,3.8
		l-13.7-4.5l3.1-2.6l21.4-38.4l0-4.4L620.6,324.9z M599.5,350.3l5.1,1.7l2.8-17.2L599.5,350.3z"/>
	<polygon id="XMLID_86_" class="st0" points="664.1,343 661,346.1 644.3,379.6 659.5,387.1 659.5,387.1 663.9,387.7 663,388.9 
		657.3,396.3 629.8,382.6 632.7,379.8 651.8,341.5 652.4,337.2 	"/>
	<path id="XMLID_85_" class="st0" d="M392.5,393.5c-0.3,1.3-1.6,7.7-1.9,9l0.5-0.6c0.4-1.9,1.5-7,1.8-8.2c0.3-1.3,0.5-2.5-0.3-2.9
		C392.9,391.5,392.8,392.5,392.5,393.5"/>
	<path id="XMLID_84_" class="st0" d="M379.2,397.2c0.3,0.4,0.5,0.6,0.5,0.6c0.9-3.4,1.2-4.6,1.7-6.6c-0.2-0.1-0.5-0.1-0.7-0.2
		C380.3,392.9,380,394.2,379.2,397.2"/>
	<path id="XMLID_83_" class="st0" d="M419,405.3l-11,9.1c0.1,0.1,0.2,0.2,0.3,0.4l10.6-8.8L419,405.3z"/>
	<path id="XMLID_82_" class="st0" d="M441,413.9c4.2-0.3,6.1-0.2,10.2-2l0.4-0.8c-4.6,2.2-6.6,2.2-10.5,2.4L441,413.9z"/>
	<path id="XMLID_81_" class="st0" d="M418,396.5c3.3,0,5.6,2.3,5.6,5.8c0,3.3-2.8,6.3-5.2,7.7l-0.1,0.7c2.6-1.4,5.8-4.8,5.8-8.5
		c0-3.6-2.6-6.3-6.1-6.2c-6.5,0.2-11.7,6.1-12.4,14.1c-0.1,1.2,0.1,3.5,0.2,4.2c0.1,0.2,0.2,0.4,0.3,0.5c-0.1-0.6-0.2-3.7-0.1-4.8
		C406.7,402.4,412.2,396.5,418,396.5"/>
	<path id="XMLID_80_" class="st0" d="M431.9,416.9c0.3-0.9,0.7-2,1-3.4l3.6-16.8c0.3-1.3,0.5-2.5,0.5-3.4c0-0.8,0-1.6-0.1-2.3H436
		c0.2,0.9,0.2,1.8,0.2,2.6c0,0.9-0.2,2-0.5,3.3l-3.6,16.3c-0.3,1.3-0.6,2.4-1,3.3c-0.3,0.9-0.8,1.8-1.4,2.6h1.1
		C431.2,418.4,431.6,417.7,431.9,416.9"/>
	<path id="XMLID_79_" class="st0" d="M402.7,413.9c-1.5-2.5-5.1-9.5-5.1-9.5s9.5-10.8,10.6-11.7c1.1-0.9,2-1.5,2.7-1.9H410
		c-0.6,0.4-1.3,0.9-2,1.6c-1.1,0.9-11,11.9-11,11.9s3.8,7.3,5.3,9.8c2.1,3.6,4,5.4,5.2,6.3c0.3-0.1,0.4-0.2,0.5-0.2
		C406.9,419.4,405,417.8,402.7,413.9"/>
	<path id="XMLID_78_" class="st0" d="M365.9,416.1c1.1,0,2.1-0.2,2.9-0.8c-0.6,0.3-1.4,0.4-2.2,0.4c-4.5-0.2-6.8-4.8-6.8-4.8
		c-0.1,0.3-0.2,0.6-0.3,0.9C360.3,413.1,362.4,416,365.9,416.1"/>
	<path id="XMLID_77_" class="st0" d="M372.3,401c-2.4-1.7-3.6-2.5-3.5-4.1c0.1-2.2,2.5-3.1,4.4-3.1c0.7,0,1.3,0.1,1.9,0.4
		c-0.8-0.4-1.6-0.7-2.5-0.7c-1.8,0-4.3,0.9-4.4,3.2c-0.1,1.7,1.2,2.8,3.6,4.5c4.7,3.4,6.8,5.4,6.8,9.5c0,3.2-1.3,5.7-3.2,7.4
		c2.4-1.7,3.9-4.2,3.9-7.6C379.1,406.5,377.1,404.3,372.3,401"/>
	<path id="XMLID_76_" class="st0" d="M389.6,407.6c0,0-1.5,8.5-1.6,9.3c-0.2,1.1-0.3,1.8-0.5,2.3c0.7-0.5,0.8-1.5,1.1-3
		c0.1-0.6,1-5.9,1.3-8C389.7,407.8,389.6,407.6,389.6,407.6"/>
	<path id="XMLID_210_" class="st0" d="M433.2,402c0-8.3-5.7-12.8-12.7-12.8c-7.8,0-17.4,7.1-17.4,17.6c0,2.8,1.1,5.5,2.3,7.3
		c-0.1-0.7-0.2-1.8-0.2-2.7c0-9.9,6.6-15.8,12.8-15.8c3.6,0,6.4,2.4,6.4,6.4c0,4.1-3.1,7.3-5.9,8.9l1.2-5.3l-12.8,10.6
		c3.9,4.3,8.5,7.1,17.3,7.8c-2.3-1.7-4.3-4.5-4.3-4.5C430,415.9,433.2,407.5,433.2,402 M371.1,401.1c-2.4-1.7-3.6-2.9-3.5-4.6
		c0.1-2.3,2.5-3.2,4.4-3.2c3.6,0,6.6,4.2,6.6,4.2c0.9-3.5,1.2-4.8,1.7-6.8c-2.7-0.9-5.3-1.4-8.2-1.4c-8.5,0-12.6,5.4-12.6,9.7
		c0,5.1,3.2,6.7,6.2,9c1.8,1.3,3.6,2.4,3.6,4.9c0,2.2-1.7,3.3-3.9,3.2c-4.5-0.2-6.8-5-6.8-5c-1.1,3.6-1.6,5.2-2.4,7.8
		c2.6,1.2,5.8,2,9.5,2c6.5,0,12.2-3.4,12.2-10.3C377.9,406.5,375.8,404.6,371.1,401.1 M401.9,414.1c-1.5-2.6-5.3-10-5.3-10
		s9.9-10.9,11-11.9c1.1-0.9,2-1.6,2.7-2h-9.4c-0.1,0.3-0.3,0.6-0.5,0.9c-0.2,0.3-0.6,0.7-1,1.2l-9,10.1c0.3-1.3,1.6-7.7,1.9-9
		c0.3-1.6,0.6-3.1-0.9-3.1h-7.8c0.2,0.9,0.2,1.9,0.2,2.8c0,0.9-0.2,2.1-0.5,3.5l-3.6,17.2c-0.3,1.4-0.6,2.5-1,3.5
		c-0.3,0.9-0.8,1.9-1.4,2.8h8c1.8,0,1.9-0.9,2.2-3.3c0.1-0.8,1.8-9.3,1.8-9.3s2.7,5.8,4.5,9c2.6,4.6,7.4,5,9.2,5
		c2.7,0,4.3-0.4,4.5-0.7C406.3,419.9,404.2,418.1,401.9,414.1 M441.5,414.1l3.9-17.6c0.3-1.4,0.6-2.4,0.7-3.4
		c0.3-1.8,0.7-2.8-0.9-2.8h-7.9c0.2,0.9,0.2,1.9,0.2,2.8c0,0.9-0.2,2.1-0.5,3.5l-3.6,17.2c-0.3,1.4-0.6,2.5-1,3.5
		c-0.3,0.9-0.8,1.9-1.4,2.8h17.7l4.1-8.5C447.9,413.9,446,413.8,441.5,414.1"/>
	<path id="XMLID_71_" class="st0" d="M363.3,430.2l-1.9-1h7.2l-1.9,1v7.2c0,1.2,2.1,2.2,4.6,2.2c2.5,0,4.6-1,4.6-2.2v-7.2l-1.9-1h6
		l-1.9,1v7.2c0,1.9-3.6,3.2-7.4,3.2c-3.8,0-7.4-1.3-7.4-3.2V430.2z"/>
	<polygon id="XMLID_70_" class="st0" points="395.1,440.4 381.9,440.4 383.9,439.5 383.9,430.2 381.9,429.3 389.2,429.3 
		387.3,430.2 387.3,439.5 392.6,439.5 395.1,438.2 	"/>
	<polygon id="XMLID_69_" class="st0" points="405.8,440.4 398.5,440.4 400.4,439.5 400.4,430.2 396.7,430.2 394.2,431.5 
		394.2,429.3 410.1,429.3 410.1,431.5 407.6,430.2 403.8,430.2 403.8,439.5 	"/>
	<path id="XMLID_204_" class="st0" d="M429.9,440.4h-4.8l-5.3-5.1h-2.5v4.2l1.9,1H412l1.9-1v-9.2l-1.9-1h7.5c3.8,0,7.7,1.1,7.7,3.1
		c0,1.2-1.7,2.2-4.2,2.6l4.9,4.5L429.9,440.4z M417.3,434.4h2.2c2.2,0,3.8-1,3.8-2.1c0-1.1-1.6-2.2-3.8-2.2h-2.2V434.4z"/>
	<path id="XMLID_201_" class="st0" d="M434.8,440.4h-6l1.9-1l7.1-10.2h2.1l6.9,10.2l1.9,1h-7.5l1.9-0.9l-1.5-2.2h-7.3l-1.5,2.2
		L434.8,440.4z M435,436.4h6l-3-4.5L435,436.4z"/>
	<path id="XMLID_64_" class="st1" d="M441.3,77.4c2.8-1.1,6.1,1.9,12.9-4.5c-3.1-1.9-9.8,2.2-12.3,3.9c-0.6,0.4-1.1,0.6-1.7,0.9
		c0.9-1.3,1.7-2.7,2.4-4c0.3-0.3,0.8-0.6,1.1-0.9c2.5-1.8,6.4,0,12-7.7c-3.6-0.9-10.1,5.6-11.6,7c-0.5,0.5-0.9,0.8-1.3,1.1
		c0.9-1.7,1.7-3.5,2.4-5.4c0.2-0.3,0.5-0.6,0.7-0.9c1.8-1.9,6.1-1,8.7-8.2c-4.7,0.1-8.3,7.6-9.2,8.5c0.3-1.1,0.9-2.9,1.2-4.4
		c0-0.2,0.1-0.3,0.2-0.5c0.9-2.1,3.2-8.1-0.3-11.2c-2,4.7-1.5,7.3-0.3,10.6c0.1,0.2,0,0.7,0,1c-0.8,3.1-2,6-3.4,8.9
		c0-0.4,0.1-0.7,0.2-1.1c0.6-1.6,2.6-7.3,0-10.1c-3.7,5.4-0.1,8.3-0.3,10.6c-0.1,0.4-0.1,1-0.2,1.3c-0.9,1.7-2,3.4-3.1,5.1
		c0.1-0.4,0.1-0.8,0.2-1.1c0.5-1.4,2.3-7.7-0.3-10.3c-3.6,5.5,0.1,8.5-0.1,10.8c-0.1,0.4-0.1,0.8-0.2,1.1c-1.3,1.9-2.8,3.7-4.4,5.5
		c0-0.2,0.1-0.3,0.2-0.5c0.6-1.5,3.1-8.5,0.7-11.8c-4.1,6.1-0.7,9.7-1.1,12.3c0,0.1-0.1,0.2-0.1,0.4c-1.5,1.6-3,3.2-4.7,4.7
		c0.1-0.4,0.2-0.7,0.4-1.1c0.9-1.6,3.8-8.8,1.3-12.8c-4.9,5.9-1.3,10.5-1.8,13.3c-0.1,0.3-0.2,0.7-0.3,1c-1.4,1.3-2.9,2.6-4.5,3.8
		c0.1-0.3,0.2-0.7,0.3-1.1c1.3-2.7,3.9-10.2,1.1-13.1c-5.3,7.5-1.1,10.8-1.6,13.8c-0.1,0.2-0.1,0.5-0.2,0.7
		c-1.9,1.5-3.9,2.9-5.9,4.2c0.2-0.6,0.3-1.2,0.6-1.9c1.1-2.2,4-9.5,1.8-13.3c-5.1,6.4-1.7,10.9-2.3,13.8c-0.2,0.5-0.4,1.2-0.5,1.6
		c-1.4,0.9-2.8,1.8-4.3,2.6c0.1-0.5,0.2-0.9,0.4-1.5c0.6-1.4,3.5-7.7,0.8-10.5c-4.5,5.9-0.9,8.6-1.3,11c-0.1,0.4-0.2,0.8-0.4,1.2
		c-1.4,0.8-2.7,1.5-4.1,2.3c0.1-0.4,0.2-0.8,0.4-1.3c0.4-1,3-6.4,0.6-9.6c-4,4.9-0.8,7.9-1.1,10c-0.1,0.3-0.2,0.8-0.3,1
		c-1.4,0.7-2.9,1.4-4.4,2.1c-1.6-0.7-3.1-1.4-4.4-2.1c-0.1-0.3-0.1-0.7-0.3-1c-0.3-2.1,2.9-5.1-1.1-10c-2.4,3.2,0.2,8.6,0.6,9.6
		c0.2,0.5,0.3,0.8,0.4,1.3c-1.4-0.7-2.8-1.5-4.1-2.3c-0.1-0.3-0.2-0.8-0.4-1.2c-0.4-2.3,3.2-5.1-1.3-11c-2.7,2.8,0.2,9.1,0.8,10.5
		c0.2,0.5,0.3,1,0.4,1.5c-1.4-0.8-2.9-1.7-4.3-2.6c-0.2-0.4-0.3-1.1-0.5-1.6c-0.6-2.9,2.7-7.4-2.3-13.8c-2.2,3.8,0.7,11.1,1.8,13.3
		c0.3,0.7,0.4,1.2,0.6,1.9c-2-1.3-4-2.7-5.9-4.2c-0.1-0.2-0.1-0.5-0.2-0.7c-0.5-2.9,3.7-6.3-1.6-13.8c-2.8,2.9-0.2,10.4,1.1,13.1
		c0.2,0.4,0.3,0.8,0.3,1.1c-1.6-1.2-3.1-2.5-4.5-3.8c-0.1-0.3-0.2-0.7-0.3-1c-0.5-2.8,3.1-7.5-1.8-13.3c-2.5,4.1,0.5,11.2,1.3,12.8
		c0.2,0.4,0.3,0.7,0.4,1.1c-1.6-1.5-3.2-3.1-4.7-4.7c0-0.1-0.1-0.3-0.1-0.4c-0.3-2.6,3-6.2-1.1-12.3c-2.4,3.3,0.1,10.3,0.7,11.8
		c0.1,0.2,0.1,0.4,0.2,0.5c-1.6-1.8-3-3.6-4.4-5.5c-0.1-0.3-0.1-0.8-0.2-1.1c-0.1-2.3,3.5-5.2-0.1-10.8c-2.6,2.6-0.8,8.9-0.3,10.3
		c0.1,0.4,0.2,0.8,0.2,1.1c-1.1-1.7-2.2-3.4-3.1-5.1c-0.1-0.3-0.1-0.9-0.2-1.3c-0.2-2.3,3.3-5.1-0.3-10.6c-2.6,2.8-0.6,8.5,0,10.1
		c0.1,0.4,0.2,0.7,0.2,1.1c-1.5-2.9-2.6-5.8-3.4-8.9c0-0.3-0.1-0.8,0-1c1.2-3.2,1.7-5.9-0.3-10.6c-3.4,3.1-1.2,9.1-0.3,11.2
		c0.1,0.2,0.1,0.3,0.2,0.5c0.3,1.5,0.9,3.3,1.2,4.4c-0.9-0.9-4.5-8.4-9.2-8.5c2.6,7.3,6.9,6.4,8.7,8.2c0.2,0.3,0.5,0.6,0.7,0.9
		c0.7,1.8,1.5,3.6,2.4,5.4c-0.4-0.3-0.9-0.6-1.3-1.1c-1.4-1.4-7.9-7.9-11.6-7c5.6,7.7,9.5,5.9,12,7.7c0.4,0.3,0.8,0.7,1.1,0.9
		c0.7,1.4,1.6,2.7,2.4,4c-0.6-0.3-1.1-0.5-1.7-0.9c-2.5-1.7-9.2-5.8-12.3-3.9c6.8,6.5,10.2,3.4,12.9,4.5c0.5,0.3,1.1,0.5,1.5,0.8
		c1.4,2.1,3,4,4.7,5.9c-0.7-0.3-1.3-0.5-2-0.9c-2.3-1.3-11.1-6.2-15.6-3.9c8.4,7,12.8,3.5,16.3,4.6c0.6,0.3,1.3,0.6,1.8,0.8
		c1.1,1.2,2.3,2.5,3.6,3.6c-0.7-0.1-1.4-0.2-2.2-0.5c-4.2-1.6-11.8-3.4-15.1-0.7c8.8,5.2,12.5,0.8,15.9,1.2c0.7,0.2,1.5,0.3,1.9,0.4
		c1.7,1.5,3.4,3,5.2,4.5c-0.8-0.1-1.5-0.1-2.4-0.3c-4.2-1-12.6-2.5-16.6,1.2c9.7,4.7,13.7-0.7,17.5-0.7c0.7,0.1,1.6,0.2,2.1,0.2
		c1.6,1.2,3.2,2.4,4.9,3.6c-0.8,0-1.6,0.1-2.5,0c-3.1-0.4-13-1.3-16,3.5c10.5,3.8,13.3-2.5,17-3c0.7,0,1.7-0.1,2.3-0.1
		c1.6,1.1,3.3,2.2,5,3.2c-0.5,0.1-0.9,0.2-1.4,0.1c-7.1-0.2-11.3,1.7-12.7,4.2c8.4,2.3,10.5-3.1,13.4-3.8c0.4,0,0.9-0.1,1.3-0.1
		c1.1,0.6,2.2,1.3,3.2,1.8c-5.1,0.5-7.2,2-7.8,5.2c5.8,0,6.3-4.2,8.3-5c1.3,0.7,2.6,1.3,3.8,2c-4.6,2-9.3,3.7-11.8,4.4
		c-0.1,0-0.2,0.1-0.2,0.3c0,0.5,0.1,1.2,0.3,1.5c0.1,0.1,0.2,0.1,0.3,0.1c4.3-1.5,8.7-3.3,13.1-5.4c4.4,2.1,8.8,3.9,13.1,5.4
		c0.1,0,0.2,0,0.3-0.1c0.2-0.3,0.4-1,0.3-1.5c0-0.1-0.1-0.2-0.2-0.3c-2.5-0.7-7.2-2.4-11.8-4.4c1.3-0.6,2.6-1.3,3.8-2
		c2,0.8,2.5,4.9,8.3,5c-0.6-3.2-2.7-4.7-7.8-5.2c1.1-0.6,2.2-1.2,3.2-1.8c0.4,0,0.9,0.1,1.3,0.1c2.9,0.7,5.1,6.1,13.4,3.8
		c-1.4-2.5-5.5-4.4-12.7-4.2c-0.5,0-1-0.1-1.4-0.1c1.7-1,3.4-2.1,5-3.2c0.6,0,1.5,0.1,2.3,0.1c3.7,0.5,6.4,6.8,17,3
		c-3-4.8-13-3.9-16-3.5c-0.9,0.1-1.7,0-2.5,0c1.7-1.1,3.3-2.3,4.9-3.6c0.5-0.1,1.4-0.1,2.1-0.2c3.7,0,7.8,5.4,17.5,0.7
		c-4-3.7-12.4-2.2-16.6-1.2c-0.9,0.2-1.6,0.2-2.4,0.3c1.8-1.4,3.5-2.9,5.2-4.5c0.5-0.1,1.3-0.3,1.9-0.4c3.4-0.4,7.1,3.9,15.9-1.2
		c-3.3-2.7-10.9-0.9-15.1,0.7c-0.8,0.3-1.5,0.4-2.2,0.5c1.3-1.2,2.4-2.4,3.6-3.6c0.5-0.2,1.2-0.5,1.8-0.8c3.5-1.1,7.9,2.5,16.3-4.6
		c-4.5-2.3-13.2,2.7-15.6,3.9c-0.7,0.4-1.3,0.6-2,0.9c1.7-1.9,3.3-3.9,4.7-5.9C440.3,77.9,440.8,77.7,441.3,77.4"/>
	<path id="XMLID_63_" class="st2" d="M144.3,396.2c-3.7-5.7-7.5-11.4-11.2-17.1c-7.3,4.8-14.3,10-21.1,15.7
		c-4.4-5.2-8.7-10.5-13.1-15.7c-7.4,6.2-14.5,12.8-21.3,19.9c-4.9-4.7-9.8-9.4-14.8-14.1c-7.3,7.7-14.3,15.9-20.9,24.7l20.9-12.1
		l12.9,12.2l23.5-12.2l13.8,16C113.2,413.5,125.2,406.5,144.3,396.2"/>
	<path id="XMLID_62_" class="st2" d="M689.2,396.2c3.7-5.7,7.5-11.4,11.2-17.1c7.3,4.8,14.3,10,21.1,15.7
		c4.4-5.2,8.7-10.5,13.1-15.7c7.4,6.2,14.5,12.8,21.3,19.9c4.9-4.7,9.8-9.4,14.8-14.1c7.3,7.7,14.3,15.9,20.9,24.7l-20.9-12.1
		l-12.9,12.2l-23.5-12.2l-13.8,16C720.3,413.5,708.2,406.5,689.2,396.2"/>
	<path id="XMLID_195_" class="st0" d="M321.3,12.7v21h6.4v-21H321.3z M325.2,17.1h-1.4c-0.5,0-0.9-0.4-0.9-0.9
		c0-0.5,0.4-0.9,0.9-0.9h1.4c0.5,0,0.9,0.4,0.9,0.9C326.1,16.7,325.7,17.1,325.2,17.1z"/>
	<path id="XMLID_192_" class="st0" d="M481.3,12.7v21h6.4v-21H481.3z M485.2,17.1h-1.4c-0.5,0-0.9-0.4-0.9-0.9
		c0-0.5,0.4-0.9,0.9-0.9h1.4c0.5,0,0.9,0.4,0.9,0.9C486.2,16.7,485.7,17.1,485.2,17.1z"/>
	<g id="XMLID_185_" class="st3">
		<path id="XMLID_189_" class="st4" d="M129.9,313.1l-72.7-67.8l-2.7-9.4L20.1,261l8.1,5.7l42.2,89.8l0.7,9.1l26.3-19.2l-7.1-4.7
			l-7.5-14.8l15.4-11.2l11.7,11.6l2.4,8.4l26.3-19.1L129.9,313.1z M114.6,318.1c-0.3,0.4-0.9,0.4-1.3,0l-17.7-17l-31.1,22.6l10.7,22
			c0.2,0.4,0,1-0.4,1.2c-0.1,0.1-0.3,0.1-0.4,0.1c-0.3,0-0.7-0.2-0.8-0.5l-42.5-87.4l13.4-9.7l70,67.4
			C114.9,317.2,114.9,317.8,114.6,318.1z"/>
		<path id="XMLID_186_" class="st4" d="M33.4,259.8l30.4,62.4l30.5-22.3l-49.9-48L33.4,259.8z M83.1,301l-9.9,7.2l-18-35.1L83.1,301
			z"/>
	</g>
	<g id="XMLID_178_" class="st3">
		<path id="XMLID_182_" class="st4" d="M247.9,169l1.1,69.4l37.1-7.2l-24.9-64.6L247.9,169z M276.6,225.6l-12,2.4l-1.6-39.4
			L276.6,225.6z"/>
		<path id="XMLID_179_" class="st4" d="M320.2,262.9l-6.2-6.7l-37.5-92.1l1.5-9.7l-41.8,8.3l5,8.6l0.6,99.2l-3.2,8.5l31.9-6.3
			l-4.4-7.3l-0.6-16.6l18.6-3.7l5.7,15.4l-1.4,8.7L320.2,262.9z M249.1,240.2l0.4,24.5c0,0.5-0.4,0.9-0.9,0.9h0
			c-0.5,0-0.9-0.4-0.9-0.9l-0.4-25.2c0,0,0,0,0,0l-1.2-71.9l16.3-3.1l35,90.7c0.2,0.5-0.1,1-0.5,1.2c-0.5,0.2-1-0.1-1.2-0.5
			l-8.8-22.9L249.1,240.2z"/>
	</g>
	<g id="XMLID_171_" class="st3">
		<path id="XMLID_175_" class="st4" d="M760.9,322.7l30.3-62.3l-10.9-8l-50,48.1L760.9,322.7z M760.7,308.5l-9.9-7.2l27.9-27.9
			L760.7,308.5z"/>
		<path id="XMLID_172_" class="st4" d="M779.5,236.3l-3,9.5l-72.6,67.6l-8.4,3.4l26.3,19.2l2.3-8.2l11.8-11.7l15.3,11.2l-7.4,14.6
			l-7.3,4.8l26.2,19.2l0.7-9.1l42.3-90l8.1-5.4L779.5,236.3z M751,347.3c-0.2,0.3-0.5,0.5-0.8,0.5c-0.1,0-0.3,0-0.4-0.1
			c-0.4-0.2-0.6-0.8-0.4-1.2l10.7-22.1L729,301.8l-17.6,17c-0.4,0.3-0.9,0.3-1.3,0c-0.3-0.4-0.3-0.9,0-1.3l18.2-17.5c0,0,0,0,0,0
			l51.8-49.9l13.4,9.8L751,347.3z"/>
	</g>
	<path id="XMLID_168_" class="st0" d="M204.8,247.2L186.7,265l1.8,4.9l-2.4,5.6l-13.6,5.2l-5.3-2.3l-23.3-60.1l2.5-5.7l13.7-5.4
		l5.3,2.4l3.9,10.2l18-17.8l-3.8-9.7l-19.9-8.6l-36.2,14l-8.7,19.7l30.4,78.4l19.7,8.7l36.2-14l8.9-19.7L204.8,247.2z M191.8,282.3
		l-26.2,10.1l-12.8-5.7l-27.2-70.4l5.8-13l26-10.3l12.8,5.8c0.5,0.2,0.7,0.7,0.4,1.2c-0.2,0.5-0.7,0.7-1.2,0.4l-12.1-5.5l-24.6,9.7
		l-5.2,11.7l26.6,69l11.5,5.1l24.8-9.5l5.2-11.8l-1.5-3.8c-0.2-0.5,0-1,0.5-1.2c0.5-0.2,1,0,1.2,0.5l1.8,4.5L191.8,282.3z"/>
	<g id="XMLID_161_" class="st3">
		<path id="XMLID_165_" class="st4" d="M384.4,154l-35,1.9l4.5,91.3l34.5-1.7l9.2-10.1l-3.6-72.5L384.4,154z M386.5,237.8l-17.9,0.9
			l-3.6-72.9l18.1-0.9l5.1,4.6l3.1,63.1L386.5,237.8z"/>
		<path id="XMLID_162_" class="st4" d="M410.8,157.9l-15.9-14.4l-56.9,2.8l3.3,8.5l4.8,98l-2.5,7.9l57.3-2.8l13.9-15.5L410.8,157.9z
			 M389.2,247.2l-37.1,1.9l-4.7-94.9l37.6-2.1l10.8,9.9l3.7,74L389.2,247.2z"/>
	</g>
	<path id="XMLID_158_" class="st0" d="M507.8,242L507.8,242l-38.2-3.1l2.2-27.9l23.1,1.8l8.6,3.7l2.1-26.3l-9.6,2.4l-22.6-1.8
		l2-24.6l31.9,2.6l9.3,4l-3.1-24.3l-62.6-5l2.4,9.6l-7.7,96.4l-3.8,8.2l69.1,5.5l6.7-23.6L507.8,242z M499.3,251.9
		C499.3,251.9,499.2,251.9,499.3,251.9l-47.6-4.1l4-49.2c0,0,0,0,0,0c0,0,0,0,0,0l3.7-45.8l41,3.3c0.5,0,0.9,0.5,0.8,1
		c0,0.5-0.5,0.9-1,0.8l-39.2-3.1l-3.5,43.1l32.9,2.6c0.5,0,0.9,0.5,0.8,1c0,0.5-0.4,0.8-0.9,0.8c0,0,0,0-0.1,0l-32.9-2.6l-3.8,46.5
		l45.7,3.9c0.5,0,0.9,0.5,0.8,1C500.1,251.6,499.7,251.9,499.3,251.9z"/>
	<path id="XMLID_155_" class="st0" d="M653.8,177l-29.2-7.2l-27.2,39.9l-5.3-47.9l-29.4-7.2l0.8,10l-23,93.6l-5.2,7.6l27.3,6.7
		l-2-9.3l14.3-58.3l5.2,43l15,3.7l24.5-35.7l-14.3,58.3l0-0.1l-5.2,7.6l27.3,6.7l-2-9.3l23.1-93.8L653.8,177z M611.9,274.6
		c-0.1,0.4-0.5,0.7-0.9,0.7c-0.1,0-0.1,0-0.2,0c-0.5-0.1-0.8-0.6-0.7-1.1l22.6-91.6l-6.7-1.7L585,240.6l-8.4-71.7l-7-1.7l-22.5,91.5
		c-0.1,0.5-0.6,0.8-1.1,0.7c-0.5-0.1-0.8-0.6-0.7-1.1l22.9-93.2l9.9,2.5l8,68.2l39.1-56.8l9.6,2.5L611.9,274.6z"/>
	<path id="XMLID_152_" class="st0" d="M723.3,205.3l-27-11.8l-0.9,9.8l-39.4,89.1l-6,6.3l28.3,12.4l-0.4-9.5l38.7-88.9L723.3,205.3z
		 M702.2,207.5l-38.4,87.4c-0.1,0.3-0.5,0.5-0.8,0.5c-0.1,0-0.2,0-0.4-0.1c-0.5-0.2-0.7-0.7-0.5-1.2l38.4-87.4
		c0.2-0.5,0.7-0.7,1.2-0.5C702.2,206.5,702.4,207,702.2,207.5z"/>
	<path id="XMLID_149_" class="st0" d="M290.3,43.7h17.1c0-6.6,5.4-12,12-12V14.6C303.4,14.6,290.3,27.7,290.3,43.7z M316.1,19.1
		c-11.1,1.5-19.8,10.2-21.3,21.3c-0.1,0.5-0.4,0.8-0.9,0.8c0,0-0.1,0-0.1,0c-0.5-0.1-0.8-0.5-0.8-1c1.6-11.9,11-21.3,22.9-22.9
		c0.5-0.1,0.9,0.3,1,0.8C317,18.6,316.6,19.1,316.1,19.1z"/>
	<path id="XMLID_146_" class="st0" d="M489.6,14.6v17.1c6.6,0,12,5.4,12,12h17.1C518.7,27.7,505.6,14.6,489.6,14.6z M507.5,37.7
		c-0.1,0-0.2,0.1-0.3,0.1c-0.4,0-0.7-0.2-0.8-0.6c-1.8-4.7-5.5-8.4-10.2-10.2c-0.5-0.2-0.7-0.7-0.5-1.2c0.2-0.5,0.7-0.7,1.2-0.5
		c5.1,2,9.2,6.1,11.2,11.2C508.1,37,507.9,37.5,507.5,37.7z"/>
	<path id="XMLID_143_" class="st0" d="M291.6,54.2v78.1c4.8-0.8,9.6-1.5,14.5-2.2V54.2H291.6z M296.1,128.1c0,0.5-0.4,0.9-0.9,0.9
		s-0.9-0.4-0.9-0.9V57.5c0-0.5,0.4-0.9,0.9-0.9s0.9,0.4,0.9,0.9V128.1z"/>
	<path id="XMLID_140_" class="st0" d="M502.9,54.2v73.5c4.8,0.6,9.7,1.2,14.5,1.8V54.2H502.9z M507.5,124.2c0,0.5-0.4,0.9-0.9,0.9
		s-0.9-0.4-0.9-0.9V57.5c0-0.5,0.4-0.9,0.9-0.9s0.9,0.4,0.9,0.9V124.2z"/>
	<path id="XMLID_137_" class="st0" d="M288.4,45.5v6.4h21v-6.4H288.4z M292.6,49.4c0,0.5-0.4,0.9-0.9,0.9s-0.9-0.4-0.9-0.9v-1.4
		c0-0.5,0.4-0.9,0.9-0.9s0.9,0.4,0.9,0.9V49.4z"/>
	<path id="XMLID_134_" class="st0" d="M499.6,45.5v6.4h21v-6.4H499.6z M503.8,49.4c0,0.5-0.4,0.9-0.9,0.9s-0.9-0.4-0.9-0.9v-1.4
		c0-0.5,0.4-0.9,0.9-0.9s0.9,0.4,0.9,0.9V49.4z"/>
	<path id="XMLID_131_" class="st0" d="M330.4,15.9v14.5h148.2V15.9H330.4z M474.9,24.1H334.1c-0.5,0-0.9-0.4-0.9-0.9
		c0-0.5,0.4-0.9,0.9-0.9h140.8c0.5,0,0.9,0.4,0.9,0.9C475.8,23.7,475.4,24.1,474.9,24.1z"/>
	<path id="XMLID_128_" class="st0" d="M307.4,456.3h-17.1c0,16.1,13.1,29.1,29.1,29.1v-17.1C312.8,468.3,307.4,462.9,307.4,456.3z
		 M316.9,481.5c-0.1,0.5-0.4,0.8-0.9,0.8c0,0-0.1,0-0.1,0c-11.9-1.6-21.3-11-22.9-22.9c-0.1-0.5,0.3-0.9,0.8-1c0.5-0.1,1,0.3,1,0.8
		c1.5,11.1,10.2,19.8,21.3,21.3C316.6,480.6,317,481,316.9,481.5z"/>
	<path id="XMLID_125_" class="st0" d="M501.6,456.3c0,6.6-5.4,12-12,12v17.1c16.1,0,29.1-13.1,29.1-29.1H501.6z M508,463.1
		c-2,5.1-6.1,9.2-11.2,11.2c-0.1,0-0.2,0.1-0.3,0.1c-0.4,0-0.7-0.2-0.8-0.6c-0.2-0.5,0-1,0.5-1.2c4.7-1.8,8.4-5.5,10.2-10.2
		c0.2-0.5,0.7-0.7,1.2-0.5C507.9,462.1,508.1,462.6,508,463.1z"/>
	<path id="XMLID_122_" class="st0" d="M291.6,374.7v71.1h14.5v-74.4C301.3,372.4,296.4,373.5,291.6,374.7z M296.1,442.1
		c0,0.5-0.4,0.9-0.9,0.9s-0.9-0.4-0.9-0.9v-62.7c0-0.5,0.4-0.9,0.9-0.9s0.9,0.4,0.9,0.9V442.1z"/>
	<path id="XMLID_119_" class="st0" d="M502.9,367.9v78h14.5v-75.2C512.6,369.6,507.7,368.7,502.9,367.9z M507.5,442.1
		c0,0.5-0.4,0.9-0.9,0.9s-0.9-0.4-0.9-0.9v-68.7c0-0.5,0.4-0.9,0.9-0.9s0.9,0.4,0.9,0.9V442.1z"/>
	<path id="XMLID_116_" class="st0" d="M288.4,448v6.4h21V448H288.4z M292.6,451.6c0,0.5-0.4,0.9-0.9,0.9s-0.9-0.4-0.9-0.9v-1.4
		c0-0.5,0.4-0.9,0.9-0.9s0.9,0.4,0.9,0.9V451.6z"/>
	<path id="XMLID_113_" class="st0" d="M499.6,448v6.4h21V448H499.6z M503.8,451.6c0,0.5-0.4,0.9-0.9,0.9s-0.9-0.4-0.9-0.9v-1.4
		c0-0.5,0.4-0.9,0.9-0.9s0.9,0.4,0.9,0.9V451.6z"/>
	<path id="XMLID_110_" class="st0" d="M321.3,466.3v21h6.4v-21H321.3z M325.2,484.3h-1.4c-0.5,0-0.9-0.4-0.9-0.9s0.4-0.9,0.9-0.9
		h1.4c0.5,0,0.9,0.4,0.9,0.9S325.7,484.3,325.2,484.3z"/>
	<path id="XMLID_107_" class="st0" d="M481.4,466.3v21h6.4v-21H481.4z M485.2,484.3h-1.4c-0.5,0-0.9-0.4-0.9-0.9s0.4-0.9,0.9-0.9
		h1.4c0.5,0,0.9,0.4,0.9,0.9S485.7,484.3,485.2,484.3z"/>
	<path id="XMLID_104_" class="st0" d="M330.4,469.6v14.5h148.2v-14.5H330.4z M474.9,477.4H334.1c-0.5,0-0.9-0.4-0.9-0.9
		c0-0.5,0.4-0.9,0.9-0.9h140.8c0.5,0,0.9,0.4,0.9,0.9C475.8,477,475.4,477.4,474.9,477.4z"/>
</g>
</svg>
