<?xml version="1.0" encoding="utf-8"?>
<!-- Generator: Adobe Illustrator 19.0.0, SVG Export Plug-In . SVG Version: 6.00 Build 0)  -->
<svg version="1.1" id="Layer_1" xmlns="http://www.w3.org/2000/svg" xmlns:xlink="http://www.w3.org/1999/xlink" x="0px" y="0px"
	 viewBox="0 0 341 352" style="enable-background:new 0 0 341 352;" xml:space="preserve">
<style type="text/css">
	.st0{fill:#CBBB96;}
	.st1{fill:#93732B;}
	.st2{fill:#AE8A35;}
</style>
<g id="XMLID_68_">
	<path id="XMLID_21_" class="st0" d="M130.9,105.4c-0.9,4.4-5.2,25.2-6.1,29.4l1.7-1.9c1.4-6.3,4.9-22.8,5.8-26.6
		c0.9-4.2,1.6-8.2-1.1-9.4C132.1,98.8,131.6,102.1,130.9,105.4z"/>
</g>
<g id="XMLID_66_">
	<path id="XMLID_20_" class="st0" d="M87.5,117.4c1.1,1.2,1.7,2.1,1.7,2.1c2.8-10.9,3.8-15,5.4-21.6c-0.7-0.2-1.5-0.5-2.2-0.7
		C90.9,103.4,89.9,107.6,87.5,117.4z"/>
</g>
<g id="XMLID_64_">
	<path id="XMLID_19_" class="st0" d="M217,143.8l-35.8,29.5c0.4,0.4,0.7,0.8,1,1.2l34.4-28.7L217,143.8z"/>
</g>
<g id="XMLID_62_">
	<path id="XMLID_18_" class="st0" d="M288.7,172c13.5-0.8,19.8-0.6,33.2-6.6l1.4-2.7c-15.1,7.1-21.4,7.3-34.2,8L288.7,172z"/>
</g>
<g id="XMLID_60_">
	<path id="XMLID_17_" class="st0" d="M213.6,115.2c10.7,0,18.4,7.6,18.4,18.9c0,10.9-9.2,20.7-17.1,25.2l-0.5,2.3
		c8.5-4.6,19-15.5,19-27.7c0-11.7-8.6-20.5-20-20.1c-21.1,0.7-38.1,20-40.4,46c-0.4,3.9,0.3,11.4,0.7,13.7c0.3,0.6,0.5,1.2,0.9,1.6
		c-0.4-2.1-0.7-11.9-0.2-15.8C177.1,134.5,195,115.2,213.6,115.2z"/>
</g>
<g id="XMLID_58_">
	<path id="XMLID_16_" class="st0" d="M258.9,181.7c1.1-3,2.2-6.6,3.1-11l11.7-54.8c0.9-4.3,1.5-8,1.6-11c0.1-2.6,0-5.1-0.4-7.6h-2.6
		c0.6,2.8,0.8,5.7,0.6,8.6c-0.1,2.9-0.7,6.4-1.6,10.6l-11.7,53c-0.9,4.2-2,7.8-3.1,10.6c-1.1,2.9-2.6,5.7-4.4,8.6h3.5
		C256.8,186.5,258,184.1,258.9,181.7z"/>
</g>
<g id="XMLID_56_">
	<path id="XMLID_15_" class="st0" d="M163.8,171.9c-5-8.1-16.5-30.9-16.5-30.9s31.1-35.2,34.6-38.1c3.5-2.9,6.4-5,8.7-6.3h-2.9
		c-1.9,1.3-4.1,3-6.7,5.3c-3.5,3.1-35.7,38.7-35.7,38.7s12.4,23.6,17.4,32.1c6.9,11.8,13.2,17.7,17,20.7c0.9-0.3,1.3-0.5,1.5-0.8
		C177.5,189.8,171.5,184.4,163.8,171.9z"/>
</g>
<g id="XMLID_54_">
	<path id="XMLID_14_" class="st0" d="M44.2,179.1c3.7,0.1,7-0.8,9.3-2.7c-2,0.9-4.5,1.4-7.2,1.3c-14.6-0.5-22.2-15.6-22.2-15.6
		c-0.3,1-0.6,2-0.9,2.9C25.8,169.3,32.9,178.7,44.2,179.1z"/>
</g>
<g id="XMLID_52_">
	<path id="XMLID_13_" class="st0" d="M65,129.8c-7.8-5.5-11.7-8-11.5-13.5c0.3-7.3,8.3-10.2,14.3-10.2c2.1,0,4.2,0.5,6.2,1.2
		c-2.6-1.3-5.4-2.2-8.3-2.2c-6,0-14,3-14.3,10.5c-0.2,5.7,3.8,9.1,11.6,14.8c15.4,11.1,22,17.7,22,31c0,10.5-4.1,18.5-10.6,24
		c7.7-5.4,12.7-13.6,12.7-24.8C87.1,147.7,80.5,140.6,65,129.8z"/>
</g>
<g id="XMLID_50_">
	<path id="XMLID_12_" class="st0" d="M121.4,151.3c0,0-4.9,27.7-5.3,30.1c-0.5,3.4-0.9,5.9-1.6,7.6c2.2-1.5,2.8-4.7,3.5-9.7
		c0.3-1.9,3.1-19.1,4.3-26.1C121.7,152.1,121.4,151.3,121.4,151.3z"/>
</g>
<path id="XMLID_44_" class="st1" d="M263.2,133.2c0-27-18.7-41.5-41.5-41.5c-25.5,0-56.5,23.1-56.5,57.2c0,9.1,3.5,17.8,7.5,23.9
	c-0.5-2.4-0.7-5.9-0.7-8.7c0-32.2,21.4-51.4,41.8-51.4c11.8,0,20.8,7.7,20.8,20.8c0,13.3-10,23.8-19.3,28.8l4-17.2l-41.6,34.4
	c12.7,14,27.7,23.1,56.5,25.3c-7.6-5.5-14.1-14.6-14.1-14.6C252.9,178.3,263.2,150.9,263.2,133.2z M61.1,130.3
	c-7.8-5.6-11.6-9.3-11.4-15c0.3-7.5,8.3-10.5,14.3-10.5c11.6,0,21.4,13.8,21.4,13.8c2.8-11.3,3.8-15.5,5.4-22.3
	c-8.7-2.8-17.2-4.6-26.6-4.6c-27.8,0-41.2,17.7-41.2,31.5c0,16.5,10.4,21.8,20.3,29.3c5.8,4.4,11.8,7.9,11.8,15.9
	c0,7.2-5.7,10.6-12.7,10.4c-14.6-0.6-22.2-16.1-22.2-16.1c-3.5,11.7-5.3,17.1-7.8,25.4c8.4,3.9,19,6.5,30.9,6.5
	c21.2,0,39.9-11,39.9-33.5C83.2,147.8,76.5,141.4,61.1,130.3 M161.2,172.6c-5-8.4-17.2-32.5-17.2-32.5s32.2-35.6,35.8-38.7
	c3.5-3,6.4-5.2,8.7-6.5h-30.6c-0.3,0.9-0.9,1.9-1.6,2.9c-0.7,1-1.9,2.2-3.3,3.8l-29.2,32.9c0.9-4.3,5.2-25,6.1-29.4
	c1.1-5.2,1.9-10.2-3.1-10.2h-25.3c0.6,3,0.8,6,0.6,9.1c-0.1,3-0.7,6.8-1.6,11.3l-11.7,56.1c-0.9,4.5-2,8.2-3.1,11.3
	c-1.1,3.1-2.6,6.1-4.4,9.1h25.9c5.9,0,6.2-3.1,7.3-10.6c0.4-2.5,5.9-30.1,5.9-30.1s8.7,19,14.6,29.4c8.5,15,24.1,16.1,29.8,16.1
	c8.9,0,14.1-1.3,14.5-2.3C175.7,191.5,168.9,185.7,161.2,172.6z M290.3,172.6l12.5-57.4c0.9-4.4,1.8-7.9,2.4-11.1
	c1.1-6,2.3-9.2-3.1-9.2h-25.9c0.6,3,0.8,6,0.6,9.1c-0.1,3-0.7,6.8-1.6,11.3l-11.7,56.1c-0.9,4.5-2,8.2-3.1,11.3
	c-1.1,3.1-2.6,6.1-4.4,9.1h57.7l13.5-27.7C311.1,172,305.1,171.6,290.3,172.6z"/>
<g id="XMLID_40_">
	<path id="XMLID_41_" class="st2" d="M35.6,225.1l-6.3-3.1h23.5l-6.2,3.1v23.4c0,4.1,6.8,7.3,14.9,7.3s14.9-3.2,14.9-7.3v-23.4
		l-6.2-3.1h19.4l-6.2,3.1v23.4c0,6.3-11.6,10.5-24,10.5c-12.4,0-24-4.2-24-10.5V225.1z"/>
</g>
<g id="XMLID_37_">
	<path id="XMLID_38_" class="st2" d="M139.3,258.2h-43l6.3-3.1v-30l-6.3-3.1H120l-6.3,3.1v30.2H131l8.3-4.2V258.2z"/>
</g>
<g id="XMLID_34_">
	<path id="XMLID_35_" class="st2" d="M173.9,258.2h-23.6l6.3-3.1v-30.2h-12.2l-8.3,4.2v-7.1h52v7.1l-8.3-4.2h-12.2v30.2L173.9,258.2
		z"/>
</g>
<g id="XMLID_30_">
	<path id="XMLID_31_" class="st2" d="M252.6,258.2H237l-17.3-16.7h-8.1v13.5l6.3,3.1h-23.6l6.3-3.1v-30l-6.3-3.1h24.6
		c12.3,0,25,3.7,25,10c0,3.7-5.5,7.3-13.5,8.6l16.1,14.6L252.6,258.2z M211.6,238.6h7.3c7,0,12.4-3.2,12.4-6.7c0-3.7-5.2-7-12.4-7
		h-7.3V238.6z"/>
</g>
<g id="XMLID_26_">
	<path id="XMLID_27_" class="st2" d="M268.5,258.2h-19.4l6.3-3.2l23-33.1h6.8l22.6,33.1l6.3,3.2h-24.6l6.1-3.1l-4.7-7.2h-23.7
		l-4.9,7.2L268.5,258.2z M269.2,245h19.7l-9.6-14.5L269.2,245z"/>
</g>
</svg>
