<?xml version="1.0" standalone="no"?>
<!DOCTYPE svg PUBLIC "-//W3C//DTD SVG 1.1//EN" "http://www.w3.org/Graphics/SVG/1.1/DTD/svg11.dtd" >
<svg>
<metadata>
Created by FontForge 20090622 at Tue Apr 19 11:00:28 2016
 By deploy user
&#194;&#169; 1987, 1990, 1991, 1995, 1998, 2001, 2002 Adobe Systems Incorporated. All rights reserved.
</metadata>
<defs>
<font id="LetterGothicStd-Bold" horiz-adv-x="600" >
  <font-face 
    font-family="Letter Gothic Std"
    font-weight="700"
    font-stretch="normal"
    units-per-em="1000"
    panose-1="2 11 5 9 2 2 2 3 3 4"
    ascent="742"
    descent="-258"
    x-height="535"
    cap-height="720"
    bbox="-188 -288 660 973"
    underline-thickness="50"
    underline-position="-50"
    unicode-range="U+0020-U+FB02"
  />
<missing-glyph 
d="M50 0v700h500v-700h-500zM300 395l170 255h-340zM330 350l170 -255v510zM130 50h340l-170 255zM100 605v-510l170 255z" />
    <glyph glyph-name=".notdef" 
d="M50 0v700h500v-700h-500zM300 395l170 255h-340zM330 350l170 -255v510zM130 50h340l-170 255zM100 605v-510l170 255z" />
    <glyph glyph-name=".null" horiz-adv-x="0" 
 />
    <glyph glyph-name="nonmarkingreturn" 
 />
    <glyph glyph-name="space" unicode=" " 
 />
    <glyph glyph-name="exclam" unicode="!" 
d="M349 720l-14 -501h-67l-17 501h98zM220 64q0 32 24 54.5t57 22.5t56.5 -22t23.5 -55t-23.5 -55.5t-56.5 -22.5t-57 22.5t-24 55.5z" />
    <glyph glyph-name="quotedbl" unicode="&#x22;" 
d="M113 720h138v-130l-42 -129h-54l-42 129v130zM349 720h138v-130l-42 -129h-54l-42 129v130z" />
    <glyph glyph-name="numbersign" unicode="#" 
d="M255 805h75l-166 -901h-75l60 326h-133l15 66h130l24 132h-131l12 66h132zM341 -96h-75l166 901h75l-57 -311h133l-13 -66h-133l-24 -132h134l-12 -66h-134z" />
    <glyph glyph-name="dollar" unicode="$" 
d="M331 328v-199q75 22 75 94q0 39 -17 62t-58 43zM264 130v226q-64 22 -100 59q-42 45 -42 103t42 99t100 51v74h67v-73q81 -11 148 -70l-44 -57q-50 50 -104 61v-198q79 -33 114.5 -75.5t35.5 -104.5q0 -67 -41 -109t-109 -53v-93h-67v93q-88 6 -163 79l46 54
q61 -57 117 -66zM265 431v169q-35 -11 -51.5 -30t-16.5 -54q0 -52 68 -85z" />
    <glyph glyph-name="percent" unicode="%" 
d="M469 184q0 51 -37 51q-41 0 -62.5 -47.5t-21.5 -95.5q0 -51 39 -51t60.5 48.5t21.5 94.5zM445 734h72l-378 -748h-72zM242 628q0 51 -37 51q-42 0 -63 -47.5t-21 -95.5q0 -51 39 -51t60.5 48.5t21.5 94.5zM277 102q0 74 41.5 131t112.5 57q50 0 79.5 -28.5t29.5 -78.5
q0 -77 -41 -137t-114 -60q-53 0 -80.5 31t-27.5 85zM50 546q0 74 41.5 131t112.5 57q50 0 79.5 -28.5t29.5 -78.5q0 -77 -41 -137t-114 -60q-53 0 -80.5 31t-27.5 85z" />
    <glyph glyph-name="ampersand" unicode="&#x26;" 
d="M376 120l-137 208q-26 -32 -41.5 -54.5t-29.5 -56.5t-14 -66q0 -46 25 -74t71 -28q79 0 126 71zM456 129l87 -99l-51 -53l-76 88q-67 -79 -166 -79q-76 0 -123.5 44.5t-47.5 119.5q0 67 31 121.5t89 121.5q-22 35 -33.5 57t-22.5 55.5t-11 64.5q0 82 42.5 123t89.5 41
q57 0 92.5 -41t35.5 -99q0 -41 -17.5 -81t-33.5 -61t-53 -64l118 -190q3 16 7 50q4 42 4 120h73q-2 -158 -34 -239zM249 450q4 7 18 27t20 29.5t14.5 26.5t12 32.5t3.5 32.5q0 26 -13.5 49.5t-38.5 23.5q-29 0 -43.5 -29.5t-14.5 -61.5q0 -59 42 -130z" />
    <glyph glyph-name="quotesingle" unicode="'" 
d="M231 720h138v-130l-42 -130h-54l-42 130v130z" />
    <glyph glyph-name="parenleft" unicode="(" 
d="M411 -29l-36 -49q-98 62 -149 173.5t-51 236.5t50.5 235.5t149.5 174.5l36 -50q-161 -115 -161 -360t161 -361z" />
    <glyph glyph-name="parenright" unicode=")" 
d="M189 692l36 50q99 -64 149.5 -174.5t50.5 -235.5t-51 -236t-149 -174l-36 49q161 115 161 361q0 245 -161 360z" />
    <glyph glyph-name="asterisk" unicode="*" 
d="M264 720h71v-185l180 53l21 -65l-185 -53l116 -146l-53 -42l-114 143l-111 -143l-55 42l115 146l-185 53l20 65l180 -53v185z" />
    <glyph glyph-name="plus" unicode="+" 
d="M575 393v-66h-240v-237h-70v237h-240v66h240v237h70v-237h240z" />
    <glyph glyph-name="comma" unicode="," 
d="M232 -112v68q39 8 64 32q-28 2 -47 21.5t-19 47.5q0 34 22.5 56t56.5 22q36 0 59.5 -27t23.5 -64q0 -58 -48.5 -99.5t-111.5 -56.5z" />
    <glyph glyph-name="hyphen" unicode="-" 
d="M430 327h-260v63h260v-63z" />
    <glyph glyph-name="period" unicode="." 
d="M220 64q0 32 24 54.5t57 22.5t56.5 -22t23.5 -55t-23.5 -55.5t-56.5 -22.5t-57 22.5t-24 55.5z" />
    <glyph glyph-name="slash" unicode="/" 
d="M187 -27h-75l301 774h75z" />
    <glyph glyph-name="zero" unicode="0" 
d="M509 360v-40t-2 -47t-5 -55t-10.5 -54.5t-17.5 -55t-26 -47t-36 -40.5t-49 -25t-63 -10q-209 0 -209 374v8v42t3.5 59t10.5 72t22.5 69.5t37 63.5t56.5 42.5t79 17.5q43 0 77 -16t55.5 -39t37 -60t23 -67t11.5 -73t4.5 -65t0.5 -54zM166 360v-40.5t1.5 -46.5t5 -52.5
t9.5 -49.5t16 -48.5t23.5 -37t33.5 -27.5t45 -9q28 0 49.5 12t42 43.5t31.5 96t11 159.5q0 92 -10.5 155.5t-30 96t-42 46t-51.5 13.5q-32 0 -56.5 -15.5t-38.5 -46t-23 -58t-12 -69t-3.5 -61t-0.5 -51.5v-10z" />
    <glyph glyph-name="one" unicode="1" 
d="M341 742v-679h129v-63h-339v63h135v597l-141 -43v57z" />
    <glyph glyph-name="two" unicode="2" 
d="M175 63h328v-63h-403v32q0 76 23 134.5t56.5 96.5t98.5 94q35 29 49.5 42.5t43.5 44t42 58.5t13 57q0 51 -28.5 81.5t-78.5 30.5q-62 0 -94.5 -43t-35.5 -107h-75q5 95 58.5 154t147.5 59q81 0 131 -47t50 -127q0 -20 -4.5 -39.5t-9.5 -34t-18 -33.5t-20.5 -29t-26.5 -29
t-25.5 -25l-29 -26.5t-27.5 -24.5l-52 -47q-54 -49 -82 -97t-31 -112z" />
    <glyph glyph-name="three" unicode="3" 
d="M248 354v63q63 -3 110 35t47 100q0 52 -36.5 85.5t-88.5 33.5q-44 0 -80.5 -30.5t-56.5 -73.5l-63 36q32 62 86 96.5t122 34.5q80 0 136 -54.5t56 -133.5q0 -96 -95 -155q128 -56 128 -189q0 -98 -64.5 -157t-163.5 -59q-132 0 -215 137l66 39q50 -113 152 -113
q66 0 108 38.5t42 104.5q0 84 -54 127t-136 35z" />
    <glyph glyph-name="four" unicode="4" 
d="M423 734v-485h103v-63h-103v-186h-75v186h-287v49l265 499h97zM348 249v383h-2l-199 -383h201z" />
    <glyph glyph-name="five" unicode="5" 
d="M460 720v-63h-255l-20 -252q50 46 120 46q86 0 143 -62.5t57 -167.5q0 -97 -58 -166t-153 -69q-115 0 -194 120l58 43q22 -43 59 -71.5t82 -28.5q60 0 95.5 51.5t35.5 114.5q0 84 -38 128.5t-85 44.5q-73 0 -123 -82l-76 15l30 399h322z" />
    <glyph glyph-name="six" unicode="6" 
d="M436 234q0 67 -30 114.5t-93 47.5q-58 0 -98 -55.5t-40 -123.5q0 -65 31.5 -116.5t92.5 -51.5q70 0 103.5 55.5t33.5 129.5zM503 690l-36 -62q-63 43 -102 43q-45 0 -82.5 -29.5t-60.5 -74.5t-36.5 -92.5t-15.5 -88.5q65 73 153 73t138 -66.5t50 -157.5
q0 -100 -55 -174.5t-152 -74.5q-50 0 -88.5 20.5t-61 52t-36.5 75.5t-18.5 85t-4.5 87q0 209 81 318.5t192 109.5q65 0 135 -44z" />
    <glyph glyph-name="seven" unicode="7" 
d="M93 720h404l-281 -720h-81l264 657h-306v63z" />
    <glyph glyph-name="eight" unicode="8" 
d="M145 196q0 -69 42.5 -108t112.5 -39t112.5 39t42.5 108q0 68 -43 107.5t-112 39.5t-112 -39.5t-43 -107.5zM430 539q0 61 -34.5 96.5t-95.5 35.5q-63 0 -97 -38t-34 -102q0 -57 37 -91t94 -34q60 0 95 36t35 97zM422 377q52 -20 80 -71t28 -110q0 -92 -60 -151t-170 -59
q-113 0 -171.5 60.5t-58.5 149.5q0 59 28 110t80 71q-46 40 -65 75.5t-19 92.5q0 86 59 137.5t147 51.5q91 0 148 -52.5t57 -143.5q0 -53 -19.5 -88t-63.5 -73z" />
    <glyph glyph-name="nine" unicode="9" 
d="M163 486q0 -66 30.5 -114t92.5 -48q59 0 99 55t40 125q0 64 -32 115.5t-92 51.5q-70 0 -104 -55.5t-34 -129.5zM97 30l36 62q60 -43 102 -43q45 0 82.5 29.5t60.5 75t36.5 92.5t15.5 89q-35 -38 -70 -56t-83 -18q-88 0 -138.5 66.5t-50.5 157.5q0 100 55.5 174.5
t152.5 74.5q50 0 88.5 -20.5t61 -52t36.5 -75.5t18.5 -85t4.5 -87q0 -202 -79.5 -315t-193.5 -113q-65 0 -135 44z" />
    <glyph glyph-name="colon" unicode=":" 
d="M220 64q0 32 24 54.5t57 22.5t56.5 -22t23.5 -55t-23.5 -55.5t-56.5 -22.5t-57 22.5t-24 55.5zM220 403q0 32 24 54.5t57 22.5t56.5 -22t23.5 -55t-23.5 -55.5t-56.5 -22.5t-57 22.5t-24 55.5z" />
    <glyph glyph-name="semicolon" unicode=";" 
d="M232 -112v68q39 8 64 32q-28 2 -47 21.5t-19 47.5q0 34 22.5 56t56.5 22q36 0 59.5 -27t23.5 -64q0 -58 -48.5 -99.5t-111.5 -56.5zM230 403q0 32 24 54.5t57 22.5t56.5 -22t23.5 -55t-23.5 -55.5t-56.5 -22.5t-57 22.5t-24 55.5z" />
    <glyph glyph-name="less" unicode="&#x3c;" 
d="M475 720l42 -52l-333 -308l333 -308l-42 -52l-393 360z" />
    <glyph glyph-name="equal" unicode="=" 
d="M575 452v-66h-550v66h550zM575 334v-66h-550v66h550z" />
    <glyph glyph-name="greater" unicode="&#x3e;" 
d="M82 668l42 52l393 -360l-393 -360l-42 52l333 308z" />
    <glyph glyph-name="question" unicode="?" 
d="M332 216h-75v106q0 44 17 69.5t72 66.5q29 22 41.5 44t12.5 56q0 51 -28.5 82t-78.5 31t-77 -30.5t-27 -79.5h-75q4 80 52 126.5t128 46.5q83 0 132 -48t49 -131q0 -46 -15.5 -76t-48.5 -59l-36 -30t-26.5 -22t-11.5 -17t-5 -29v-106zM222 64q0 32 24 54.5t57 22.5
t56.5 -22t23.5 -55t-23.5 -55.5t-56.5 -22.5t-57 22.5t-24 55.5z" />
    <glyph glyph-name="at" unicode="@" 
d="M518 137l27 -67q-129 -84 -267 -84q-53 0 -101.5 18.5t-89.5 55t-65.5 98t-24.5 139.5q0 60 12.5 121t40 118t65.5 101t93 70.5t119 26.5q110 0 193 -88t83 -220q0 -40 -9 -80.5t-27.5 -79t-51.5 -62.5t-76 -24q-31 0 -47.5 9t-41.5 35q-29 -24 -49 -34t-51 -10
q-43 0 -70 27.5t-27 70.5q0 45 18.5 96.5t47.5 84.5q48 53 174 53h45l-27 -164l-8 -56q0 -20 9.5 -34.5t27.5 -14.5q24 0 42.5 19.5t27.5 49.5t13.5 57t4.5 50q0 65 -20 114t-52 75t-65 38.5t-65 12.5q-51 0 -94.5 -23t-72 -59.5t-49 -84t-29.5 -96t-9 -95.5q0 -118 54 -179
t158 -61q116 0 234 76zM351 419l4 31q-56 -1 -91.5 -51.5t-35.5 -114.5q0 -16 7 -28.5t21 -12.5q18 0 34 12.5t34 54t27 109.5z" />
    <glyph glyph-name="A" unicode="A" 
d="M301 780l255 -780h-81l-64 212h-219l-64 -212h-81zM301 566l-91 -291h183z" />
    <glyph glyph-name="B" unicode="B" 
d="M314 0h-206v720h151q32 0 56.5 -2t58.5 -12.5t56 -29t38.5 -54t16.5 -84.5q0 -102 -95 -155q64 -31 95 -75t31 -112q0 -82 -55.5 -139t-146.5 -57zM183 657v-251h87q54 0 97 37t43 98q0 25 -6 44t-14 31t-23.5 20.5t-25.5 12.5t-28.5 6t-25.5 2h-23h-81zM183 63h126
q55 0 93.5 33t38.5 96q0 65 -41.5 108t-122.5 43h-94v-280z" />
    <glyph glyph-name="C" unicode="C" 
d="M505 564h-75q-1 46 -30.5 76.5t-74.5 30.5q-162 0 -162 -317q0 -305 155 -305q55 0 87.5 36t33.5 91h75q-6 -89 -58 -139.5t-141 -50.5q-227 0 -227 370q0 54 5 101t20 100t40 90t69 62t102 25q75 0 126 -47.5t55 -122.5z" />
    <glyph glyph-name="D" unicode="D" 
d="M112 0v720h183q55 0 95.5 -17t72 -57t48 -111.5t16.5 -174.5q0 -200 -59.5 -280t-183.5 -80h-172zM187 657v-594h92q35 0 58.5 5t47 22.5t37 49t22 86.5t8.5 134q0 80 -9.5 136.5t-24 87.5t-39 48t-46.5 21t-56 4h-90z" />
    <glyph glyph-name="E" unicode="E" 
d="M513 720v-63h-299v-256h215v-63h-215v-275h306v-63h-381v720h374z" />
    <glyph glyph-name="F" unicode="F" 
d="M538 720v-63h-311v-250h233v-63h-233v-344h-75v720h386z" />
    <glyph glyph-name="G" unicode="G" 
d="M457 297h-170v63h245v-374h-75v70q-58 -70 -151 -70q-17 0 -30.5 1.5t-37.5 9t-42 20.5t-39.5 40t-35 63.5t-23 94t-9.5 129.5q0 206 58.5 298t168.5 92q88 0 133.5 -54.5t47.5 -143.5h-75q5 54 -21.5 94.5t-80.5 40.5q-36 0 -63.5 -15t-44 -44t-27 -58.5t-14.5 -70
t-5.5 -67t-1.5 -61.5q0 -33 1 -58t5 -65t14 -68.5t25.5 -56.5t41 -43t59.5 -15q60 0 103.5 50t43.5 150v48z" />
    <glyph glyph-name="H" unicode="H" 
d="M175 720v-315h250v315h75v-720h-75v342h-250v-342h-75v720h75z" />
    <glyph glyph-name="I" unicode="I" 
d="M435 720v-63h-98v-594h98v-63h-270v63h97v594h-97v63h270z" />
    <glyph glyph-name="J" unicode="J" 
d="M262 657v63h208v-463q0 -29 -0.5 -44t-4 -48t-10.5 -53t-22 -46.5t-36 -42t-54.5 -26.5t-76.5 -11q-191 0 -191 222v101h75v-129q0 -63 29.5 -97t84.5 -34q131 0 131 152v456h-133z" />
    <glyph glyph-name="K" unicode="K" 
d="M204 720v-317q45 5 121 98t124 228l74 -39l-59 -99q-64 -108 -106 -154.5t-84 -73.5l311 -363h-100l-275 339h-6v-339h-75v720h75z" />
    <glyph glyph-name="L" unicode="L" 
d="M230 720v-657h312v-63h-387v720h75z" />
    <glyph glyph-name="M" unicode="M" 
d="M300 361l151 359h74v-720h-75v548h-2l-148 -353l-147 353l-2 -2v-546h-75v720h73z" />
    <glyph glyph-name="N" unicode="N" 
d="M115 0v720h87l219 -538h3v538h75v-727h-71l-236 581l-2 -2v-572h-75z" />
    <glyph glyph-name="O" unicode="O" 
d="M79 360q0 109 17 185t48.5 115.5t69 56.5t86.5 17q50 0 89 -17.5t62 -50.5t38 -68t21.5 -82.5t8.5 -80.5t2 -75v-8q0 -33 -0.5 -54t-4.5 -63t-12 -71t-24 -65.5t-39 -59t-59 -38t-82 -15.5t-82 16.5t-59 39t-39 60.5t-24 67t-12 73t-4.5 64.5t-0.5 53.5zM300 49
q31 0 55 12.5t45.5 44.5t33.5 96t12 158v11q2 300 -146 300q-150 0 -146 -301v-10v-33t1 -38.5t3.5 -46l7 -45t11.5 -46.5t18.5 -39t25.5 -34t34.5 -20.5t44.5 -8.5z" />
    <glyph glyph-name="P" unicode="P" 
d="M134 0v720h173q98 0 152 -57t54 -163q0 -110 -65 -163.5t-176 -53.5h-63v-283h-75zM209 346h83q67 0 106.5 39.5t39.5 113.5q0 158 -141 158h-88v-311z" />
    <glyph glyph-name="Q" unicode="Q" 
d="M300 -14q-46 0 -82.5 16t-59 38.5t-39 59.5t-24.5 66.5t-12 72t-4.5 62.5t-0.5 52v7q0 109 17 185t49 116t69.5 56.5t86.5 16.5q225 0 222 -362v-12q0 -113 -14.5 -185t-57.5 -121l88 -114h-92l-50 70q-44 -24 -96 -24zM153 360q0 -311 147 -311q71 0 109 71.5t38 239.5
q0 92 -12 156t-33.5 96.5t-46 45.5t-55.5 13q-43 0 -74.5 -26t-44.5 -64.5t-21.5 -82t-6.5 -78t0 -52.5v-8z" />
    <glyph glyph-name="R" unicode="R" 
d="M131 0v720h187q43 0 77 -12t54 -32t34 -42t20.5 -47t8.5 -41t2 -30q0 -126 -128 -199l194 -317h-91l-175 300q-18 0 -54 -1t-54 -1v-298h-75zM206 362h71q78 0 120 40t42 118q0 73 -35.5 105t-123.5 32h-74v-295z" />
    <glyph glyph-name="S" unicode="S" 
d="M502 644l-45 -54q-28 25 -47 39.5t-49.5 28t-59.5 13.5q-49 0 -82.5 -30.5t-33.5 -79.5q0 -23 5 -38.5t29 -40t70 -52.5l57 -35q101 -62 134.5 -101.5t33.5 -101.5q0 -96 -58 -151t-154 -55q-127 0 -218 117l58 46q28 -45 69.5 -72.5t90.5 -27.5q57 0 97 38t40 95
q0 33 -6 50t-34 41.5t-91 62.5l-65 39q-64 38 -98.5 79t-34.5 102q0 82 55 130t139 48q101 0 198 -90z" />
    <glyph glyph-name="T" unicode="T" 
d="M541 720v-63h-205v-657h-75v657h-201v63h481z" />
    <glyph glyph-name="U" unicode="U" 
d="M424 720h75v-531q0 -96 -59.5 -149.5t-139.5 -53.5q-33 0 -64.5 10.5t-64 35.5t-52 76t-19.5 121v491h75v-531q0 -72 37.5 -106t87.5 -34q65 0 94.5 41t29.5 108v522z" />
    <glyph glyph-name="V" unicode="V" 
d="M297 109l129 611h83l-163 -727h-103l-160 727h82l130 -611h2z" />
    <glyph glyph-name="W" unicode="W" 
d="M297 519l113 -361h2l36 562h81l-55 -727h-86l-91 312l-92 -312h-83l-60 727h81l38 -562h2z" />
    <glyph glyph-name="X" unicode="X" 
d="M92 720h86l122 -279l122 279h87l-170 -357l175 -363h-87l-127 288l-127 -288h-86l176 364z" />
    <glyph glyph-name="Y" unicode="Y" 
d="M282 394l138 326h83l-184 -416v-304h-75v304l-184 416h83z" />
    <glyph glyph-name="Z" unicode="Z" 
d="M114 720h375v-53l-296 -604h320v-63h-410v54l300 603h-289v63z" />
    <glyph glyph-name="bracketleft" unicode="[" 
d="M460 -112h-292v854h292v-63h-217v-728h217v-63z" />
    <glyph glyph-name="backslash" unicode="\" 
d="M413 -27l-301 774h75l301 -774h-75z" />
    <glyph glyph-name="bracketright" unicode="]" 
d="M139 -112v63h217v728h-217v63h292v-854h-292z" />
    <glyph glyph-name="asciicircum" unicode="^" 
d="M177 357h-74l164 323h66l164 -323h-74l-123 242z" />
    <glyph glyph-name="underscore" unicode="_" 
d="M600 -125h-600v50h600v-50z" />
    <glyph glyph-name="grave" unicode="`" 
d="M217 775l177 -142l-38 -49l-193 129z" />
    <glyph glyph-name="a" unicode="a" 
d="M157 443l-17 66q94 37 154 37q74 0 119 -51.5t45 -121.5v-232q0 -79 23 -145l-70 -9l-19 67q-54 -65 -133 -65q-74 0 -116.5 50.5t-42.5 124.5q0 81 46.5 137t124.5 56q49 0 112 -26v51q0 45 -25 73t-67 28q-11 0 -23.5 -2t-22 -4t-23.5 -7.5t-21 -8t-23 -9.5t-21 -9z
M383 144v124q-59 26 -102 26q-53 0 -79.5 -39t-26.5 -95q0 -42 22 -75t62 -33q27 0 52 16t38 31t34 45z" />
    <glyph glyph-name="b" unicode="b" 
d="M114 742h75v-226q57 30 114 30q35 0 71 -15t70 -45t55.5 -86t21.5 -128q0 -75 -20 -132t-52.5 -88.5t-68.5 -47t-74 -15.5q-43 0 -67 13t-64 48l-16 -60l-71 9q26 74 26 199v544zM189 440v-294q44 -94 116 -94q21 0 43 10t45.5 32.5t38 67.5t14.5 107q0 105 -45 159.5
t-110 54.5q-48 0 -102 -43z" />
    <glyph glyph-name="c" unicode="c" 
d="M470 140l51 -53q-45 -49 -89 -73.5t-102 -24.5q-40 0 -78 13.5t-74 43t-57.5 85t-21.5 131.5q0 77 20 134t54 88.5t72.5 46.5t81.5 15q118 0 197 -119l-65 -43q-49 99 -132 99q-64 0 -108.5 -52t-44.5 -162q0 -114 46.5 -165.5t108.5 -51.5q67 0 141 88z" />
    <glyph glyph-name="d" unicode="d" 
d="M510 -2l-71 -9l-16 60q-39 -35 -63.5 -47.5t-67.5 -12.5q-38 0 -73.5 15t-68 46.5t-52.5 88.5t-20 132q0 72 21 128t55 86.5t70 45.5t71 15q56 0 113 -31v227h75v-551q0 -115 27 -193zM408 144v295q-53 44 -101 44q-65 0 -109.5 -55t-44.5 -160q0 -61 14.5 -106.5
t37.5 -67.5t45.5 -32t43.5 -10q76 0 114 92z" />
    <glyph glyph-name="e" unicode="e" 
d="M518 248h-356q5 -196 152 -196q74 0 167 57l32 -67q-118 -53 -205 -53q-57 0 -101 23t-69.5 62.5t-38 87.5t-12.5 102q0 55 13 103.5t39 89.5t70.5 65t102.5 24q50 0 89.5 -21.5t60.5 -52t34.5 -68.5t17.5 -65.5t4 -49.5v-41zM161 311h282q-2 70 -39.5 121t-97.5 51
q-61 0 -95 -43.5t-50 -128.5z" />
    <glyph glyph-name="f" unicode="f" 
d="M535 697v-76q-9 4 -40 19.5t-53 23t-43 7.5q-95 0 -95 -110v-60h172v-63h-172v-438h-75v438h-133v63h133v51q0 89 49.5 135.5t115.5 46.5q60 0 141 -37z" />
    <glyph glyph-name="g" unicode="g" 
d="M439 546h71q-23 -83 -23 -200v-294q0 -59 -20 -103.5t-51.5 -67.5t-63.5 -33.5t-64 -10.5q-46 0 -91.5 23t-78.5 59l53 46q50 -65 126 -65q56 0 85.5 43t29.5 105v42q-68 -45 -128 -45q-92 0 -143 72.5t-51 168.5q0 68 19 124.5t67 96t118 39.5q67 0 131 -47zM412 178
v239q-19 28 -51.5 47t-65.5 19q-67 0 -98.5 -57t-31.5 -131q0 -79 34.5 -133t88.5 -54q35 0 71 20.5t53 49.5z" />
    <glyph glyph-name="h" unicode="h" 
d="M118 0v742h75v-284q66 88 161 88q29 0 49.5 -7t42.5 -29.5t34 -73.5t12 -129v-307h-75v313q0 170 -68 170q-39 0 -74.5 -29t-54.5 -68q-14 -28 -20 -64t-6.5 -54.5t-0.5 -68.5v-199h-75z" />
    <glyph glyph-name="i" unicode="i" 
d="M276 0v472h-152v63h227v-535h-75zM311 734q26 0 44.5 -18t18.5 -45t-18.5 -45t-44.5 -18t-44.5 18t-18.5 45t18.5 45t44.5 18z" />
    <glyph glyph-name="j" unicode="j" 
d="M73 52h75q0 -79 20.5 -115.5t73.5 -36.5q35 0 59 25t30.5 45t6.5 26v476h-155v63h230v-524q0 -82 -53 -128t-117 -46q-84 0 -127 57.5t-43 157.5zM370 734q26 0 44 -18t18 -45t-18 -45t-44 -18q-27 0 -45.5 18t-18.5 45t18.5 45t45.5 18z" />
    <glyph glyph-name="k" unicode="k" 
d="M416 535h95l-66 -77l-53.5 -63.5l-43 -48.5l-53.5 -56l263 -290h-99l-210 246l-34 -34v-212h-75v742h75v-441q144 148 201 234z" />
    <glyph glyph-name="l" unicode="l" 
d="M268 0v679h-152v63h227v-742h-75z" />
    <glyph glyph-name="m" unicode="m" 
d="M68 0v369q0 74 -22 177h75l11 -48q55 48 105 48q35 0 51.5 -9.5t39.5 -39.5q55 50 103 50q54 0 86 -32.5t32 -86.5v-428h-75v428q0 27 -13 41.5t-36 14.5q-47 0 -79 -56v-428h-75v422q0 61 -42 61q-26 0 -50.5 -19.5t-35.5 -45.5v-418h-75z" />
    <glyph glyph-name="n" unicode="n" 
d="M186 223v-223h-75v269q0 164 -24 266h72l17 -98q29 49 78 79t104 30q61 0 95 -48.5t34 -120.5v-377h-75v355q0 21 -0.5 33.5t-4 33t-10 32t-19.5 20.5t-32 9q-62 0 -111 -65.5t-49 -194.5z" />
    <glyph glyph-name="o" unicode="o" 
d="M300 -11q-38 0 -73 13.5t-67.5 43.5t-52 87t-19.5 134q0 143 62.5 211t149.5 68q54 0 94.5 -21t62.5 -51.5t35.5 -71.5t17 -72t3.5 -63q0 -143 -62.5 -210.5t-150.5 -67.5zM300 52q138 0 138 215q0 216 -138 216q-137 0 -137 -216q0 -215 137 -215z" />
    <glyph glyph-name="p" unicode="p" 
d="M159 548l16 -62q39 35 63.5 47.5t67.5 12.5q38 0 74 -15t68.5 -46.5t52.5 -88.5t20 -132q0 -72 -21.5 -128t-55.5 -86.5t-70 -45.5t-71 -15q-55 0 -114 31v-225h-75v543q0 124 -26 201zM189 390v-294q55 -44 102 -44q68 0 111.5 57t43.5 158q0 62 -14.5 107t-38 67
t-45.5 32t-43 10q-72 0 -116 -93z" />
    <glyph glyph-name="q" unicode="q" 
d="M483 -205h-75v225q-57 -31 -113 -31q-35 0 -71 15t-70 45.5t-55.5 86.5t-21.5 128q0 75 20 132t52.5 88.5t68.5 46.5t74 15q43 0 67.5 -12.5t63.5 -47.5l16 62l71 -9q-27 -81 -27 -195v-549zM408 96v299q-23 43 -48.5 65.5t-65.5 22.5q-22 0 -44 -10t-45.5 -32t-38 -67
t-14.5 -107q0 -101 43.5 -158t111.5 -57q48 0 101 44z" />
    <glyph glyph-name="r" unicode="r" 
d="M232 223v-223h-75v307q0 127 -21 228h73l17 -102q36 55 73.5 84t92.5 29q36 0 61.5 -16t38.5 -43.5t18.5 -57t5.5 -62.5h-75q0 4 -0.5 18.5t-1 22.5t-2 21t-5 21t-9 16.5t-14.5 12.5t-21 4q-51 0 -103.5 -70.5t-52.5 -189.5z" />
    <glyph glyph-name="s" unicode="s" 
d="M464 484l-33 -61q-84 60 -143 60q-35 0 -61 -23t-26 -58q0 -55 103 -93q32 -12 51 -20t45 -23.5t40.5 -31.5t25 -41t10.5 -56q0 -64 -49 -106t-114 -42q-116 0 -220 93l41 60q35 -37 82.5 -63.5t91.5 -26.5q40 0 66.5 21.5t26.5 60.5q0 25 -8 43t-28.5 31t-32.5 19
t-42 17q-37 14 -59 24.5t-50 30t-41.5 46t-13.5 60.5q0 59 48 100t117 41q87 0 173 -62z" />
    <glyph glyph-name="t" unicode="t" 
d="M462 535v-63h-191v-305q0 -26 1.5 -41t7.5 -35t21 -29.5t39 -9.5q71 0 113 94l72 -18q-65 -139 -187 -139q-71 0 -106.5 44.5t-35.5 157.5v281h-115v63h115v164h75v-164h191z" />
    <glyph glyph-name="u" unicode="u" 
d="M415 316v219h75v-259q0 -176 23 -276h-71l-17 103q-28 -47 -77 -80.5t-99 -33.5q-67 0 -101 49.5t-34 124.5v372h75v-350q0 -27 1.5 -43t6.5 -40.5t20 -37t38 -12.5q62 0 111 69t49 195z" />
    <glyph glyph-name="v" unicode="v" 
d="M429 535h78l-166 -542h-85l-166 542h78l130 -415z" />
    <glyph glyph-name="w" unicode="w" 
d="M129 -7l-94 542h84l61 -401h2l77 270h73l77 -270h2l61 401h84l-94 -542h-80l-87 290l-86 -290h-80z" />
    <glyph glyph-name="x" unicode="x" 
d="M507 535l-166 -246l211 -289h-95l-158 231l-156 -231h-95l210 286l-170 249h87l125 -188l122 188h85z" />
    <glyph glyph-name="y" unicode="y" 
d="M445 535h80l-198 -502q-12 -31 -20.5 -51t-26 -50.5t-34 -48.5t-42 -32t-53.5 -14q-49 0 -85 33t-51 83l63 33q32 -86 73 -86q42 0 81 90l35 81l-172 464h81l130 -364z" />
    <glyph glyph-name="z" unicode="z" 
d="M496 535v-56l-307 -416h319v-63h-416v55l309 417h-265v63h360z" />
    <glyph glyph-name="braceleft" unicode="{" 
d="M488 742v-28h-33q-127 0 -127 -92v-180q0 -26 -1 -37.5t-5 -29.5t-15 -30t-29 -22q18 -10 29 -21.5t15 -29.5t5 -29.5t1 -37.5v-180q0 -92 127 -92h33v-28h-55q-104 0 -142 35.5t-38 120.5v169q0 23 -6 38.5t-19.5 24t-25 12.5t-34 9t-34.5 9q12 4 34 9.5t34 9.5
t25.5 12.5t19.5 24t6 38.5v169q0 85 38 120.5t142 35.5h55z" />
    <glyph glyph-name="bar" unicode="|" 
d="M267 -288v1080h66v-1080h-66z" />
    <glyph glyph-name="braceright" unicode="}" 
d="M114 714v28h55q104 0 142 -35.5t38 -120.5v-169q0 -23 6 -38.5t19.5 -24t25.5 -12.5t34 -9.5t34 -9.5q-12 -4 -34.5 -9t-34 -9t-25 -12.5t-19.5 -24t-6 -38.5v-169q0 -85 -38 -120.5t-142 -35.5h-55v28h33q127 0 127 92v180q0 26 1 37.5t5 29.5t15 29.5t29 21.5
q-18 10 -29 22t-15 30t-5 29.5t-1 37.5v180q0 92 -127 92h-33z" />
    <glyph glyph-name="asciitilde" unicode="~" 
d="M183 434q43 0 127 -37t107 -37q35 0 65 30t47 68l52 -38q-27 -52 -69.5 -89t-93.5 -37q-11 0 -25.5 3t-32.5 9t-29.5 10.5l-31.5 12.5l-25 10q-69 29 -91 29q-17 0 -31 -5.5t-27 -20.5l-19.5 -23t-20 -30.5t-15.5 -26.5l-52 39q18 31 31 49.5t33.5 40.5t45.5 32.5
t55 10.5z" />
    <glyph glyph-name="uni00A0" unicode="&#xa0;" 
 />
    <glyph glyph-name="exclamdown" unicode="&#xa1;" 
d="M251 0l14 501h67l17 -501h-98zM219 657q0 32 24 54.5t57 22.5t56.5 -22t23.5 -55t-23.5 -55.5t-56.5 -22.5t-57 22.5t-24 55.5z" />
    <glyph glyph-name="cent" unicode="&#xa2;" 
d="M526 533l-68 -45q-21 40 -42 63t-54 33v-422q51 15 108 84l51 -53q-78 -81 -159 -95v-128h-75v127q-96 20 -142 93t-46 178q0 239 188 280v94h75v-93q54 -11 89.5 -37.5t74.5 -78.5zM287 164v419q-113 -33 -113 -208q0 -174 113 -211z" />
    <glyph glyph-name="sterling" unicode="&#xa3;" 
d="M258 387h188v-63h-169q12 -48 12 -91q0 -27 -8.5 -55.5t-15.5 -43t-27 -52.5q47 9 64 9q33 0 75 -19q31 -14 57 -14q8 0 16.5 2.5t17 8t14 9.5t15 12.5t12.5 10.5l43 -48q-54 -58 -112 -58q-29 0 -76 17q-41 16 -72 16q-47 0 -123 -42l-40 51q12 25 37 65.5t36.5 68
t11.5 57.5q0 50 -13 96h-128v63h110q-35 111 -35 161q0 77 57 124.5t136 47.5q62 0 114 -34t74 -90l-70 -23q-40 84 -120 84q-50 0 -84 -33q-32 -29 -32 -84q0 -33 35 -153z" />
    <glyph glyph-name="currency" unicode="&#xa4;" 
d="M120 506l-109 107l33 32l108 -107q64 52 148 52t148 -52l108 107l33 -32l-109 -107q50 -68 50 -146t-50 -146l109 -107l-33 -32l-108 107q-64 -52 -148 -52t-148 52l-108 -107l-33 32l109 107q-50 68 -50 146t50 146zM300 169q81 0 136 55t55 136t-55 136.5t-136 55.5
t-136 -55.5t-55 -136.5t55 -136t136 -55z" />
    <glyph glyph-name="yen" unicode="&#xa5;" 
d="M102 220h142v82h-142v56h118l-160 362h86l137 -325l134 325h86l-160 -362h118v-56h-142v-82h142v-56h-142v-164h-75v164h-142v56z" />
    <glyph glyph-name="brokenbar" unicode="&#xa6;" 
d="M267 325v350h66v-350h-66zM267 -175v350h66v-350h-66z" />
    <glyph glyph-name="section" unicode="&#xa7;" 
d="M390 338l-175 136q-41 -20 -41 -63q0 -33 36 -62l175 -135q40 18 40 62q0 34 -35 62zM292 502l59 -44q6 -5 30 -22t35 -25.5t30.5 -26t28.5 -31t17 -33t8 -39.5q0 -36 -18.5 -60t-53.5 -49q1 -1 6 -9t6.5 -10t5.5 -9t5 -9.5t4 -9t3.5 -10.5t1.5 -10t1 -12q0 -66 -45 -103
t-113 -37q-76 0 -125 44t-40 131h72q-7 -112 91 -112q35 0 60 17.5t25 51.5q0 12 -4 23t-8 18.5t-14.5 17.5t-15.5 14t-19 14l-18 13l-58 44q-5 4 -36 26t-43.5 33t-33 32t-29 42t-8.5 44q0 36 18.5 60t53.5 49q-32 49 -32 79q0 67 44.5 103.5t112.5 36.5q76 0 125.5 -43.5
t40.5 -131.5h-73q7 112 -90 112q-35 0 -60 -17.5t-25 -50.5q0 -10 2 -19.5t7.5 -18l9.5 -14.5t14 -14.5t14 -11.5l16 -12t15 -11z" />
    <glyph glyph-name="dieresis" unicode="&#xa8;" 
d="M141 678q0 28 20.5 47.5t48.5 19.5t48.5 -19.5t20.5 -47.5t-20.5 -47.5t-48.5 -19.5t-48.5 19.5t-20.5 47.5zM320 678q0 28 20.5 47.5t48.5 19.5t48.5 -19.5t20.5 -47.5t-20.5 -47.5t-48.5 -19.5t-48.5 19.5t-20.5 47.5z" />
    <glyph glyph-name="copyright" unicode="&#xa9;" 
d="M300 734q120 0 205 -109.5t85 -264.5t-85 -264.5t-205 -109.5q-121 0 -205.5 109.5t-84.5 264.5t84.5 264.5t205.5 109.5zM300 659q-85 0 -150 -85t-65 -214q0 -124 62.5 -211.5t152.5 -87.5q83 0 149 88t66 211q0 144 -66.5 221.5t-148.5 77.5zM378 293h69
q-5 -67 -43.5 -107.5t-91.5 -40.5q-71 0 -115.5 63t-44.5 155q0 95 43 155.5t116 60.5q53 0 90.5 -37.5t45.5 -102.5h-69q-4 34 -22.5 52.5t-45.5 18.5q-44 0 -66.5 -42t-22.5 -103q0 -59 24.5 -105t66.5 -46q26 0 45.5 22.5t20.5 56.5z" />
    <glyph glyph-name="ordfeminine" unicode="&#xaa;" 
d="M423 393l-61 -8l-10 31q-23 -17 -38.5 -23t-39.5 -6q-51 0 -79.5 33t-28.5 84q0 55 34.5 87.5t89.5 32.5q22 0 52 -7q2 23 -9.5 40.5t-34.5 17.5q-14 0 -30 -5t-37 -14t-31 -12l-11 71q76 19 110 19q54 0 81.5 -36.5t27.5 -96.5v-114q0 -49 15 -94zM342 495v59
q-31 11 -53 11q-28 0 -42.5 -19t-14.5 -47q0 -21 11.5 -37t31.5 -16q31 0 67 49zM425 319v-59h-261v59h261z" />
    <glyph glyph-name="guillemotleft" unicode="&#xab;" 
d="M534 615l47 -48l-224 -211l224 -211l-46 -50l-274 261zM292 615l47 -48l-224 -211l224 -211l-47 -50l-273 261z" />
    <glyph glyph-name="logicalnot" unicode="&#xac;" 
d="M505 161v225h-480v66h550v-291h-70z" />
    <glyph glyph-name="uni00AD" unicode="&#xad;" 
d="M430 327h-260v63h260v-63z" />
    <glyph glyph-name="registered" unicode="&#xae;" 
d="M300 -14q-121 0 -205.5 109.5t-84.5 264.5t84.5 264.5t205.5 109.5q120 0 205 -109.5t85 -264.5t-85 -264.5t-205 -109.5zM300 61q24 0 51 9.5t56.5 32t53 55.5t39 86t15.5 116q0 129 -66 214t-149 85t-149 -83t-66 -216q0 -124 66 -211.5t149 -87.5zM368 328l76 -171
h-71l-70 171h-60v-171h-63v403h152q66 0 94 -28t28 -95q0 -54 -21 -79t-65 -30zM243 387h90q29 0 43.5 13t14.5 48q0 19 -6.5 30.5t-19.5 16t-22 5.5t-25 1h-75v-114z" />
    <glyph glyph-name="macron" unicode="&#xaf;" 
d="M455 610h-311v63h311v-63z" />
    <glyph glyph-name="degree" unicode="&#xb0;" 
d="M87 556q0 88 63 148.5t150 60.5q88 0 150.5 -60.5t62.5 -148.5q0 -87 -62.5 -147.5t-150.5 -60.5q-87 0 -150 60.5t-63 147.5zM167 556q0 -55 39 -93.5t94 -38.5t94 38.5t39 93.5t-39 94t-94 39t-94 -39t-39 -94z" />
    <glyph glyph-name="plusminus" unicode="&#xb1;" 
d="M575 444v-66h-240v-237h-70v237h-240v66h240v237h70v-237h240zM575 105v-66h-550v66h550z" />
    <glyph glyph-name="twosuperior" unicode="&#xb2;" 
d="M89 392h172v-42h-222v22q0 57 22.5 92t73.5 77q22 18 33.5 28.5t26.5 31.5t15 39q0 24 -13 38t-37 14q-31 0 -46 -22t-16 -54h-51q2 52 31.5 85t81.5 33q46 0 73 -25.5t27 -69.5q0 -29 -17 -55.5t-41.5 -47l-49.5 -41.5t-43 -47.5t-20 -55.5z" />
    <glyph glyph-name="threesuperior" unicode="&#xb3;" 
d="M117 530v42q32 -2 57 15.5t25 49.5q0 24 -17.5 39.5t-41.5 15.5q-22 0 -40.5 -16t-28.5 -39l-43 24q17 33 46.5 53t65.5 20q46 0 77.5 -28t31.5 -73q0 -50 -45 -78q62 -28 62 -97q0 -51 -34 -83t-86 -32q-44 0 -71.5 18.5t-52.5 57.5l45 26q14 -31 31 -45.5t48 -14.5
t50.5 18.5t19.5 49.5q0 41 -23.5 58.5t-75.5 18.5z" />
    <glyph glyph-name="acute" unicode="&#xb4;" 
d="M383 775l54 -62l-193 -129l-38 49z" />
    <glyph glyph-name="mu" unicode="&#xb5;" 
d="M410 0v45q-40 -56 -108 -56q-71 0 -111 52v-271h-75v765h75v-311q0 -95 32 -133.5t74 -38.5q18 0 35.5 7t36 24.5t30 55.5t11.5 92v304h75v-535h-75z" />
    <glyph glyph-name="paragraph" unicode="&#xb6;" 
d="M265 -109v431q-90 -3 -153.5 52.5t-63.5 145.5q0 38 12 71t38.5 63t77.5 48t121 18h261v-63h-46v-766h-75v766h-97v-766h-75z" />
    <glyph glyph-name="periodcentered" unicode="&#xb7;" 
d="M220 360q0 32 24 56t56 24t56 -24t24 -56t-24 -56t-56 -24t-56 24t-24 56z" />
    <glyph glyph-name="cedilla" unicode="&#xb8;" 
d="M351 38l-23 -69q37 -2 62 -21.5t25 -55.5q0 -37 -31 -59t-70 -22q-46 0 -110 29l22 55q48 -21 79 -21q35 0 35 22q0 14 -15 19t-58 9q-13 1 -20 2l40 112h64z" />
    <glyph glyph-name="onesuperior" unicode="&#xb9;" 
d="M176 742v-354h68v-42h-188v42h70v293l-73 -22v45z" />
    <glyph glyph-name="ordmasculine" unicode="&#xba;" 
d="M431 319v-59h-261v59h261zM300 387q-66 0 -104.5 47t-38.5 126q0 76 36 125t107 49q67 0 105 -48t38 -125q0 -76 -36 -125t-107 -49zM300 446q29 0 47.5 19t24 42.5t5.5 52.5q0 115 -77 115t-77 -115q0 -29 5.5 -52.5t24 -42.5t47.5 -19z" />
    <glyph glyph-name="guillemotright" unicode="&#xbb;" 
d="M66 615l273 -259l-273 -261l-47 50l224 211l-224 211zM308 615l274 -259l-274 -261l-47 50l224 211l-224 211z" />
    <glyph glyph-name="onequarter" unicode="&#xbc;" 
d="M469 137v168h-2l-88 -168h90zM463 720h58l-330 -720h-56zM519 384v-247h54v-42h-54v-95h-50v95h-149v31l140 258h59zM176 742v-354h68v-42h-188v42h70v293l-73 -22v45z" />
    <glyph glyph-name="onehalf" unicode="&#xbd;" 
d="M446 720h58l-330 -720h-56zM391 42h172v-42h-222v22q0 57 22.5 92t73.5 77q22 18 33.5 28.5t26.5 31.5t15 39q0 24 -13 38t-37 14q-31 0 -46 -22t-16 -54h-51q2 52 31.5 85t81.5 33q46 0 73 -25.5t27 -69.5q0 -29 -17 -55.5t-41.5 -47l-49.5 -41.5t-43 -47.5t-20 -55.5z
M176 742v-354h68v-42h-188v42h70v293l-73 -22v45z" />
    <glyph glyph-name="threequarters" unicode="&#xbe;" 
d="M469 137v168h-2l-88 -168h90zM519 384v-247h54v-42h-54v-95h-50v95h-149v31l140 258h59zM460 720h58l-330 -720h-56zM117 530v42q32 -2 57 15.5t25 49.5q0 24 -17.5 39.5t-41.5 15.5q-22 0 -40.5 -16t-28.5 -39l-43 24q17 33 46.5 53t65.5 20q46 0 77.5 -28t31.5 -73
q0 -50 -45 -78q62 -28 62 -97q0 -51 -34 -83t-86 -32q-44 0 -71.5 18.5t-52.5 57.5l45 26q14 -31 31 -45.5t48 -14.5t50.5 18.5t19.5 49.5q0 41 -23.5 58.5t-75.5 18.5z" />
    <glyph glyph-name="questiondown" unicode="&#xbf;" 
d="M269 504h75v-106q0 -44 -17 -69.5t-72 -66.5q-29 -22 -41.5 -44t-12.5 -56q0 -51 28.5 -82t78.5 -31t77 30.5t27 79.5h75q-4 -80 -52 -126.5t-128 -46.5q-83 0 -132 48t-49 131q0 46 15.5 76t48.5 59l36 30t26.5 22t11.5 17t5 29v106zM218 657q0 32 24 54.5t57 22.5
t56.5 -22t23.5 -55t-23.5 -55.5t-56.5 -22.5t-57 22.5t-24 55.5z" />
    <glyph glyph-name="Agrave" unicode="&#xc0;" 
d="M301 780l255 -780h-81l-64 212h-219l-64 -212h-81zM301 566l-91 -291h183zM217 960l177 -142l-38 -49l-193 129z" />
    <glyph glyph-name="Aacute" unicode="&#xc1;" 
d="M301 780l255 -780h-81l-64 212h-219l-64 -212h-81zM301 566l-91 -291h183zM383 960l54 -62l-193 -129l-38 49z" />
    <glyph glyph-name="Acircumflex" unicode="&#xc2;" 
d="M301 780l255 -780h-81l-64 212h-219l-64 -212h-81zM301 566l-91 -291h183zM300 869l-139 -103l-40 43l179 153l179 -153l-39 -43z" />
    <glyph glyph-name="Atilde" unicode="&#xc3;" 
d="M301 780l255 -780h-81l-64 212h-219l-64 -212h-81zM301 566l-91 -291h183zM437 919l61 -25q-14 -41 -44.5 -68t-71.5 -27q-36 0 -87 31q-48 31 -69 31q-34 0 -63 -68l-62 22q23 50 52 79.5t75 29.5q16 0 33 -5.5t24.5 -9.5t29.5 -17q3 -1 14 -8t18 -11t16.5 -7.5
t16.5 -3.5q15 0 27.5 10.5t17 19.5t12.5 27z" />
    <glyph glyph-name="Adieresis" unicode="&#xc4;" 
d="M301 780l255 -780h-81l-64 212h-219l-64 -212h-81zM301 566l-91 -291h183zM141 863q0 28 20.5 47.5t48.5 19.5t48.5 -19.5t20.5 -47.5t-20.5 -47.5t-48.5 -19.5t-48.5 19.5t-20.5 47.5zM320 863q0 28 20.5 47.5t48.5 19.5t48.5 -19.5t20.5 -47.5t-20.5 -47.5t-48.5 -19.5
t-48.5 19.5t-20.5 47.5z" />
    <glyph glyph-name="Aring" unicode="&#xc5;" 
d="M301 780l255 -780h-81l-64 212h-219l-64 -212h-81zM301 566l-91 -291h183zM209 878q0 39 28 67t66 28t66 -28t28 -67t-28 -67t-66 -28t-66 28t-28 67zM272 878q0 -13 9 -22.5t22 -9.5t22 9.5t9 22.5t-9 22.5t-22 9.5t-22 -9.5t-9 -22.5z" />
    <glyph glyph-name="AE" unicode="&#xc6;" 
d="M549 720v-63h-203v-253h138v-63h-138v-278h211v-63h-286v215h-116l-57 -215h-78l199 720h330zM271 278v379h-2l-97 -379h99z" />
    <glyph glyph-name="Ccedilla" unicode="&#xc7;" 
d="M505 564h-75q-1 46 -30.5 76.5t-74.5 30.5q-162 0 -162 -317q0 -305 155 -305q55 0 87.5 36t33.5 91h75q-6 -84 -52.5 -133.5t-127.5 -54.5l-6 -19q37 -2 62 -21.5t25 -55.5q0 -37 -31 -59t-70 -22q-46 0 -110 29l22 55q48 -21 79 -21q35 0 35 22q0 14 -15 19t-58 9
q-13 1 -20 2l23 65q-182 34 -182 365q0 54 5 101t20 100t40 90t69 62t102 25q75 0 126 -47.5t55 -122.5z" />
    <glyph glyph-name="Egrave" unicode="&#xc8;" 
d="M513 720v-63h-299v-256h215v-63h-215v-275h306v-63h-381v720h374zM237 960l177 -142l-38 -49l-193 129z" />
    <glyph glyph-name="Eacute" unicode="&#xc9;" 
d="M513 720v-63h-299v-256h215v-63h-215v-275h306v-63h-381v720h374zM383 960l54 -62l-193 -129l-38 49z" />
    <glyph glyph-name="Ecircumflex" unicode="&#xca;" 
d="M513 720v-63h-299v-256h215v-63h-215v-275h306v-63h-381v720h374zM315 869l-139 -103l-40 43l179 153l179 -153l-39 -43z" />
    <glyph glyph-name="Edieresis" unicode="&#xcb;" 
d="M513 720v-63h-299v-256h215v-63h-215v-275h306v-63h-381v720h374zM156 863q0 28 20.5 47.5t48.5 19.5t48.5 -19.5t20.5 -47.5t-20.5 -47.5t-48.5 -19.5t-48.5 19.5t-20.5 47.5zM335 863q0 28 20.5 47.5t48.5 19.5t48.5 -19.5t20.5 -47.5t-20.5 -47.5t-48.5 -19.5
t-48.5 19.5t-20.5 47.5z" />
    <glyph glyph-name="Igrave" unicode="&#xcc;" 
d="M435 720v-63h-98v-594h98v-63h-270v63h97v594h-97v63h270zM217 960l177 -142l-38 -49l-193 129z" />
    <glyph glyph-name="Iacute" unicode="&#xcd;" 
d="M435 720v-63h-98v-594h98v-63h-270v63h97v594h-97v63h270zM383 960l54 -62l-193 -129l-38 49z" />
    <glyph glyph-name="Icircumflex" unicode="&#xce;" 
d="M435 720v-63h-98v-594h98v-63h-270v63h97v594h-97v63h270zM300 869l-139 -103l-40 43l179 153l179 -153l-39 -43z" />
    <glyph glyph-name="Idieresis" unicode="&#xcf;" 
d="M435 720v-63h-98v-594h98v-63h-270v63h97v594h-97v63h270zM141 863q0 28 20.5 47.5t48.5 19.5t48.5 -19.5t20.5 -47.5t-20.5 -47.5t-48.5 -19.5t-48.5 19.5t-20.5 47.5zM320 863q0 28 20.5 47.5t48.5 19.5t48.5 -19.5t20.5 -47.5t-20.5 -47.5t-48.5 -19.5t-48.5 19.5
t-20.5 47.5z" />
    <glyph glyph-name="Eth" unicode="&#xd0;" 
d="M112 405v315h183q55 0 95.5 -17t72 -57t48 -111.5t16.5 -174.5q0 -200 -59.5 -280t-183.5 -80h-172v342h-96v63h96zM187 657v-252h121v-63h-121v-279h92q35 0 58.5 5t47 22.5t37 49t22 86.5t8.5 134q0 80 -9.5 136.5t-24 87.5t-39 48t-46.5 21t-56 4h-90z" />
    <glyph glyph-name="Ntilde" unicode="&#xd1;" 
d="M115 0v720h87l219 -538h3v538h75v-727h-71l-236 581l-2 -2v-572h-75zM437 919l61 -25q-14 -41 -44.5 -68t-71.5 -27q-36 0 -87 31q-48 31 -69 31q-34 0 -63 -68l-62 22q23 50 52 79.5t75 29.5q16 0 33 -5.5t24.5 -9.5t29.5 -17q3 -1 14 -8t18 -11t16.5 -7.5t16.5 -3.5
q15 0 27.5 10.5t17 19.5t12.5 27z" />
    <glyph glyph-name="Ograve" unicode="&#xd2;" 
d="M79 360q0 109 17 185t48.5 115.5t69 56.5t86.5 17q50 0 89 -17.5t62 -50.5t38 -68t21.5 -82.5t8.5 -80.5t2 -75v-8q0 -33 -0.5 -54t-4.5 -63t-12 -71t-24 -65.5t-39 -59t-59 -38t-82 -15.5t-82 16.5t-59 39t-39 60.5t-24 67t-12 73t-4.5 64.5t-0.5 53.5zM300 49
q31 0 55 12.5t45.5 44.5t33.5 96t12 158v11q2 300 -146 300q-150 0 -146 -301v-10v-33t1 -38.5t3.5 -46l7 -45t11.5 -46.5t18.5 -39t25.5 -34t34.5 -20.5t44.5 -8.5zM237 960l177 -142l-38 -49l-193 129z" />
    <glyph glyph-name="Oacute" unicode="&#xd3;" 
d="M79 360q0 109 17 185t48.5 115.5t69 56.5t86.5 17q50 0 89 -17.5t62 -50.5t38 -68t21.5 -82.5t8.5 -80.5t2 -75v-8q0 -33 -0.5 -54t-4.5 -63t-12 -71t-24 -65.5t-39 -59t-59 -38t-82 -15.5t-82 16.5t-59 39t-39 60.5t-24 67t-12 73t-4.5 64.5t-0.5 53.5zM300 49
q31 0 55 12.5t45.5 44.5t33.5 96t12 158v11q2 300 -146 300q-150 0 -146 -301v-10v-33t1 -38.5t3.5 -46l7 -45t11.5 -46.5t18.5 -39t25.5 -34t34.5 -20.5t44.5 -8.5zM383 960l54 -62l-193 -129l-38 49z" />
    <glyph glyph-name="Ocircumflex" unicode="&#xd4;" 
d="M79 360q0 109 17 185t48.5 115.5t69 56.5t86.5 17q50 0 89 -17.5t62 -50.5t38 -68t21.5 -82.5t8.5 -80.5t2 -75v-8q0 -33 -0.5 -54t-4.5 -63t-12 -71t-24 -65.5t-39 -59t-59 -38t-82 -15.5t-82 16.5t-59 39t-39 60.5t-24 67t-12 73t-4.5 64.5t-0.5 53.5zM300 49
q31 0 55 12.5t45.5 44.5t33.5 96t12 158v11q2 300 -146 300q-150 0 -146 -301v-10v-33t1 -38.5t3.5 -46l7 -45t11.5 -46.5t18.5 -39t25.5 -34t34.5 -20.5t44.5 -8.5zM300 869l-139 -103l-40 43l179 153l179 -153l-39 -43z" />
    <glyph glyph-name="Otilde" unicode="&#xd5;" 
d="M79 360q0 109 17 185t48.5 115.5t69 56.5t86.5 17q50 0 89 -17.5t62 -50.5t38 -68t21.5 -82.5t8.5 -80.5t2 -75v-8q0 -33 -0.5 -54t-4.5 -63t-12 -71t-24 -65.5t-39 -59t-59 -38t-82 -15.5t-82 16.5t-59 39t-39 60.5t-24 67t-12 73t-4.5 64.5t-0.5 53.5zM300 49
q31 0 55 12.5t45.5 44.5t33.5 96t12 158v11q2 300 -146 300q-150 0 -146 -301v-10v-33t1 -38.5t3.5 -46l7 -45t11.5 -46.5t18.5 -39t25.5 -34t34.5 -20.5t44.5 -8.5zM437 919l61 -25q-14 -41 -44.5 -68t-71.5 -27q-36 0 -87 31q-48 31 -69 31q-34 0 -63 -68l-62 22
q23 50 52 79.5t75 29.5q16 0 33 -5.5t24.5 -9.5t29.5 -17q3 -1 14 -8t18 -11t16.5 -7.5t16.5 -3.5q15 0 27.5 10.5t17 19.5t12.5 27z" />
    <glyph glyph-name="Odieresis" unicode="&#xd6;" 
d="M79 360q0 109 17 185t48.5 115.5t69 56.5t86.5 17q50 0 89 -17.5t62 -50.5t38 -68t21.5 -82.5t8.5 -80.5t2 -75v-8q0 -33 -0.5 -54t-4.5 -63t-12 -71t-24 -65.5t-39 -59t-59 -38t-82 -15.5t-82 16.5t-59 39t-39 60.5t-24 67t-12 73t-4.5 64.5t-0.5 53.5zM300 49
q31 0 55 12.5t45.5 44.5t33.5 96t12 158v11q2 300 -146 300q-150 0 -146 -301v-10v-33t1 -38.5t3.5 -46l7 -45t11.5 -46.5t18.5 -39t25.5 -34t34.5 -20.5t44.5 -8.5zM141 863q0 28 20.5 47.5t48.5 19.5t48.5 -19.5t20.5 -47.5t-20.5 -47.5t-48.5 -19.5t-48.5 19.5
t-20.5 47.5zM320 863q0 28 20.5 47.5t48.5 19.5t48.5 -19.5t20.5 -47.5t-20.5 -47.5t-48.5 -19.5t-48.5 19.5t-20.5 47.5z" />
    <glyph glyph-name="multiply" unicode="&#xd7;" 
d="M300 312l-227 -228l-48 48l228 228l-228 228l48 48l227 -228l227 228l48 -48l-228 -228l228 -228l-48 -48z" />
    <glyph glyph-name="Oslash" unicode="&#xd8;" 
d="M166 191l238 419q-40 61 -104 61q-31 0 -55 -12.5t-45.5 -44.5t-33.5 -96t-12 -158q0 -109 12 -169zM434 532l-238 -420q37 -63 104 -63q24 0 43.5 6.5t39.5 27t33.5 53.5t22 90t8.5 134q0 106 -13 172zM441 677l28 49l56 -33l-43 -75q40 -86 40 -258q0 -35 -1 -62.5
t-6 -68.5t-13.5 -72t-25 -65t-39.5 -55.5t-58 -36t-79 -14.5q-83 0 -142 59l-42 -73l-56 33l57 100q-38 86 -38 255v10q-3 364 221 364q84 0 141 -57z" />
    <glyph glyph-name="Ugrave" unicode="&#xd9;" 
d="M424 720h75v-531q0 -96 -59.5 -149.5t-139.5 -53.5q-33 0 -64.5 10.5t-64 35.5t-52 76t-19.5 121v491h75v-531q0 -72 37.5 -106t87.5 -34q65 0 94.5 41t29.5 108v522zM217 960l177 -142l-38 -49l-193 129z" />
    <glyph glyph-name="Uacute" unicode="&#xda;" 
d="M424 720h75v-531q0 -96 -59.5 -149.5t-139.5 -53.5q-33 0 -64.5 10.5t-64 35.5t-52 76t-19.5 121v491h75v-531q0 -72 37.5 -106t87.5 -34q65 0 94.5 41t29.5 108v522zM383 960l54 -62l-193 -129l-38 49z" />
    <glyph glyph-name="Ucircumflex" unicode="&#xdb;" 
d="M424 720h75v-531q0 -96 -59.5 -149.5t-139.5 -53.5q-33 0 -64.5 10.5t-64 35.5t-52 76t-19.5 121v491h75v-531q0 -72 37.5 -106t87.5 -34q65 0 94.5 41t29.5 108v522zM300 869l-139 -103l-40 43l179 153l179 -153l-39 -43z" />
    <glyph glyph-name="Udieresis" unicode="&#xdc;" 
d="M424 720h75v-531q0 -96 -59.5 -149.5t-139.5 -53.5q-33 0 -64.5 10.5t-64 35.5t-52 76t-19.5 121v491h75v-531q0 -72 37.5 -106t87.5 -34q65 0 94.5 41t29.5 108v522zM141 863q0 28 20.5 47.5t48.5 19.5t48.5 -19.5t20.5 -47.5t-20.5 -47.5t-48.5 -19.5t-48.5 19.5
t-20.5 47.5zM320 863q0 28 20.5 47.5t48.5 19.5t48.5 -19.5t20.5 -47.5t-20.5 -47.5t-48.5 -19.5t-48.5 19.5t-20.5 47.5z" />
    <glyph glyph-name="Yacute" unicode="&#xdd;" 
d="M282 394l138 326h83l-184 -416v-304h-75v304l-184 416h83zM383 960l54 -62l-193 -129l-38 49z" />
    <glyph glyph-name="Thorn" unicode="&#xde;" 
d="M134 0v720h75v-141h98q98 0 152 -57t54 -163q0 -110 -65 -163.5t-176 -53.5h-63v-142h-75zM209 205h83q67 0 106.5 39.5t39.5 113.5q0 158 -141 158h-88v-311z" />
    <glyph glyph-name="germandbls" unicode="&#xdf;" 
d="M250 352v63q63 -1 105 36t42 99q0 49 -28 85t-75 36q-42 0 -62.5 -29.5t-20.5 -98.5v-543h-75v574q0 58 46 109t122 51q71 0 119.5 -55t48.5 -127q0 -99 -87 -162q115 -50 115 -189q0 -60 -16 -104t-42 -66t-52.5 -32t-54.5 -10q-49 0 -96 35l34 55q39 -27 65 -27
q32 0 52.5 24.5t27.5 53t7 59.5q0 166 -175 163z" />
    <glyph glyph-name="agrave" unicode="&#xe0;" 
d="M157 443l-17 66q94 37 154 37q74 0 119 -51.5t45 -121.5v-232q0 -79 23 -145l-70 -9l-19 67q-54 -65 -133 -65q-74 0 -116.5 50.5t-42.5 124.5q0 81 46.5 137t124.5 56q49 0 112 -26v51q0 45 -25 73t-67 28q-11 0 -23.5 -2t-22 -4t-23.5 -7.5t-21 -8t-23 -9.5t-21 -9z
M383 144v124q-59 26 -102 26q-53 0 -79.5 -39t-26.5 -95q0 -42 22 -75t62 -33q27 0 52 16t38 31t34 45zM217 775l177 -142l-38 -49l-193 129z" />
    <glyph glyph-name="aacute" unicode="&#xe1;" 
d="M157 443l-17 66q94 37 154 37q74 0 119 -51.5t45 -121.5v-232q0 -79 23 -145l-70 -9l-19 67q-54 -65 -133 -65q-74 0 -116.5 50.5t-42.5 124.5q0 81 46.5 137t124.5 56q49 0 112 -26v51q0 45 -25 73t-67 28q-11 0 -23.5 -2t-22 -4t-23.5 -7.5t-21 -8t-23 -9.5t-21 -9z
M383 144v124q-59 26 -102 26q-53 0 -79.5 -39t-26.5 -95q0 -42 22 -75t62 -33q27 0 52 16t38 31t34 45zM383 775l54 -62l-193 -129l-38 49z" />
    <glyph glyph-name="acircumflex" unicode="&#xe2;" 
d="M157 443l-17 66q94 37 154 37q74 0 119 -51.5t45 -121.5v-232q0 -79 23 -145l-70 -9l-19 67q-54 -65 -133 -65q-74 0 -116.5 50.5t-42.5 124.5q0 81 46.5 137t124.5 56q49 0 112 -26v51q0 45 -25 73t-67 28q-11 0 -23.5 -2t-22 -4t-23.5 -7.5t-21 -8t-23 -9.5t-21 -9z
M383 144v124q-59 26 -102 26q-53 0 -79.5 -39t-26.5 -95q0 -42 22 -75t62 -33q27 0 52 16t38 31t34 45zM300 684l-139 -103l-40 43l179 153l179 -153l-39 -43z" />
    <glyph glyph-name="atilde" unicode="&#xe3;" 
d="M157 443l-17 66q94 37 154 37q74 0 119 -51.5t45 -121.5v-232q0 -79 23 -145l-70 -9l-19 67q-54 -65 -133 -65q-74 0 -116.5 50.5t-42.5 124.5q0 81 46.5 137t124.5 56q49 0 112 -26v51q0 45 -25 73t-67 28q-11 0 -23.5 -2t-22 -4t-23.5 -7.5t-21 -8t-23 -9.5t-21 -9z
M383 144v124q-59 26 -102 26q-53 0 -79.5 -39t-26.5 -95q0 -42 22 -75t62 -33q27 0 52 16t38 31t34 45zM437 734l61 -25q-14 -41 -44.5 -68t-71.5 -27q-36 0 -87 31q-48 31 -69 31q-34 0 -63 -68l-62 22q23 50 52 79.5t75 29.5q16 0 33 -5.5t24.5 -9.5t29.5 -17q3 -1 14 -8
t18 -11t16.5 -7.5t16.5 -3.5q15 0 27.5 10.5t17 19.5t12.5 27z" />
    <glyph glyph-name="adieresis" unicode="&#xe4;" 
d="M157 443l-17 66q94 37 154 37q74 0 119 -51.5t45 -121.5v-232q0 -79 23 -145l-70 -9l-19 67q-54 -65 -133 -65q-74 0 -116.5 50.5t-42.5 124.5q0 81 46.5 137t124.5 56q49 0 112 -26v51q0 45 -25 73t-67 28q-11 0 -23.5 -2t-22 -4t-23.5 -7.5t-21 -8t-23 -9.5t-21 -9z
M383 144v124q-59 26 -102 26q-53 0 -79.5 -39t-26.5 -95q0 -42 22 -75t62 -33q27 0 52 16t38 31t34 45zM320 678q0 28 20.5 47.5t48.5 19.5t48.5 -19.5t20.5 -47.5t-20.5 -47.5t-48.5 -19.5t-48.5 19.5t-20.5 47.5zM141 678q0 28 20.5 47.5t48.5 19.5t48.5 -19.5t20.5 -47.5
t-20.5 -47.5t-48.5 -19.5t-48.5 19.5t-20.5 47.5z" />
    <glyph glyph-name="aring" unicode="&#xe5;" 
d="M157 443l-17 66q94 37 154 37q74 0 119 -51.5t45 -121.5v-232q0 -79 23 -145l-70 -9l-19 67q-54 -65 -133 -65q-74 0 -116.5 50.5t-42.5 124.5q0 81 46.5 137t124.5 56q49 0 112 -26v51q0 45 -25 73t-67 28q-11 0 -23.5 -2t-22 -4t-23.5 -7.5t-21 -8t-23 -9.5t-21 -9z
M383 144v124q-59 26 -102 26q-53 0 -79.5 -39t-26.5 -95q0 -42 22 -75t62 -33q27 0 52 16t38 31t34 45zM202 689q0 39 28 67t66 28t66 -28t28 -67t-28 -67t-66 -28t-66 28t-28 67zM265 689q0 -13 9 -22.5t22 -9.5t22 9.5t9 22.5t-9 22.5t-22 9.5t-22 -9.5t-9 -22.5z" />
    <glyph glyph-name="ae" unicode="&#xe6;" 
d="M334 312h145q0 27 -4 53t-13.5 54.5t-29.5 46t-48 17.5q-27 0 -38.5 -19t-11.5 -64v-88zM259 158v116q-25 17 -57 17q-47 0 -68 -40.5t-21 -91.5q0 -43 22 -75t63 -32q22 0 35 8.5t18.5 26.5t6.5 31.5t1 39.5zM334 249v-111q0 -25 2.5 -41t15.5 -30.5t37 -14.5t54.5 11.5
t45.5 20.5l49 29l27 -62q-107 -62 -181 -62q-29 0 -48.5 8t-41.5 29q-42 -37 -106 -37q-71 0 -110.5 50t-39.5 123q0 95 49 143.5t103 48.5q29 0 69 -10v33q0 106 -46 106q-16 0 -34.5 -7t-30 -14t-32.5 -21t-28 -18l-17 68q90 55 144 55q26 0 42 -7t41 -26q38 33 93 33
q20 0 39.5 -5t43 -22t40.5 -45t28.5 -78.5t11.5 -117.5v-29h-220z" />
    <glyph glyph-name="ccedilla" unicode="&#xe7;" 
d="M470 140l51 -53q-44 -48 -87 -72.5t-99 -25.5l-7 -20q37 -2 62 -21.5t25 -55.5q0 -37 -31 -59t-70 -22q-46 0 -110 29l22 55q48 -21 79 -21q35 0 35 22q0 14 -15 19t-58 9q-13 1 -20 2l25 71q-74 17 -123.5 81.5t-49.5 183.5q0 77 20 134t54 88.5t72.5 46.5t81.5 15
q118 0 197 -119l-65 -43q-49 99 -132 99q-64 0 -108.5 -52t-44.5 -162q0 -114 46.5 -165.5t108.5 -51.5q67 0 141 88z" />
    <glyph glyph-name="egrave" unicode="&#xe8;" 
d="M518 248h-356q5 -196 152 -196q74 0 167 57l32 -67q-118 -53 -205 -53q-57 0 -101 23t-69.5 62.5t-38 87.5t-12.5 102q0 55 13 103.5t39 89.5t70.5 65t102.5 24q50 0 89.5 -21.5t60.5 -52t34.5 -68.5t17.5 -65.5t4 -49.5v-41zM161 311h282q-2 70 -39.5 121t-97.5 51
q-61 0 -95 -43.5t-50 -128.5zM237 775l177 -142l-38 -49l-193 129z" />
    <glyph glyph-name="eacute" unicode="&#xe9;" 
d="M518 248h-356q5 -196 152 -196q74 0 167 57l32 -67q-118 -53 -205 -53q-57 0 -101 23t-69.5 62.5t-38 87.5t-12.5 102q0 55 13 103.5t39 89.5t70.5 65t102.5 24q50 0 89.5 -21.5t60.5 -52t34.5 -68.5t17.5 -65.5t4 -49.5v-41zM161 311h282q-2 70 -39.5 121t-97.5 51
q-61 0 -95 -43.5t-50 -128.5zM383 775l54 -62l-193 -129l-38 49z" />
    <glyph glyph-name="ecircumflex" unicode="&#xea;" 
d="M518 248h-356q5 -196 152 -196q74 0 167 57l32 -67q-118 -53 -205 -53q-57 0 -101 23t-69.5 62.5t-38 87.5t-12.5 102q0 55 13 103.5t39 89.5t70.5 65t102.5 24q50 0 89.5 -21.5t60.5 -52t34.5 -68.5t17.5 -65.5t4 -49.5v-41zM161 311h282q-2 70 -39.5 121t-97.5 51
q-61 0 -95 -43.5t-50 -128.5zM300 684l-139 -103l-40 43l179 153l179 -153l-39 -43z" />
    <glyph glyph-name="edieresis" unicode="&#xeb;" 
d="M518 248h-356q5 -196 152 -196q74 0 167 57l32 -67q-118 -53 -205 -53q-57 0 -101 23t-69.5 62.5t-38 87.5t-12.5 102q0 55 13 103.5t39 89.5t70.5 65t102.5 24q50 0 89.5 -21.5t60.5 -52t34.5 -68.5t17.5 -65.5t4 -49.5v-41zM161 311h282q-2 70 -39.5 121t-97.5 51
q-61 0 -95 -43.5t-50 -128.5zM141 678q0 28 20.5 47.5t48.5 19.5t48.5 -19.5t20.5 -47.5t-20.5 -47.5t-48.5 -19.5t-48.5 19.5t-20.5 47.5zM320 678q0 28 20.5 47.5t48.5 19.5t48.5 -19.5t20.5 -47.5t-20.5 -47.5t-48.5 -19.5t-48.5 19.5t-20.5 47.5z" />
    <glyph glyph-name="igrave" unicode="&#xec;" 
d="M276 0v472h-152v63h227v-535h-75zM217 775l177 -142l-38 -49l-193 129z" />
    <glyph glyph-name="iacute" unicode="&#xed;" 
d="M276 0v472h-152v63h227v-535h-75zM383 775l54 -62l-193 -129l-38 49z" />
    <glyph glyph-name="icircumflex" unicode="&#xee;" 
d="M276 0v472h-152v63h227v-535h-75zM260 684l-139 -103l-40 43l179 153l179 -153l-39 -43z" />
    <glyph glyph-name="idieresis" unicode="&#xef;" 
d="M276 0v472h-152v63h227v-535h-75zM141 678q0 28 20.5 47.5t48.5 19.5t48.5 -19.5t20.5 -47.5t-20.5 -47.5t-48.5 -19.5t-48.5 19.5t-20.5 47.5zM320 678q0 28 20.5 47.5t48.5 19.5t48.5 -19.5t20.5 -47.5t-20.5 -47.5t-48.5 -19.5t-48.5 19.5t-20.5 47.5z" />
    <glyph glyph-name="eth" unicode="&#xf0;" 
d="M300 52q138 0 138 215q0 216 -138 216q-137 0 -137 -216q0 -215 137 -215zM302 632l-136 -62l-44 34l132 63q-52 34 -130 53l50 22q73 -9 139 -48l107 48l46 -35l-103 -47q150 -125 150 -352q0 -319 -213 -319q-38 0 -73 13.5t-67.5 43.5t-52 87t-19.5 134
q0 142 63 210.5t147 68.5q54 0 110 -50l2 2q-34 77 -108 134z" />
    <glyph glyph-name="ntilde" unicode="&#xf1;" 
d="M186 223v-223h-75v269q0 164 -24 266h72l17 -98q29 49 78 79t104 30q61 0 95 -48.5t34 -120.5v-377h-75v355q0 21 -0.5 33.5t-4 33t-10 32t-19.5 20.5t-32 9q-62 0 -111 -65.5t-49 -194.5zM427 734l61 -25q-14 -41 -44.5 -68t-71.5 -27q-36 0 -87 31q-48 31 -69 31
q-34 0 -63 -68l-62 22q23 50 52 79.5t75 29.5q16 0 33 -5.5t24.5 -9.5t29.5 -17q3 -1 14 -8t18 -11t16.5 -7.5t16.5 -3.5q15 0 27.5 10.5t17 19.5t12.5 27z" />
    <glyph glyph-name="ograve" unicode="&#xf2;" 
d="M300 -11q-38 0 -73 13.5t-67.5 43.5t-52 87t-19.5 134q0 143 62.5 211t149.5 68q54 0 94.5 -21t62.5 -51.5t35.5 -71.5t17 -72t3.5 -63q0 -143 -62.5 -210.5t-150.5 -67.5zM300 52q138 0 138 215q0 216 -138 216q-137 0 -137 -216q0 -215 137 -215zM237 775l177 -142
l-38 -49l-193 129z" />
    <glyph glyph-name="oacute" unicode="&#xf3;" 
d="M300 -11q-38 0 -73 13.5t-67.5 43.5t-52 87t-19.5 134q0 143 62.5 211t149.5 68q54 0 94.5 -21t62.5 -51.5t35.5 -71.5t17 -72t3.5 -63q0 -143 -62.5 -210.5t-150.5 -67.5zM300 52q138 0 138 215q0 216 -138 216q-137 0 -137 -216q0 -215 137 -215zM383 775l54 -62
l-193 -129l-38 49z" />
    <glyph glyph-name="ocircumflex" unicode="&#xf4;" 
d="M300 -11q-38 0 -73 13.5t-67.5 43.5t-52 87t-19.5 134q0 143 62.5 211t149.5 68q54 0 94.5 -21t62.5 -51.5t35.5 -71.5t17 -72t3.5 -63q0 -143 -62.5 -210.5t-150.5 -67.5zM300 52q138 0 138 215q0 216 -138 216q-137 0 -137 -216q0 -215 137 -215zM300 684l-139 -103
l-40 43l179 153l179 -153l-39 -43z" />
    <glyph glyph-name="otilde" unicode="&#xf5;" 
d="M300 -11q-38 0 -73 13.5t-67.5 43.5t-52 87t-19.5 134q0 143 62.5 211t149.5 68q54 0 94.5 -21t62.5 -51.5t35.5 -71.5t17 -72t3.5 -63q0 -143 -62.5 -210.5t-150.5 -67.5zM300 52q138 0 138 215q0 216 -138 216q-137 0 -137 -216q0 -215 137 -215zM437 734l61 -25
q-14 -41 -44.5 -68t-71.5 -27q-36 0 -87 31q-48 31 -69 31q-34 0 -63 -68l-62 22q23 50 52 79.5t75 29.5q16 0 33 -5.5t24.5 -9.5t29.5 -17q3 -1 14 -8t18 -11t16.5 -7.5t16.5 -3.5q15 0 27.5 10.5t17 19.5t12.5 27z" />
    <glyph glyph-name="odieresis" unicode="&#xf6;" 
d="M300 -11q-38 0 -73 13.5t-67.5 43.5t-52 87t-19.5 134q0 143 62.5 211t149.5 68q54 0 94.5 -21t62.5 -51.5t35.5 -71.5t17 -72t3.5 -63q0 -143 -62.5 -210.5t-150.5 -67.5zM300 52q138 0 138 215q0 216 -138 216q-137 0 -137 -216q0 -215 137 -215zM141 678
q0 28 20.5 47.5t48.5 19.5t48.5 -19.5t20.5 -47.5t-20.5 -47.5t-48.5 -19.5t-48.5 19.5t-20.5 47.5zM320 678q0 28 20.5 47.5t48.5 19.5t48.5 -19.5t20.5 -47.5t-20.5 -47.5t-48.5 -19.5t-48.5 19.5t-20.5 47.5z" />
    <glyph glyph-name="divide" unicode="&#xf7;" 
d="M575 393v-66h-550v66h550zM355 210q0 -22 -16.5 -38.5t-38.5 -16.5t-38.5 16.5t-16.5 38.5t16.5 38.5t38.5 16.5t38.5 -16.5t16.5 -38.5zM355 510q0 -22 -16.5 -38.5t-38.5 -16.5t-38.5 16.5t-16.5 38.5t16.5 38.5t38.5 16.5t38.5 -16.5t16.5 -38.5z" />
    <glyph glyph-name="oslash" unicode="&#xf8;" 
d="M409 514l35 57l53 -37l-40 -64q57 -72 57 -203q0 -143 -63 -210.5t-150 -67.5q-63 0 -115 36l-35 -59l-53 36l42 68q-52 71 -52 197q0 143 63 211t150 68q59 0 108 -32zM182 140l194 318q-32 25 -75 25q-138 0 -138 -222q0 -68 19 -121zM417 403l-197 -323q34 -28 81 -28
q138 0 138 221q0 72 -22 130z" />
    <glyph glyph-name="ugrave" unicode="&#xf9;" 
d="M415 316v219h75v-259q0 -176 23 -276h-71l-17 103q-28 -47 -77 -80.5t-99 -33.5q-67 0 -101 49.5t-34 124.5v372h75v-350q0 -27 1.5 -43t6.5 -40.5t20 -37t38 -12.5q62 0 111 69t49 195zM217 775l177 -142l-38 -49l-193 129z" />
    <glyph glyph-name="uacute" unicode="&#xfa;" 
d="M415 316v219h75v-259q0 -176 23 -276h-71l-17 103q-28 -47 -77 -80.5t-99 -33.5q-67 0 -101 49.5t-34 124.5v372h75v-350q0 -27 1.5 -43t6.5 -40.5t20 -37t38 -12.5q62 0 111 69t49 195zM383 775l54 -62l-193 -129l-38 49z" />
    <glyph glyph-name="ucircumflex" unicode="&#xfb;" 
d="M415 316v219h75v-259q0 -176 23 -276h-71l-17 103q-28 -47 -77 -80.5t-99 -33.5q-67 0 -101 49.5t-34 124.5v372h75v-350q0 -27 1.5 -43t6.5 -40.5t20 -37t38 -12.5q62 0 111 69t49 195zM300 684l-139 -103l-40 43l179 153l179 -153l-39 -43z" />
    <glyph glyph-name="udieresis" unicode="&#xfc;" 
d="M415 316v219h75v-259q0 -176 23 -276h-71l-17 103q-28 -47 -77 -80.5t-99 -33.5q-67 0 -101 49.5t-34 124.5v372h75v-350q0 -27 1.5 -43t6.5 -40.5t20 -37t38 -12.5q62 0 111 69t49 195zM141 678q0 28 20.5 47.5t48.5 19.5t48.5 -19.5t20.5 -47.5t-20.5 -47.5
t-48.5 -19.5t-48.5 19.5t-20.5 47.5zM320 678q0 28 20.5 47.5t48.5 19.5t48.5 -19.5t20.5 -47.5t-20.5 -47.5t-48.5 -19.5t-48.5 19.5t-20.5 47.5z" />
    <glyph glyph-name="yacute" unicode="&#xfd;" 
d="M445 535h80l-198 -502q-12 -31 -20.5 -51t-26 -50.5t-34 -48.5t-42 -32t-53.5 -14q-49 0 -85 33t-51 83l63 33q32 -86 73 -86q42 0 81 90l35 81l-172 464h81l130 -364zM383 775l54 -62l-193 -129l-38 49z" />
    <glyph glyph-name="thorn" unicode="&#xfe;" 
d="M189 742v-246q52 50 117 50q38 0 74 -15t68.5 -46.5t52.5 -88.5t20 -132q0 -72 -21.5 -128t-55.5 -86.5t-70 -45.5t-71 -15q-55 0 -114 31v-225h-75v947h75zM189 390v-294q55 -44 102 -44q68 0 111.5 57t43.5 158q0 62 -14.5 107t-38 67t-45.5 32t-43 10q-72 0 -116 -93z
" />
    <glyph glyph-name="ydieresis" unicode="&#xff;" 
d="M445 535h80l-198 -502q-12 -31 -20.5 -51t-26 -50.5t-34 -48.5t-42 -32t-53.5 -14q-49 0 -85 33t-51 83l63 33q32 -86 73 -86q42 0 81 90l35 81l-172 464h81l130 -364zM141 678q0 28 20.5 47.5t48.5 19.5t48.5 -19.5t20.5 -47.5t-20.5 -47.5t-48.5 -19.5t-48.5 19.5
t-20.5 47.5zM320 678q0 28 20.5 47.5t48.5 19.5t48.5 -19.5t20.5 -47.5t-20.5 -47.5t-48.5 -19.5t-48.5 19.5t-20.5 47.5z" />
    <glyph glyph-name="dcroat" unicode="&#x111;" 
d="M378 144v295q-53 44 -101 44q-65 0 -109.5 -55t-44.5 -160q0 -61 14.5 -106.5t37.5 -67.5t45.5 -32t43.5 -10q76 0 114 92zM453 600v-409q0 -115 27 -193l-71 -9l-16 60q-39 -35 -63.5 -47.5t-67.5 -12.5q-38 0 -73.5 15t-68 46.5t-52.5 88.5t-20 132q0 72 21 128
t55 86.5t70 45.5t71 15q56 0 113 -31v85h-124v58h124v84h75v-84h115v-58h-115z" />
    <glyph glyph-name="Hbar" unicode="&#x126;" 
d="M175 525v-120h250v120h-250zM425 588v132h75v-132h78v-63h-78v-525h-75v342h-250v-342h-75v525h-80v63h80v132h75v-132h250z" />
    <glyph glyph-name="hbar" unicode="&#x127;" 
d="M193 742v-95h137v-59h-137v-130q66 88 161 88q29 0 49.5 -7t42.5 -29.5t34 -73.5t12 -129v-307h-75v313q0 170 -68 170q-39 0 -74.5 -29t-54.5 -68q-14 -28 -20 -64t-6.5 -54.5t-0.5 -68.5v-199h-75v588h-104v59h104v95h75z" />
    <glyph glyph-name="dotlessi" unicode="&#x131;" 
d="M276 0v472h-152v63h227v-535h-75z" />
    <glyph glyph-name="IJ" unicode="&#x132;" 
d="M195 720v-63h-56v-594h56v-63h-185v63h54v594h-54v63h185zM331 720h208v-487q0 -247 -167 -247q-159 0 -159 204v90h75v-79q0 -29 1.5 -46.5t8.5 -46.5t26.5 -44.5t49.5 -15.5q37 0 58 29t26.5 65t5.5 88v427h-133v63z" />
    <glyph glyph-name="ij" unicode="&#x133;" 
d="M18 535h194v-535h-75v472h-119v63zM170 734q26 0 44.5 -18t18.5 -45t-18.5 -45t-44.5 -18t-44.5 18t-18.5 45t18.5 45t44.5 18zM307 535h196v-495q0 -96 -45.5 -149.5t-130.5 -53.5q-75 0 -128 55l46 58q36 -50 88 -50q95 0 95 140v432h-121v63zM459 734q26 0 44.5 -18
t18.5 -45t-18.5 -45t-44.5 -18t-44.5 18t-18.5 45t18.5 45t44.5 18z" />
    <glyph glyph-name="kgreenlandic" unicode="&#x138;" 
d="M295 290l263 -290h-99l-210 246l-34 -34v-212h-75v546h75v-245q84 84 125 133q60 71 76 84q38 31 99 28v-62q-33 3 -58 -14.5t-60 -63.5q-29 -38 -102 -116z" />
    <glyph glyph-name="Ldot" unicode="&#x13f;" 
d="M230 720v-657h312v-63h-387v720h75zM414 362q0 28 20.5 47.5t48.5 19.5t48.5 -19.5t20.5 -47.5t-20.5 -47.5t-48.5 -19.5t-48.5 19.5t-20.5 47.5z" />
    <glyph glyph-name="ldot" unicode="&#x140;" 
d="M268 0v679h-152v63h227v-742h-75zM522 377q0 28 20.5 47.5t48.5 19.5t48.5 -19.5t20.5 -47.5t-20.5 -47.5t-48.5 -19.5t-48.5 19.5t-20.5 47.5z" />
    <glyph glyph-name="Lslash" unicode="&#x141;" 
d="M219 432l182 88v-81l-182 -74v-302h309v-63h-384v334l-113 -51v71l113 46v320h75v-288z" />
    <glyph glyph-name="lslash" unicode="&#x142;" 
d="M343 478l136 62v-74l-136 -62v-404h-75v372l-143 -66v73l143 67v233h-152v63h227v-264z" />
    <glyph glyph-name="napostrophe" unicode="&#x149;" 
d="M30 487v68q39 8 64 32q-28 2 -47 21.5t-19 47.5q0 34 22.5 56t56.5 22q36 0 59.5 -27t23.5 -64q0 -58 -48.5 -99.5t-111.5 -56.5zM266 223v-223h-75v269q0 164 -24 266h72l17 -98q29 49 78 79t104 30q61 0 95 -48.5t34 -120.5v-377h-75v355q0 21 -0.5 33.5t-4 33t-10 32
t-19.5 20.5t-32 9q-62 0 -111 -65.5t-49 -194.5z" />
    <glyph glyph-name="Eng" unicode="&#x14a;" 
d="M186 300v-300h-75v362q0 220 -24 358h72l17 -133q29 66 78 106.5t104 40.5q61 0 95 -65t34 -162v-455q0 -102 -57.5 -158.5t-141.5 -56.5q-59 0 -121 40l37 55q43 -32 93 -32q52 0 83.5 40t31.5 108v429q0 24 -0.5 38t-2 39t-6 40.5t-11 32t-18.5 24.5t-28 8
q-61 0 -110.5 -92t-49.5 -267z" />
    <glyph glyph-name="eng" unicode="&#x14b;" 
d="M186 223v-223h-75v269q0 164 -24 266h72l17 -98q29 49 78 79t104 30q61 0 95 -48.5t34 -120.5v-325q0 -59 -20 -103.5t-51.5 -67.5t-63.5 -33.5t-64 -10.5q-70 0 -135 50l43 51q46 -38 101 -38q56 0 85.5 43t29.5 105v307q0 21 -0.5 33.5t-4 33t-10 32t-19.5 20.5t-32 9
q-62 0 -111 -65.5t-49 -194.5z" />
    <glyph glyph-name="OE" unicode="&#x152;" 
d="M591 720v-63h-203v-253h138v-63h-138v-278h211v-63h-269q-13 -5 -39 -11q-19 -3 -40 -3q-44 0 -79 13.5t-57.5 33.5t-39 53t-25 63t-13.5 72.5t-6 72t-1 71.5q0 36 0.5 56t4.5 64t12 72t24.5 65t39.5 59t60 37.5t84 15.5q35 0 75 -14h261zM313 63v593q-41 15 -61 15
q-24 0 -44 -7.5t-40 -27.5t-33 -53t-21.5 -88t-8.5 -128q0 -98 10.5 -162.5t31 -97.5t45 -45.5t60.5 -12.5q28 0 61 14z" />
    <glyph glyph-name="oe" unicode="&#x153;" 
d="M554 249h-219v-111q0 -20 1 -31t5.5 -26t16.5 -22t31 -7q24 0 54.5 11.5t45.5 20.5l49 29l27 -62q-107 -62 -181 -62q-48 0 -88 33q-41 -33 -71 -33q-31 0 -61.5 14.5t-59.5 45t-46.5 87t-17.5 131.5t17 132t45 87.5t58 45t61 14.5q30 0 82 -29q43 29 88 29q23 0 47 -9
t52 -32.5t46 -77.5t18 -130v-48zM260 80v388q-21 15 -36 15q-16 0 -33.5 -10t-35 -32.5t-29 -67.5t-11.5 -106q0 -77 19.5 -128.5t41 -69t41.5 -17.5q25 0 43 28zM335 312h144q0 27 -4 53t-13.5 54.5t-29.5 46t-48 17.5q-26 0 -37.5 -19t-11.5 -64v-88z" />
    <glyph glyph-name="Scaron" unicode="&#x160;" 
d="M502 644l-45 -54q-28 25 -47 39.5t-49.5 28t-59.5 13.5q-49 0 -82.5 -30.5t-33.5 -79.5q0 -23 5 -38.5t29 -40t70 -52.5l57 -35q101 -62 134.5 -101.5t33.5 -101.5q0 -96 -58 -151t-154 -55q-127 0 -218 117l58 46q28 -45 69.5 -72.5t90.5 -27.5q57 0 97 38t40 95
q0 33 -6 50t-34 41.5t-91 62.5l-65 39q-64 38 -98.5 79t-34.5 102q0 82 55 130t139 48q101 0 198 -90zM300 859l140 103l39 -43l-179 -153l-179 153l39 43z" />
    <glyph glyph-name="scaron" unicode="&#x161;" 
d="M464 484l-33 -61q-84 60 -143 60q-35 0 -61 -23t-26 -58q0 -55 103 -93q32 -12 51 -20t45 -23.5t40.5 -31.5t25 -41t10.5 -56q0 -64 -49 -106t-114 -42q-116 0 -220 93l41 60q35 -37 82.5 -63.5t91.5 -26.5q40 0 66.5 21.5t26.5 60.5q0 25 -8 43t-28.5 31t-32.5 19
t-42 17q-37 14 -59 24.5t-50 30t-41.5 46t-13.5 60.5q0 59 48 100t117 41q87 0 173 -62zM300 674l140 103l39 -43l-179 -153l-179 153l39 43z" />
    <glyph glyph-name="Tbar" unicode="&#x166;" 
d="M541 657h-205v-268h131v-59h-131v-330h-75v330h-128v59h128v268h-201v63h481v-63z" />
    <glyph glyph-name="tbar" unicode="&#x167;" 
d="M271 371h191v-63h-191v-141q0 -26 1.5 -41t7.5 -35t21 -29.5t39 -9.5q71 0 113 94l72 -18q-65 -139 -187 -139q-71 0 -106.5 44.5t-35.5 157.5v117h-115v63h115v101h-115v63h115v164h75v-164h191v-63h-191v-101z" />
    <glyph glyph-name="Ydieresis" unicode="&#x178;" 
d="M282 394l138 326h83l-184 -416v-304h-75v304l-184 416h83zM121 863q0 28 20.5 47.5t48.5 19.5t48.5 -19.5t20.5 -47.5t-20.5 -47.5t-48.5 -19.5t-48.5 19.5t-20.5 47.5zM300 863q0 28 20.5 47.5t48.5 19.5t48.5 -19.5t20.5 -47.5t-20.5 -47.5t-48.5 -19.5t-48.5 19.5
t-20.5 47.5z" />
    <glyph glyph-name="Zcaron" unicode="&#x17d;" 
d="M114 720h375v-53l-296 -604h320v-63h-410v54l300 603h-289v63zM300 859l140 103l39 -43l-179 -153l-179 153l39 43z" />
    <glyph glyph-name="zcaron" unicode="&#x17e;" 
d="M496 535v-56l-307 -416h319v-63h-416v55l309 417h-265v63h360zM300 674l140 103l39 -43l-179 -153l-179 153l39 43z" />
    <glyph glyph-name="florin" unicode="&#x192;" 
d="M360 495h110v-63h-118l-47 -378q-12 -98 -48 -139.5t-113 -41.5h-54v63h42q54 0 72.5 22t28.5 106l46 368h-112v63h119l8 61q13 103 50.5 144.5t113.5 41.5h51v-63h-56q-42 0 -59.5 -29.5t-29.5 -122.5z" />
    <glyph glyph-name="circumflex" unicode="&#x2c6;" 
d="M300 684l-139 -103l-40 43l179 153l179 -153l-39 -43z" />
    <glyph glyph-name="caron" unicode="&#x2c7;" 
d="M300 674l140 103l39 -43l-179 -153l-179 153l39 43z" />
    <glyph glyph-name="uni02C9" unicode="&#x2c9;" 
d="M455 610h-311v63h311v-63z" />
    <glyph glyph-name="breve" unicode="&#x2d8;" 
d="M117 748h69q6 -78 108 -78q53 0 84 15.5t36 62.5h69q-4 -73 -51.5 -107t-125.5 -34q-85 0 -134.5 31.5t-54.5 109.5z" />
    <glyph glyph-name="dotaccent" unicode="&#x2d9;" 
d="M231 677q0 28 20.5 47.5t48.5 19.5t48.5 -19.5t20.5 -47.5t-20.5 -47.5t-48.5 -19.5t-48.5 19.5t-20.5 47.5z" />
    <glyph glyph-name="ring" unicode="&#x2da;" 
d="M202 689q0 39 28 67t66 28t66 -28t28 -67t-28 -67t-66 -28t-66 28t-28 67zM265 689q0 -13 9 -22.5t22 -9.5t22 9.5t9 22.5t-9 22.5t-22 9.5t-22 -9.5t-9 -22.5z" />
    <glyph glyph-name="ogonek" unicode="&#x2db;" 
d="M366 -104v-64q-57 -22 -103 -22q-54 0 -91.5 24.5t-37.5 75.5q0 75 91 115h106q-8 -7 -43 -28t-57 -42t-22 -44q0 -25 14 -33.5t42 -8.5q35 0 101 27z" />
    <glyph glyph-name="tilde" unicode="&#x2dc;" 
d="M437 734l61 -25q-14 -41 -44.5 -68t-71.5 -27q-36 0 -87 31q-48 31 -69 31q-34 0 -63 -68l-62 22q23 50 52 79.5t75 29.5q16 0 33 -5.5t24.5 -9.5t29.5 -17q3 -1 14 -8t18 -11t16.5 -7.5t16.5 -3.5q15 0 27.5 10.5t17 19.5t12.5 27z" />
    <glyph glyph-name="hungarumlaut" unicode="&#x2dd;" 
d="M456 768l55 -62l-194 -129l-37 49zM267 775l55 -62l-194 -129l-37 49z" />
    <glyph glyph-name="Gamma" unicode="&#x393;" 
d="M149 720h359v-63h-284v-657h-75v720z" />
    <glyph glyph-name="Theta" unicode="&#x398;" 
d="M300 -14q-49 0 -97.5 24.5t-88.5 70t-65 118.5t-25 161q0 89 25.5 162.5t66 118.5t88.5 69t96 24q49 0 97.5 -24.5t88.5 -70t65 -118.5t25 -161q0 -167 -83.5 -270.5t-192.5 -103.5zM300 49q32 0 65.5 18.5t64.5 54.5t51 98t20 140q0 81 -21 144.5t-53 98t-65 51.5
t-62 17q-76 0 -138.5 -81.5t-62.5 -229.5q0 -82 20.5 -145.5t52.5 -97.5t65 -51t63 -17zM171 398h257v-63h-257v63z" />
    <glyph glyph-name="Phi" unicode="&#x3a6;" 
d="M261 734h75v-67q76 0 133.5 -47.5t84.5 -115.5t27 -143q0 -118 -66.5 -213t-178.5 -95v-67h-75v66q-75 1 -132 48t-83.5 114.5t-26.5 142.5q0 55 16 109.5t45 99.5t76.5 73t104.5 28v67zM261 111v497q-56 1 -96 -42t-55.5 -98t-15.5 -111q0 -55 16.5 -109t56 -96
t94.5 -41zM336 608v-496q56 0 96.5 41.5t57 95.5t16.5 110q0 41 -9.5 82.5t-29 80t-53.5 62.5t-78 24z" />
    <glyph glyph-name="uni03A9" unicode="&#x3a9;" 
d="M328 0v144q44 3 76.5 25t50 58t25.5 74.5t8 80.5q0 47 -9 93.5t-28 92.5t-56.5 74.5t-87.5 28.5q-65 0 -111.5 -48t-65 -109.5t-18.5 -124.5q0 -45 9.5 -86t29.5 -77t56 -58.5t83 -23.5v-144h-250v63h175v41q-59 14 -100.5 62.5t-59.5 107.5t-18 122q0 85 29 160
t92.5 126.5t150.5 51.5q44 0 86.5 -18t81 -55.5t62.5 -106t24 -158.5q0 -60 -15 -118t-52.5 -108t-92.5 -65v-42h157v-63h-232z" />
    <glyph glyph-name="alpha" unicode="&#x3b1;" 
d="M246 52q46 0 85 65.5t39 163.5q0 29 -7 62t-21 65.5t-39 53.5t-56 21q-44 0 -81 -60.5t-37 -169.5q0 -100 35.5 -150.5t81.5 -50.5zM421 385l55 168l68 -18l-95 -260l77 -275h-72l-38 156h-2q-41 -167 -171 -167q-23 0 -46.5 7t-50 26.5t-46.5 48.5t-33 78t-13 110
q0 63 18 125.5t64 112t111 49.5q68 0 112 -45t62 -116z" />
    <glyph glyph-name="delta" unicode="&#x3b4;" 
d="M440 241q0 71 -37.5 127t-104.5 56t-102.5 -59t-35.5 -130q0 -67 37.5 -126.5t100.5 -59.5q66 0 104 60.5t38 131.5zM210 657l217 -217q88 -88 88 -198q0 -100 -60 -178t-157 -78q-94 0 -153.5 77.5t-59.5 174.5q0 120 56.5 178.5t143.5 70.5l-141 146v87h316v-63h-250z
" />
    <glyph glyph-name="epsilon" unicode="&#x3b5;" 
d="M348 315v-63q-92 0 -141 -25.5t-49 -87.5q0 -30 37 -60t113 -30q93 0 152 68l66 -29q-82 -102 -215 -102q-99 0 -163.5 44t-64.5 117q0 98 128 140q-94 44 -94 116q0 59 56 101t135 42q67 0 121 -27.5t87 -73.5l-63 -27q-48 65 -137 65q-39 0 -66 -8t-38.5 -21.5
t-15.5 -24.5t-4 -22q0 -46 45.5 -70t110.5 -22z" />
    <glyph glyph-name="uni03BC" unicode="&#x3bc;" 
d="M410 0v45q-40 -56 -108 -56q-71 0 -111 52v-271h-75v765h75v-311q0 -95 32 -133.5t74 -38.5q18 0 35.5 7t36 24.5t30 55.5t11.5 92v304h75v-535h-75z" />
    <glyph glyph-name="pi" unicode="&#x3c0;" 
d="M48 535h504v-63h-100v-472h-75v472h-154v-472h-75v472h-100v63z" />
    <glyph glyph-name="sigma" unicode="&#x3c3;" 
d="M544 536v-61l-162 9q49 -38 74 -99t25 -128q0 -108 -58 -188t-153 -80q-65 0 -116 43.5t-75 105t-24 126.5q0 105 58.5 187.5t168.5 83.5zM269 52q45 0 78 37.5t46 85t13 93.5q0 71 -37 138t-101 67q-45 0 -78 -36t-46.5 -81t-13.5 -90q0 -58 15.5 -102.5t38.5 -67
t45 -33.5t40 -11z" />
    <glyph glyph-name="tau" unicode="&#x3c4;" 
d="M508 535v-63h-166v-472h-75v472h-71q-68 0 -103 -18v64q33 17 77 17h338z" />
    <glyph glyph-name="uni03D5" unicode="&#x3d5;" 
d="M339 479v-423q106 24 106 211q0 188 -106 212zM339 676v-133q35 -5 65.5 -22t57.5 -48.5t42.5 -84t15.5 -121.5q0 -129 -52 -196.5t-129 -78.5v-118h-63v118q-75 11 -128 76.5t-53 198.5q0 130 51.5 197.5t129.5 78.5v133h63zM276 56v423q-106 -22 -106 -212
q0 -189 106 -211z" />
    <glyph glyph-name="uni2010" unicode="&#x2010;" 
d="M430 327h-260v63h260v-63z" />
    <glyph glyph-name="endash" unicode="&#x2013;" 
d="M476 327h-352v63h352v-63z" />
    <glyph glyph-name="emdash" unicode="&#x2014;" 
d="M600 327h-600v63h600v-63z" />
    <glyph glyph-name="underscoredbl" unicode="&#x2017;" 
d="M600 -108h-600v36h600v-36zM600 -216h-600v36h600v-36z" />
    <glyph glyph-name="quoteleft" unicode="&#x2018;" 
d="M389 734v-68q-39 -8 -64 -32q28 -2 47 -21.5t19 -47.5q0 -34 -22.5 -56t-56.5 -22q-36 0 -59.5 27t-23.5 64q0 58 48.5 99.5t111.5 56.5z" />
    <glyph glyph-name="quoteright" unicode="&#x2019;" 
d="M232 487v68q39 8 64 32q-28 2 -47 21.5t-19 47.5q0 34 22.5 56t56.5 22q36 0 59.5 -27t23.5 -64q0 -58 -48.5 -99.5t-111.5 -56.5z" />
    <glyph glyph-name="quotesinglbase" unicode="&#x201a;" 
d="M221 -112v68q39 8 64 32q-28 2 -47 21.5t-19 47.5q0 34 22.5 56t56.5 22q36 0 59.5 -27t23.5 -64q0 -58 -48.5 -99.5t-111.5 -56.5z" />
    <glyph glyph-name="quotereversed" unicode="&#x201b;" 
d="M382 554v-67q-63 15 -111.5 56t-48.5 100q0 37 23.5 64t59.5 27q34 0 56.5 -22t22.5 -56q0 -28 -19 -47.5t-47 -21.5q24 -23 64 -33z" />
    <glyph glyph-name="quotedblleft" unicode="&#x201c;" 
d="M280 734v-68q-39 -8 -64 -32q28 -2 47 -21.5t19 -47.5q0 -34 -22.5 -56t-56.5 -22q-36 0 -59.5 27t-23.5 64q0 58 48.5 99.5t111.5 56.5zM498 734v-68q-39 -8 -64 -32q28 -2 47 -21.5t19 -47.5q0 -34 -22.5 -56t-56.5 -22q-36 0 -59.5 27t-23.5 64q0 58 48.5 99.5
t111.5 56.5z" />
    <glyph glyph-name="quotedblright" unicode="&#x201d;" 
d="M122 487v68q39 8 64 32q-28 2 -47 21.5t-19 47.5q0 34 22.5 56t56.5 22q36 0 59.5 -27t23.5 -64q0 -58 -48.5 -99.5t-111.5 -56.5zM340 487v68q39 8 64 32q-28 2 -47 21.5t-19 47.5q0 34 22.5 56t56.5 22q36 0 59.5 -27t23.5 -64q0 -58 -48.5 -99.5t-111.5 -56.5z" />
    <glyph glyph-name="quotedblbase" unicode="&#x201e;" 
d="M122 -112v68q39 8 64 32q-28 2 -47 21.5t-19 47.5q0 34 22.5 56t56.5 22q36 0 59.5 -27t23.5 -64q0 -58 -48.5 -99.5t-111.5 -56.5zM340 -112v68q39 8 64 32q-28 2 -47 21.5t-19 47.5q0 34 22.5 56t56.5 22q36 0 59.5 -27t23.5 -64q0 -58 -48.5 -99.5t-111.5 -56.5z" />
    <glyph glyph-name="dagger" unicode="&#x2020;" 
d="M255 720h90l-7 -198l128 7v-79l-128 7l6 -81l-11 -376h-66l-11 376l6 81l-128 -7v79l128 -7z" />
    <glyph glyph-name="daggerdbl" unicode="&#x2021;" 
d="M263 474l-128 -7v79l128 -7l-7 181h89l-7 -181l128 7v-79l-128 7v-228l128 7v-79l-128 7l7 -181h-89l7 181l-128 -7v79l128 -7v228z" />
    <glyph glyph-name="bullet" unicode="&#x2022;" 
d="M200 384q0 41 29.5 69t70.5 28t70.5 -28t29.5 -69t-29.5 -69t-70.5 -28t-70.5 28t-29.5 69z" />
    <glyph glyph-name="ellipsis" unicode="&#x2026;" 
d="M101 -14q-30 0 -51.5 20.5t-21.5 49.5q0 30 21.5 50t51.5 20t51 -20t21 -50q0 -29 -21.5 -49.5t-50.5 -20.5zM301 -14q-30 0 -51.5 20.5t-21.5 49.5q0 30 21.5 50t51.5 20t51 -20t21 -50q0 -29 -21.5 -49.5t-50.5 -20.5zM501 -14q-30 0 -51.5 20.5t-21.5 49.5
q0 30 21.5 50t51.5 20t51 -20t21 -50q0 -29 -21.5 -49.5t-50.5 -20.5z" />
    <glyph glyph-name="perthousand" unicode="&#x2030;" 
d="M535 183q0 51 -23 51q-29 0 -43 -50.5t-14 -90.5q0 -52 24 -52q15 0 27 17.5t17.5 42.5t8.5 46.5t3 35.5zM312 734h54l-302 -748h-54zM145 628q0 51 -23 51q-29 0 -43 -50.5t-14 -90.5q0 -52 24 -52q15 0 27 17.5t17.5 42.5t8.5 46.5t3 35.5zM392 101q0 41 10.5 81.5
t39.5 73.5t71 33q43 0 64 -31t21 -76q0 -43 -10 -84.5t-39 -76.5t-72 -35q-85 0 -85 115zM2 546q0 41 10.5 81.5t39.5 73.5t71 33q43 0 64 -31t21 -76q0 -43 -10 -84.5t-39 -76.5t-72 -35q-85 0 -85 115zM166 101q0 41 10.5 81.5t39.5 73.5t71 33q43 0 64 -31t21 -76
q0 -43 -10 -84.5t-39 -76.5t-72 -35q-85 0 -85 115zM309 183q0 51 -23 51q-29 0 -43 -50.5t-14 -90.5q0 -52 24 -52q15 0 27 17.5t17.5 42.5t8.5 46.5t3 35.5z" />
    <glyph glyph-name="guilsinglleft" unicode="&#x2039;" 
d="M392 615l47 -48l-224 -211l224 -211l-47 -50l-273 261z" />
    <glyph glyph-name="guilsinglright" unicode="&#x203a;" 
d="M208 615l274 -259l-274 -261l-47 50l224 211l-224 211z" />
    <glyph glyph-name="exclamdbl" unicode="&#x203c;" 
d="M219 720l-14 -501h-67l-17 501h98zM88 64q0 32 24 54.5t57 22.5t56.5 -22t23.5 -55t-23.5 -55.5t-56.5 -22.5t-57 22.5t-24 55.5zM479 720l-14 -501h-67l-17 501h98zM347 64q0 32 24 54.5t57 22.5t56.5 -22t23.5 -55t-23.5 -55.5t-56.5 -22.5t-57 22.5t-24 55.5z" />
    <glyph glyph-name="uni203E" unicode="&#x203e;" 
d="M532 -104h-464v55h464v-55z" />
    <glyph glyph-name="fraction" unicode="&#x2044;" 
d="M140 720h58l-330 -720h-56z" />
    <glyph glyph-name="n.superior" unicode="&#x207f;" 
d="M235 540v-134h-50v161q0 97 -16 160h48l11 -59q19 29 51 47.5t68 18.5q40 0 62.5 -29.5t22.5 -72.5v-226h-50v213q0 16 -1 25t-4.5 22t-13 19.5t-24.5 6.5q-41 0 -72.5 -37.5t-31.5 -114.5z" />
    <glyph glyph-name="franc" unicode="&#x20a3;" 
d="M329 720v-63h-251v-250h188v-63h-188v-344h-60v720h311zM341 481l12 -91q26 49 53.5 75t67.5 26q26 0 45 -14.5t28.5 -39t13.5 -51t4 -56.5h-55v16.5t-0.5 20.5t-2 19t-4 19.5t-6.5 14.5t-10.5 11.5t-15.5 3.5q-37 0 -75 -63.5t-38 -170.5v-201h-55v276q0 115 -15 205h53
z" />
    <glyph glyph-name="peseta" unicode="&#x20a7;" 
d="M10 0v720h139q79 0 122.5 -57t43.5 -163q0 -110 -52.5 -164t-141.5 -53h-51v-283h-60zM70 346h67q54 0 86 39.5t32 113.5q0 158 -114 158h-71v-311zM542 348v-42h-125v-200q0 -17 1 -26.5t4.5 -23t13.5 -19.5t26 -6q46 0 74 61l47 -11q-41 -92 -122 -92q-46 0 -70 29.5
t-24 103.5v184h-75v42h75v107h50v-107h125z" />
    <glyph glyph-name="Euro" unicode="&#x20ac;" 
d="M531 564h-75q-1 46 -30.5 76.5t-74.5 30.5q-135 0 -157 -209h202v-57h-206q-1 -17 -1 -51q0 -21 1 -30h185v-57h-182q18 -218 151 -218q55 0 87.5 36t33.5 91h75q-6 -89 -58 -139.5t-141 -50.5q-58 0 -101.5 24.5t-67.5 67.5t-36.5 88.5t-17.5 100.5h-56v57h52v32
q0 36 1 49h-53v57h58q6 54 19.5 98.5t39 85.5t69.5 64.5t102 23.5q75 0 126 -47.5t55 -122.5z" />
    <glyph glyph-name="uni20B9" unicode="&#x20b9;" 
d="M110 582h231q-21 69 -103 82h-128v56h439v-56h-180q33 -34 45 -82h135v-56h-125v-10q0 -92 -55.5 -152t-158.5 -79l290 -285h-91l-283 282v60h11q101 0 156.5 43t55.5 129v12h-239v56z" />
    <glyph glyph-name="uni2113" unicode="&#x2113;" 
d="M493 149l35 -28q-70 -130 -197 -130q-84 0 -127 55t-46 139v14l-63 -51l-23 40q67 54 85 72v288q0 130 46.5 188t112.5 58q63 0 96 -47t33 -119q0 -173 -225 -385l1 -31q3 -85 37.5 -126.5t85.5 -41.5q48 0 87 31.5t62 73.5zM220 555v-245q84 88 130 164t46 151
q0 118 -81 118q-37 0 -66 -46t-29 -142z" />
    <glyph glyph-name="trademark" unicode="&#x2122;" 
d="M594 742v-278h-60v224h-2l-79 -224h-36l-81 224h-1v-224h-60v278h97l63 -164l62 164h97zM241 742v-54h-85v-224h-66v224h-85v54h236z" />
    <glyph glyph-name="Omega" unicode="&#x2126;" 
d="M328 0v144q44 3 76.5 25t50 58t25.5 74.5t8 80.5q0 47 -9 93.5t-28 92.5t-56.5 74.5t-87.5 28.5q-65 0 -111.5 -48t-65 -109.5t-18.5 -124.5q0 -45 9.5 -86t29.5 -77t56 -58.5t83 -23.5v-144h-250v63h175v41q-59 14 -100.5 62.5t-59.5 107.5t-18 122q0 85 29 160
t92.5 126.5t150.5 51.5q44 0 86.5 -18t81 -55.5t62.5 -106t24 -158.5q0 -60 -15 -118t-52.5 -108t-92.5 -65v-42h157v-63h-232z" />
    <glyph glyph-name="estimated" unicode="&#x212e;" 
d="M598 252h-484q-4 0 -4 -4v-146q0 -10 6 -17q77 -79 184 -79q116 0 192 89h43q-40 -48 -102.5 -76t-133.5 -28q-124 0 -211.5 78.5t-87.5 189.5q0 112 87.5 190.5t211.5 78.5t211.5 -78.5t87.5 -190.5v-7zM488 271v147q0 11 -7 18q-79 76 -181 76q-106 0 -183 -79
q-7 -7 -7 -18v-144q0 -5 4 -5h371q3 0 3 5z" />
    <glyph glyph-name="oneeighth" unicode="&#x215b;" 
d="M375 105q0 -33 21 -51.5t54 -18.5q34 0 54.5 18t20.5 52q0 33 -20.5 51.5t-54.5 18.5q-33 0 -54 -18.5t-21 -51.5zM512 280q0 29 -16.5 45.5t-45.5 16.5q-62 0 -62 -68q0 -26 18 -41.5t44 -15.5q29 0 45.5 17t16.5 46zM523 199q52 -35 52 -94q0 -54 -35 -83t-90 -29
t-90 29t-35 83q0 33 12 54t40 40q-39 35 -39 81q0 48 31.5 76t80.5 28t80.5 -28t31.5 -76t-39 -81zM176 742v-354h68v-42h-188v42h70v293l-73 -22v45zM446 720h58l-330 -720h-56z" />
    <glyph glyph-name="threeeighths" unicode="&#x215c;" 
d="M375 105q0 -33 21 -51.5t54 -18.5q34 0 54.5 18t20.5 52q0 33 -20.5 51.5t-54.5 18.5q-33 0 -54 -18.5t-21 -51.5zM512 280q0 29 -16.5 45.5t-45.5 16.5q-62 0 -62 -68q0 -26 18 -41.5t44 -15.5q29 0 45.5 17t16.5 46zM523 199q52 -35 52 -94q0 -54 -35 -83t-90 -29
t-90 29t-35 83q0 33 12 54t40 40q-39 35 -39 81q0 48 31.5 76t80.5 28t80.5 -28t31.5 -76t-39 -81zM134 530l-17 -1v44q32 -2 57 15t25 49q0 24 -17.5 39.5t-41.5 15.5q-22 0 -40.5 -16t-28.5 -39l-43 24q17 33 46.5 53t65.5 20q46 0 77.5 -28t31.5 -73q0 -50 -45 -78
q62 -28 62 -97q0 -51 -34 -83t-86 -32q-44 0 -71.5 18.5t-52.5 57.5l45 26q14 -31 31 -45.5t48 -14.5t50.5 18.5t19.5 49.5q0 37 -22.5 58t-59.5 19zM434 720h58l-330 -720h-56z" />
    <glyph glyph-name="fiveeighths" unicode="&#x215d;" 
d="M375 105q0 -33 21 -51.5t54 -18.5q34 0 54.5 18t20.5 52q0 33 -20.5 51.5t-54.5 18.5q-33 0 -54 -18.5t-21 -51.5zM512 280q0 29 -16.5 45.5t-45.5 16.5q-62 0 -62 -68q0 -26 18 -41.5t44 -15.5q29 0 45.5 17t16.5 46zM523 199q52 -35 52 -94q0 -54 -35 -83t-90 -29
t-90 29t-35 83q0 33 12 54t40 40q-39 35 -39 81q0 48 31.5 76t80.5 28t80.5 -28t31.5 -76t-39 -81zM239 720v-42h-133l-9 -112q25 17 52 17q51 0 82 -33.5t31 -84.5q0 -55 -31 -92t-85 -37q-65 0 -107 68l39 28q11 -23 29.5 -38.5t41.5 -15.5q29 0 46 25t17 56
q0 33 -15.5 57.5t-46.5 24.5q-34 0 -57 -43l-49 10l16 212h179zM435 720h58l-330 -720h-56z" />
    <glyph glyph-name="seveneighths" unicode="&#x215e;" 
d="M523 199q52 -35 52 -94q0 -54 -35 -83t-90 -29t-90 29t-35 83q0 33 12 54t40 40q-39 35 -39 81q0 48 31.5 76t80.5 28t80.5 -28t31.5 -76t-39 -81zM375 105q0 -33 21 -51.5t54 -18.5q34 0 54.5 18t20.5 52q0 33 -20.5 51.5t-54.5 18.5q-33 0 -54 -18.5t-21 -51.5z
M512 280q0 29 -16.5 45.5t-45.5 16.5q-62 0 -62 -68q0 -26 18 -41.5t44 -15.5q29 0 45.5 17t16.5 46zM58 720h224l-150 -377h-54l137 335h-157v42zM406 720h58l-330 -720h-56z" />
    <glyph glyph-name="uni2190" unicode="&#x2190;" 
d="M136 382h460v-44h-460q13 -20 31 -63t18 -60q0 -16 -14 -16q-8 0 -21 20q-56 83 -125 123q-21 10 -21 18t21 18q69 40 125 123q13 20 21 20q14 0 14 -16q0 -17 -18 -60t-31 -63z" />
    <glyph glyph-name="arrowup" unicode="&#x2191;" 
d="M322 524v-460h-44v460q-20 -13 -63 -31t-60 -18q-16 0 -16 14q0 8 20 21q83 56 123 125q10 21 18 21t18 -21q40 -69 123 -125q20 -13 20 -21q0 -14 -16 -14q-17 0 -60 18t-63 31z" />
    <glyph glyph-name="uni2192" unicode="&#x2192;" 
d="M4 382h460q-13 20 -31 63t-18 60q0 16 14 16q8 0 21 -20q56 -83 125 -123q21 -10 21 -18t-21 -18q-69 -40 -125 -123q-13 -20 -21 -20q-14 0 -14 16q0 17 18 60t31 63h-460v44z" />
    <glyph glyph-name="arrowdown" unicode="&#x2193;" 
d="M322 656v-460q20 13 63 31t60 18q16 0 16 -14q0 -8 -20 -21q-83 -56 -123 -125q-10 -21 -18 -21t-18 21q-40 69 -123 125q-20 13 -20 21q0 14 16 14q17 0 60 -18t63 -31v460h44z" />
    <glyph glyph-name="arrowboth" unicode="&#x2194;" 
d="M464 338h-328q13 -20 31 -63t18 -60q0 -16 -14 -16q-8 0 -21 20q-56 83 -125 123q-21 10 -21 18t21 18q69 40 125 123q13 20 21 20q14 0 14 -16q0 -17 -18 -60t-31 -63h328q-13 20 -31 63t-18 60q0 16 14 16q8 0 21 -20q56 -83 125 -123q21 -10 21 -18t-21 -18
q-69 -40 -125 -123q-13 -20 -21 -20q-14 0 -14 16q0 17 18 60t31 63z" />
    <glyph glyph-name="arrowupdn" unicode="&#x2195;" 
d="M278 196v328q-20 -13 -63 -31t-60 -18q-16 0 -16 14q0 8 20 21q83 56 123 125q10 21 18 21t18 -21q40 -69 123 -125q20 -13 20 -21q0 -14 -16 -14q-17 0 -60 18t-63 31v-328q20 13 63 31t60 18q16 0 16 -14q0 -8 -20 -21q-83 -56 -123 -125q-10 -21 -18 -21t-18 21
q-40 69 -123 125q-20 13 -20 21q0 14 16 14q17 0 60 -18t63 -31z" />
    <glyph glyph-name="arrowupdnbse" unicode="&#x21a8;" 
d="M278 261v328q-20 -13 -63 -31t-60 -18q-16 0 -16 14q0 8 20 21q83 56 123 125q10 21 18 21t18 -21q40 -69 123 -125q20 -13 20 -21q0 -14 -16 -14q-17 0 -60 18t-63 31v-328q20 13 63 31t60 18q16 0 16 -14q0 -8 -20 -21q-83 -56 -123 -125q-10 -21 -18 -21t-18 21
q-40 69 -123 125q-20 13 -20 21q0 14 16 14q17 0 60 -18t63 -31zM461 44v-44h-322v44h322z" />
    <glyph glyph-name="partialdiff" unicode="&#x2202;" 
d="M124 700l-27 47q72 58 176 58q110 0 188.5 -102t78.5 -288q0 -119 -30 -213.5t-93.5 -153t-151.5 -58.5q-98 0 -151.5 71t-53.5 167q0 116 67 188.5t160 72.5q68 0 116.5 -35.5t68.5 -71.5q2 13 2 49q0 142 -60.5 230.5t-145.5 88.5q-84 0 -144 -50zM270 45
q77 0 128.5 77.5t65.5 190.5q-15 44 -60.5 83t-105.5 39q-70 0 -120.5 -60t-50.5 -145q0 -81 39.5 -133t103.5 -52z" />
    <glyph glyph-name="Delta" unicode="&#x2206;" 
d="M6 1v49l257 693h77l254 -692v-50h-588zM74 56h447l-151 416q-60 166 -69 195h-5q-10 -36 -62 -177z" />
    <glyph glyph-name="product" unicode="&#x220f;" 
d="M605 662h-101v-760h-65v760h-278v-760h-66v760h-100v60h610v-60z" />
    <glyph glyph-name="summation" unicode="&#x2211;" 
d="M191 657l200 -277l-207 -317h302v-63h-371v72l198 309l-198 269v70h367v-63h-291z" />
    <glyph glyph-name="minus" unicode="&#x2212;" 
d="M575 393v-66h-550v66h550z" />
    <glyph glyph-name="uni2215" unicode="&#x2215;" 
d="M140 720h58l-330 -720h-56z" />
    <glyph glyph-name="uni2219" unicode="&#x2219;" 
d="M220 360q0 33 23.5 55t56.5 22t56.5 -22t23.5 -55t-23.5 -55.5t-56.5 -22.5t-56.5 22.5t-23.5 55.5z" />
    <glyph glyph-name="radical" unicode="&#x221a;" 
d="M2 443h157l68 -249l178 601h193v-66h-143l-230 -776l-116 424h-107v66z" />
    <glyph glyph-name="infinity" unicode="&#x221e;" 
d="M300 302q-68 -99 -153 -99q-64 0 -99 45.5t-35 111.5q0 63 36.5 110t97.5 47q46 0 81.5 -26t71.5 -71q71 97 154 97q61 0 97 -45t36 -108q0 -65 -33.5 -113t-96.5 -48q-12 0 -22.5 1.5t-21 5.5t-18.5 7.5t-18.5 11t-16 12t-16 15l-14.5 14.5l-15.5 16t-14.5 16zM83 360
q0 -36 15 -63.5t48 -27.5q61 0 115 91q-54 91 -115 91q-33 0 -48 -27.5t-15 -63.5zM517 360q0 36 -15 63.5t-48 27.5q-61 0 -115 -91q54 -91 115 -91q33 0 48 27.5t15 63.5z" />
    <glyph glyph-name="intersection" unicode="&#x2229;" 
d="M590 0h-70v432q0 100 -67 168t-153 68t-153 -68t-67 -168v-432h-70v433q0 127 83.5 214t206.5 87t206.5 -87t83.5 -214v-433z" />
    <glyph glyph-name="integral" unicode="&#x222b;" 
d="M472 864l-12 -46q-18 12 -40 12q-34 0 -54 -24q-40 -44 -40 -187q0 -79 8 -260t8 -264q0 -139 -47 -208q-34 -49 -98 -49q-40 0 -69 18l13 48q23 -13 50 -13q33 0 50 23q40 49 40 182q0 84 -8 267t-8 262q0 159 56 216q38 38 94 38q33 0 57 -15z" />
    <glyph glyph-name="approxequal" unicode="&#x2248;" 
d="M173 496q43 0 127 -37t107 -37q35 0 65 30t47 68l52 -38q-27 -52 -69.5 -89t-93.5 -37q-11 0 -25.5 3t-32.5 9t-29.5 10.5l-31.5 12.5l-25 10q-69 29 -91 29q-28 0 -50.5 -14.5t-33.5 -28.5t-29 -43l-52 39q32 55 69.5 84t95.5 29zM194 372q43 0 127 -37t107 -37
q36 0 66.5 22.5t45.5 55.5l52 -38q-24 -48 -66.5 -77t-96.5 -29q-25 0 -72.5 17t-71.5 28q-69 29 -91 29q-17 0 -31 -5.5t-27 -20.5l-19.5 -23t-20 -30.5t-15.5 -26.5l-52 39q18 31 31 49.5t33.5 40.5t45.5 32.5t55 10.5z" />
    <glyph glyph-name="notequal" unicode="&#x2260;" 
d="M279 256l-68 -131l-54 25l55 106h-170v64h204l39 79h-243v65h276q9 19 31.5 61.5t33.5 67.5q47 -24 54 -28l-53 -101h174v-65h-207l-40 -79h247v-64h-279z" />
    <glyph glyph-name="equivalence" unicode="&#x2261;" 
d="M575 511v-66h-550v66h550zM575 393v-66h-550v66h550zM575 275v-66h-550v66h550z" />
    <glyph glyph-name="lessequal" unicode="&#x2264;" 
d="M476 720l43 -54l-325 -239l325 -239l-43 -54l-396 293zM88 0v66h424v-66h-424z" />
    <glyph glyph-name="greaterequal" unicode="&#x2265;" 
d="M80 666l43 54l396 -293l-396 -293l-43 54l325 239zM88 0v66h424v-66h-424z" />
    <glyph glyph-name="dotmath" unicode="&#x22c5;" 
d="M250 360q0 15 10.5 25.5t25.5 10.5t25.5 -10.5t10.5 -25.5t-10.5 -25.5t-25.5 -10.5t-25.5 10.5t-10.5 25.5z" />
    <glyph glyph-name="house" unicode="&#x2302;" 
d="M590 0h-580v406l290 169l290 -169v-406zM40 30h520v361l-260 152l-260 -152v-361z" />
    <glyph glyph-name="uni2304" unicode="&#x2304;" 
d="M103 680h74l123 -242l123 242h74l-164 -323h-66z" />
    <glyph glyph-name="revlogicalnot" unicode="&#x2310;" 
d="M74 0h-44v276h540v-44h-496v-232z" />
    <glyph glyph-name="uni2319" unicode="&#x2319;" 
d="M30 276h44v-232h496v-44h-540v276z" />
    <glyph glyph-name="integraltp" unicode="&#x2320;" 
d="M266 -288v269q0 210 25 314q45 188 171 188q55 0 96.5 -45t41.5 -102q0 -28 -13 -48.5t-40 -20.5q-51 0 -64 95q-2 17 -4 26t-10.5 20.5t-22.5 11.5q-30 0 -51.5 -35t-32.5 -74q-26 -96 -26 -332v-267h-70z" />
    <glyph glyph-name="integralbt" unicode="&#x2321;" 
d="M336 792v-269q0 -210 -25 -314q-45 -188 -171 -188q-55 0 -96.5 45t-41.5 102q0 28 13 48.5t40 20.5q51 0 64 -95q2 -17 4 -26t10.5 -20.5t22.5 -11.5q30 0 51.5 35t32.5 74q26 96 26 332v267h70z" />
    <glyph glyph-name="uni2500" unicode="&#x2500;" 
d="M-20 216v72h640v-72h-640z" />
    <glyph glyph-name="uni2502" unicode="&#x2502;" 
d="M264 -288v1080h72v-1080h-72z" />
    <glyph glyph-name="uni250C" unicode="&#x250c;" 
d="M264 -288v576h356v-72h-284v-504h-72z" />
    <glyph glyph-name="uni2510" unicode="&#x2510;" 
d="M336 288v-576h-72v504h-284v72h356z" />
    <glyph glyph-name="uni2514" unicode="&#x2514;" 
d="M264 216v576h72v-504h284v-72h-356z" />
    <glyph glyph-name="uni2518" unicode="&#x2518;" 
d="M336 792v-576h-356v72h284v504h72z" />
    <glyph glyph-name="uni251C" unicode="&#x251c;" 
d="M264 -288v1080h72v-504h284v-72h-284v-504h-72z" />
    <glyph glyph-name="uni2524" unicode="&#x2524;" 
d="M-20 216v72h284v504h72v-1080h-72v504h-284z" />
    <glyph glyph-name="uni252C" unicode="&#x252c;" 
d="M-20 216v72h640v-72h-284v-504h-72v504h-284z" />
    <glyph glyph-name="uni2534" unicode="&#x2534;" 
d="M-20 216v72h284v504h72v-504h284v-72h-640z" />
    <glyph glyph-name="uni253C" unicode="&#x253c;" 
d="M-20 216v72h284v504h72v-504h284v-72h-284v-504h-72v504h-284z" />
    <glyph glyph-name="uni2550" unicode="&#x2550;" 
d="M-20 144v72h640v-72h-640zM-20 288v72h640v-72h-640z" />
    <glyph glyph-name="uni2551" unicode="&#x2551;" 
d="M192 -288v1080h72v-1080h-72zM336 -288v1080h72v-1080h-72z" />
    <glyph glyph-name="uni2552" unicode="&#x2552;" 
d="M264 -288v648h356v-72h-284v-72h284v-72h-284v-432h-72z" />
    <glyph glyph-name="uni2553" unicode="&#x2553;" 
d="M620 288v-72h-212v-504h-72v504h-72v-504h-72v576h428z" />
    <glyph glyph-name="uni2554" unicode="&#x2554;" 
d="M192 -288v648h428v-72h-356v-576h-72zM336 -288v504h284v-72h-212v-432h-72z" />
    <glyph glyph-name="uni2555" unicode="&#x2555;" 
d="M336 360v-648h-72v432h-284v72h284v72h-284v72h356z" />
    <glyph glyph-name="uni2556" unicode="&#x2556;" 
d="M-20 216v72h428v-576h-72v504h-72v-504h-72v504h-212z" />
    <glyph glyph-name="uni2557" unicode="&#x2557;" 
d="M-20 144v72h284v-504h-72v432h-212zM-20 288v72h428v-648h-72v576h-356z" />
    <glyph glyph-name="uni2558" unicode="&#x2558;" 
d="M264 144v648h72v-432h284v-72h-284v-72h284v-72h-356z" />
    <glyph glyph-name="uni2559" unicode="&#x2559;" 
d="M192 216v576h72v-504h72v504h72v-504h212v-72h-428z" />
    <glyph glyph-name="uni255A" unicode="&#x255a;" 
d="M192 144v648h72v-576h356v-72h-428zM336 288v504h72v-432h212v-72h-284z" />
    <glyph glyph-name="uni255B" unicode="&#x255b;" 
d="M336 792v-648h-356v72h284v72h-284v72h284v432h72z" />
    <glyph glyph-name="uni255C" unicode="&#x255c;" 
d="M408 792v-576h-428v72h212v504h72v-504h72v504h72z" />
    <glyph glyph-name="uni255D" unicode="&#x255d;" 
d="M-20 144v72h356v576h72v-648h-428zM-20 288v72h212v432h72v-504h-284z" />
    <glyph glyph-name="uni255E" unicode="&#x255e;" 
d="M620 216v-72h-284v-432h-72v1080h72v-432h284v-72h-284v-72h284z" />
    <glyph glyph-name="uni255F" unicode="&#x255f;" 
d="M192 -288v1080h72v-1080h-72zM336 -288v1080h72v-504h212v-72h-212v-504h-72z" />
    <glyph glyph-name="uni2560" unicode="&#x2560;" 
d="M192 -288v1080h72v-1080h-72zM336 -288v504h284v-72h-212v-432h-72zM336 288v504h72v-432h212v-72h-284z" />
    <glyph glyph-name="uni2561" unicode="&#x2561;" 
d="M-20 144v72h284v72h-284v72h284v432h72v-1080h-72v432h-284z" />
    <glyph glyph-name="uni2562" unicode="&#x2562;" 
d="M-20 216v72h212v504h72v-1080h-72v504h-212zM336 -288v1080h72v-1080h-72z" />
    <glyph glyph-name="uni2563" unicode="&#x2563;" 
d="M336 -288v1080h72v-1080h-72zM264 792v-504h-284v72h212v432h72zM264 216v-504h-72v432h-212v72h284z" />
    <glyph glyph-name="uni2564" unicode="&#x2564;" 
d="M-20 144v72h640v-72h-284v-432h-72v432h-284zM-20 288v72h640v-72h-640z" />
    <glyph glyph-name="uni2565" unicode="&#x2565;" 
d="M-20 216v72h640v-72h-212v-504h-72v504h-72v-504h-72v504h-212z" />
    <glyph glyph-name="uni2566" unicode="&#x2566;" 
d="M-20 144v72h284v-504h-72v432h-212zM-20 288v72h640v-72h-640zM336 -288v504h284v-72h-212v-432h-72z" />
    <glyph glyph-name="uni2567" unicode="&#x2567;" 
d="M-20 144v72h640v-72h-640zM-20 288v72h284v432h72v-432h284v-72h-640z" />
    <glyph glyph-name="uni2568" unicode="&#x2568;" 
d="M-20 216v72h212v504h72v-504h72v504h72v-504h212v-72h-640z" />
    <glyph glyph-name="uni2569" unicode="&#x2569;" 
d="M-20 144v72h640v-72h-640zM-20 288v72h212v432h72v-504h-284zM336 288v504h72v-432h212v-72h-284z" />
    <glyph glyph-name="uni256A" unicode="&#x256a;" 
d="M-20 144v72h284v72h-284v72h284v432h72v-432h284v-72h-284v-72h284v-72h-284v-432h-72v432h-284z" />
    <glyph glyph-name="uni256B" unicode="&#x256b;" 
d="M-20 216v72h212v504h72v-504h72v504h72v-504h212v-72h-212v-504h-72v504h-72v-504h-72v504h-212z" />
    <glyph glyph-name="uni256C" unicode="&#x256c;" 
d="M-20 144v72h284v-504h-72v432h-212zM-20 288v72h212v432h72v-504h-284zM336 -288v504h284v-72h-212v-432h-72zM336 288v504h72v-432h212v-72h-284z" />
    <glyph glyph-name="upblock" unicode="&#x2580;" 
d="M0 252v540h600v-540h-600z" />
    <glyph glyph-name="dnblock" unicode="&#x2584;" 
d="M0 -288v540h600v-540h-600z" />
    <glyph glyph-name="block" unicode="&#x2588;" 
d="M0 -288v1080h600v-1080h-600z" />
    <glyph glyph-name="lfblock" unicode="&#x258c;" 
d="M0 -288v1080h300v-1080h-300z" />
    <glyph glyph-name="rtblock" unicode="&#x2590;" 
d="M300 -288v1080h300v-1080h-300z" />
    <glyph glyph-name="ltshade" unicode="&#x2591;" 
d="M0 -288v98h100v-98h-100zM200 -288v98h100v-98h-100zM400 -288v98h100v-98h-100zM0 694v98h100v-98h-100zM200 694v98h100v-98h-100zM400 694v98h100v-98h-100zM0 497v98h100v-98h-100zM200 497v98h100v-98h-100zM400 497v98h100v-98h-100zM0 -91v98h100v-98h-100z
M200 -91v98h100v-98h-100zM400 -91v98h100v-98h-100zM0 105v98h100v-98h-100zM200 105v98h100v-98h-100zM400 105v98h100v-98h-100zM0 301v98h100v-98h-100zM200 301v98h100v-98h-100zM400 301v98h100v-98h-100z" />
    <glyph glyph-name="shade" unicode="&#x2592;" 
d="M0 -288v97h99v-97h-99zM200 -288v97h99v-97h-99zM400 -288v97h99v-97h-99zM0 695v97h99v-97h-99zM200 695v97h99v-97h-99zM400 695v97h99v-97h-99zM0 499v97h99v-97h-99zM200 499v97h99v-97h-99zM400 499v97h99v-97h-99zM0 -92v97h99v-97h-99zM200 -92v97h99v-97h-99z
M400 -92v97h99v-97h-99zM0 105v97h99v-97h-99zM200 105v97h99v-97h-99zM400 105v97h99v-97h-99zM0 302v97h99v-97h-99zM200 302v97h99v-97h-99zM400 302v97h99v-97h-99zM100 597v97h99v-97h-99zM300 597v97h99v-97h-99zM500 597v97h100v-97h-100zM100 400v97h99v-97h-99z
M300 400v97h99v-97h-99zM500 400v97h100v-97h-100zM500 203v97h100v-97h-100zM300 203v97h99v-97h-99zM100 203v97h99v-97h-99zM100 6v97h99v-97h-99zM300 6v97h99v-97h-99zM500 6v97h100v-97h-100zM500 -190v97h100v-97h-100zM300 -190v97h99v-97h-99zM100 -190v97h99v-97
h-99z" />
    <glyph glyph-name="dkshade" unicode="&#x2593;" 
d="M138 -92h-138v97h138v-97zM200 -190h-138v97h138v-97zM200 6h-138v97h138v-97zM138 -288h-138v97h138v-97zM338 -92h-138v97h138v-97zM400 -190h-138v97h138v-97zM400 6h-138v97h138v-97zM338 -288h-138v97h138v-97zM538 -92h-138v97h138v-97zM600 -190h-138v97h138v-97z
M600 6h-138v97h138v-97zM538 -288h-138v97h138v-97zM200 597h-138v97h138v-97zM138 695h-138v97h138v-97zM138 499h-138v97h138v-97zM400 597h-138v97h138v-97zM338 695h-138v97h138v-97zM338 499h-138v97h138v-97zM600 597h-138v97h138v-97zM538 695h-138v97h138v-97z
M538 499h-138v97h138v-97zM138 105h-138v97h138v-97zM200 203h-138v97h138v-97zM338 105h-138v97h138v-97zM400 203h-138v97h138v-97zM538 105h-138v97h138v-97zM600 203h-138v97h138v-97zM138 302h-138v97h138v-97zM200 400h-138v97h138v-97zM338 302h-138v97h138v-97z
M400 400h-138v97h138v-97zM538 302h-138v97h138v-97zM600 400h-138v97h138v-97z" />
    <glyph glyph-name="uni25A0" unicode="&#x25a0;" 
d="M100 100v400h400v-400h-400z" />
    <glyph glyph-name="filledrect" unicode="&#x25ac;" 
d="M100 260v200h400v-200h-400z" />
    <glyph glyph-name="triagup" unicode="&#x25b2;" 
d="M46 122l254 474l254 -474h-508z" />
    <glyph glyph-name="uni25B6" unicode="&#x25b6;" 
d="M63 106v508l474 -254z" />
    <glyph glyph-name="triagdn" unicode="&#x25bc;" 
d="M300 122l-254 474h508z" />
    <glyph glyph-name="uni25C0" unicode="&#x25c0;" 
d="M537 614v-508l-474 254z" />
    <glyph glyph-name="lozenge" unicode="&#x25ca;" 
d="M544 361l-218 -408h-54l-216 408l218 409h54zM482 359l-161 303q-6 12 -21 51h-2q-9 -27 -21 -51l-159 -299l162 -304q11 -21 19 -51h3q10 31 19 50z" />
    <glyph glyph-name="circle" unicode="&#x25cb;" 
d="M71 252q0 94 67.5 161.5t161.5 67.5t161.5 -67.5t67.5 -161.5t-67.5 -161.5t-161.5 -67.5t-161.5 67.5t-67.5 161.5zM113 252q0 -77 55 -132t132 -55t132 55t55 132t-55 132t-132 55t-132 -55t-55 -132z" />
    <glyph glyph-name="invbullet" unicode="&#x25d8;" 
d="M0 -288v1080h600v-1080h-600zM177 252q0 -52 35.5 -87.5t87.5 -35.5q51 0 87 36t36 87q0 50 -36.5 86.5t-86.5 36.5t-86.5 -36.5t-36.5 -86.5z" />
    <glyph glyph-name="invcircle" unicode="&#x25d9;" 
d="M0 -288v1080h600v-1080h-600zM71 252q0 -94 67.5 -161.5t161.5 -67.5t161.5 67.5t67.5 161.5t-67.5 161.5t-161.5 67.5t-161.5 -67.5t-67.5 -161.5zM131 252q0 69 49.5 118.5t119.5 49.5t119.5 -49.5t49.5 -118.5q0 -70 -49.5 -119t-119.5 -49t-119.5 49t-49.5 119z" />
    <glyph glyph-name="smileface" unicode="&#x263a;" 
d="M10 330q0 122 84 206t206 84t206 -84t84 -206t-84 -206t-206 -84t-206 84t-84 206zM300 605q-115 0 -194.5 -79.5t-79.5 -195.5t79.5 -195.5t194.5 -79.5t194.5 79.5t79.5 195.5t-79.5 195.5t-194.5 79.5zM132 429q0 21 14.5 35.5t35.5 14.5t35.5 -14.5t14.5 -35.5
t-14.5 -35.5t-35.5 -14.5t-35.5 14.5t-14.5 35.5zM368 429q0 21 14.5 35.5t35.5 14.5t35.5 -14.5t14.5 -35.5t-14.5 -35.5t-35.5 -14.5t-35.5 14.5t-14.5 35.5zM300 110q-89 0 -140 62q-26 31 -16 60q5 17 15 7q1 -2 3 -5q50 -90 138 -90t138 90q9 16 17 2q11 -21 -7 -52
q-3 -6 -8 -12q-51 -62 -140 -62z" />
    <glyph glyph-name="invsmileface" unicode="&#x263b;" 
d="M10 330q0 122 84 206t206 84t206 -84t84 -206t-84 -206t-206 -84t-206 84t-84 206zM132 429q0 -21 14.5 -35.5t35.5 -14.5t35.5 14.5t14.5 35.5t-14.5 35.5t-35.5 14.5t-35.5 -14.5t-14.5 -35.5zM368 429q0 -21 14.5 -35.5t35.5 -14.5t35.5 14.5t14.5 35.5t-14.5 35.5
t-35.5 14.5t-35.5 -14.5t-14.5 -35.5zM300 110q89 0 140 62q26 31 16 60q-5 17 -15 7q-1 -2 -3 -5q-50 -90 -138 -90t-138 90q-9 16 -17 2q-11 -21 7 -52q3 -6 8 -12q51 -62 140 -62z" />
    <glyph glyph-name="sun" unicode="&#x263c;" 
d="M518 513l-88 -88q29 -32 36 -90h124v-32h-125q-7 -52 -38 -84l88 -88l-23 -23l-87 87q-36 -34 -89 -42v-123h-32v123q-58 8 -89 37l-87 -87l-22 23l87 87q-34 37 -39 90h-124v32h124q-1 57 35 96l-87 87l22 24l88 -88q35 27 92 31v125h32v-125q48 -2 91 -37l88 87z
M166 319q0 -58 36 -96t95 -38q61 0 99 38.5t38 95.5q-2 58 -39 96t-97 38q-60 -1 -96 -39t-36 -95z" />
    <glyph glyph-name="female" unicode="&#x2640;" 
d="M318 0h-36v171h-126v36h126v109q-65 11 -104.5 57t-39.5 107q0 67 47.5 113.5t114.5 46.5q68 0 115 -46.5t47 -113.5q0 -61 -39 -107t-105 -57v-109h126v-36h-126v-171zM170 478q0 -55 37.5 -92.5t91.5 -37.5q55 0 93 37.5t38 92.5t-38 92.5t-93 37.5q-54 0 -91.5 -37.5
t-37.5 -92.5z" />
    <glyph glyph-name="male" unicode="&#x2642;" 
d="M305 140q38 39 38 92t-38 91q-39 40 -92.5 40t-91.5 -39q-39 -39 -39 -92t40 -92q38 -38 91 -38t92 38zM315 359l170 171l-104 38v2h170v-170h-2l-39 104l-170 -170q38 -55 33.5 -115t-47.5 -103q-47 -47 -114 -46t-114 48q-48 48 -48 114t47 113q43 44 102.5 48.5
t115.5 -34.5z" />
    <glyph glyph-name="spade" unicode="&#x2660;" 
d="M542 0h-484l4 22q229 7 229 247h-2q-22 -50 -62 -80t-93 -30t-92 37.5t-39 90.5q0 74 82 150l51 45q69 59 108 109.5t55 120.5h2q16 -70 55 -120.5t108 -109.5q71 -61 93 -89q40 -52 40 -106q0 -53 -39 -90.5t-92 -37.5t-93 30t-62 80h-2q0 -240 229 -247z" />
    <glyph glyph-name="uni2662" unicode="&#x2662;" 
d="M300 712q108 -166 297 -362q-189 -196 -297 -362q-108 166 -297 362q189 196 297 362zM300 11q94 147 277 339q-183 192 -277 339q-94 -147 -277 -339q183 -192 277 -339z" />
    <glyph glyph-name="club" unicode="&#x2663;" 
d="M503 0h-406l6 21q46 11 77 26t59 44.5t42 80t14 124.5h-2q-18 -54 -60 -96t-93 -42q-62 0 -99.5 49t-37.5 113q0 55 30.5 107.5t78.5 52.5q38 0 86 -30q-32 62 -32 106q0 59 36.5 107.5t97.5 48.5t97.5 -48.5t36.5 -107.5q0 -44 -32 -106q48 30 86 30q48 0 78.5 -52.5
t30.5 -107.5q0 -64 -37.5 -113t-99.5 -49q-51 0 -93 42t-60 96h-2q0 -74 14 -124.5t42 -80t59 -44.5t77 -26z" />
    <glyph glyph-name="heart" unicode="&#x2665;" 
d="M301 -12h-2q-14 56 -45.5 118t-59 101l-75.5 103q-35 47 -55.5 79t-40.5 81.5t-20 92.5q0 63 40.5 106t103.5 43q56 0 98 -43.5t54 -101.5h2q12 58 54 101.5t98 43.5q63 0 103.5 -43t40.5 -106q0 -43 -20 -92.5t-40.5 -81.5t-55.5 -79l-75.5 -103t-59 -101t-45.5 -118z
" />
    <glyph glyph-name="diamond" unicode="&#x2666;" 
d="M300 712q108 -166 297 -362q-189 -196 -297 -362q-108 166 -297 362q189 196 297 362z" />
    <glyph glyph-name="musicalnote" unicode="&#x266a;" 
d="M286 181v531h44v-63l23 -29l39 -46q51 -61 76.5 -118.5t25.5 -127.5q0 -98 -59 -166h-29q43 73 43 154q0 61 -31.5 116.5t-87.5 64.5v-314q0 -84 -43 -128.5t-112 -44.5q-32 0 -50.5 16.5t-18.5 47.5q0 47 38.5 82.5t85.5 35.5q31 0 56 -11z" />
    <glyph glyph-name="uni266C" unicode="&#x266c;" 
d="M545 202v280l-309 -93v-241q0 -87 -43 -131t-113 -44q-31 0 -50 16.5t-19 46.5q0 48 38.5 83t86.5 35q31 0 56 -11v469l397 112v-517q0 -87 -43 -131t-113 -44q-31 0 -50 16.5t-19 46.5q0 48 38.5 83t86.5 35q31 0 56 -11zM236 468l309 94v72l-309 -94v-72z" />
    <glyph glyph-name="uni0044_uni004D" unicode="&#xe001;" 
d="M443 361l99 359h49v-720h-50v548h-2l-96 -353l-96 353l-2 -2v-546h-50v720h49zM3 0v720h121q48 0 80 -30.5t52 -112t20 -217.5t-19 -216.5t-53 -112t-88 -31.5h-113zM53 667v-614h60q29 1 47 12t34.5 41.5t24 93t7.5 160.5q0 100 -8.5 164t-25.5 93.5t-35 39.5t-45 10
h-59z" />
    <glyph glyph-name="zero.slash" unicode="&#xf638;" 
d="M422 533l-227 -402q14 -35 42 -58.5t63 -23.5q28 0 49.5 12.5t42 44t31.5 96t11 158.5q0 111 -12 173zM174 223l219 390q-37 58 -93 58q-135 0 -133 -305q0 -23 2.5 -69t2.5 -69v-5h2zM509 360v-40t-2 -47t-5 -55t-10.5 -54.5t-17.5 -55t-26 -47t-36 -40.5t-49 -25
t-63 -10q-209 0 -209 374v8v42t3.5 59t10.5 72t22.5 69.5t37 63.5t56.5 42.5t79 17.5q43 0 77 -16t55.5 -39t37 -60t23 -67t11.5 -73t4.5 -65t0.5 -54z" />
    <glyph glyph-name="fi" unicode="&#xfb01;" 
d="M407 473h-200v-473h-75v473h-99v63h99v32q0 75 48.5 120.5t114.5 45.5q15 0 32 -2.5t29 -5t31 -9t27 -9.5t30.5 -12.5l27.5 -11.5v-83q-12 6 -39 21t-45 24t-43 17t-45 8q-93 0 -93 -109v-26h275v-536h-75v473z" />
    <glyph glyph-name="fl" unicode="&#xfb02;" 
d="M204 536h145v-63h-145v-473h-75v473h-99v63h99v32q0 75 48.5 120.5t114.5 45.5q71 0 203 -60v-674h-75v629l-22.5 11l-25 12t-22.5 9t-26 7.5t-24 2.5q-50 0 -73 -28t-23 -74v-33z" />
    <glyph glyph-name="f_i" 
d="M407 473h-200v-473h-75v473h-99v63h99v32q0 75 48.5 120.5t114.5 45.5q15 0 32 -2.5t29 -5t31 -9t27 -9.5t30.5 -12.5l27.5 -11.5v-83q-12 6 -39 21t-45 24t-43 17t-45 8q-93 0 -93 -109v-26h275v-536h-75v473z" />
    <glyph glyph-name="f_l" 
d="M204 536h145v-63h-145v-473h-75v473h-99v63h99v32q0 75 48.5 120.5t114.5 45.5q71 0 203 -60v-674h-75v629l-22.5 11l-25 12t-22.5 9t-26 7.5t-24 2.5q-50 0 -73 -28t-23 -74v-33z" />
    <glyph glyph-name="a.superior" 
d="M423 393l-61 -8l-10 31q-23 -17 -38.5 -23t-39.5 -6q-51 0 -79.5 33t-28.5 84q0 55 34.5 87.5t89.5 32.5q22 0 52 -7q2 23 -9.5 40.5t-34.5 17.5q-14 0 -30 -5t-37 -14t-31 -12l-11 71q76 19 110 19q54 0 81.5 -36.5t27.5 -96.5v-114q0 -49 15 -94zM342 495v59
q-31 11 -53 11q-28 0 -42.5 -19t-14.5 -47q0 -21 11.5 -37t31.5 -16q31 0 67 49zM425 319v-59h-261v59h261z" />
    <glyph glyph-name="o.superior" 
d="M431 319v-59h-261v59h261zM300 387q-66 0 -104.5 47t-38.5 126q0 76 36 125t107 49q67 0 105 -48t38 -125q0 -76 -36 -125t-107 -49zM300 446q29 0 47.5 19t24 42.5t5.5 52.5q0 115 -77 115t-77 -115q0 -29 5.5 -52.5t24 -42.5t47.5 -19z" />
    <glyph glyph-name="one.superior" 
d="M176 742v-354h68v-42h-188v42h70v293l-73 -22v45z" />
    <glyph glyph-name="two.superior" 
d="M89 392h172v-42h-222v22q0 57 22.5 92t73.5 77q22 18 33.5 28.5t26.5 31.5t15 39q0 24 -13 38t-37 14q-31 0 -46 -22t-16 -54h-51q2 52 31.5 85t81.5 33q46 0 73 -25.5t27 -69.5q0 -29 -17 -55.5t-41.5 -47l-49.5 -41.5t-43 -47.5t-20 -55.5z" />
    <glyph glyph-name="three.superior" 
d="M117 530v42q32 -2 57 15.5t25 49.5q0 24 -17.5 39.5t-41.5 15.5q-22 0 -40.5 -16t-28.5 -39l-43 24q17 33 46.5 53t65.5 20q46 0 77.5 -28t31.5 -73q0 -50 -45 -78q62 -28 62 -97q0 -51 -34 -83t-86 -32q-44 0 -71.5 18.5t-52.5 57.5l45 26q14 -31 31 -45.5t48 -14.5
t50.5 18.5t19.5 49.5q0 41 -23.5 58.5t-75.5 18.5z" />
  </font>
</defs>
</svg>
