<?xml version="1.0" encoding="utf-8"?>
<!-- Generator: Adobe Illustrator 19.0.0, SVG Export Plug-In . SVG Version: 6.00 Build 0)  -->
<svg version="1.1" id="Layer_1" xmlns="http://www.w3.org/2000/svg" xmlns:xlink="http://www.w3.org/1999/xlink" x="0px" y="0px"
	 viewBox="-75 -4 60 60" style="enable-background:new -75 -4 60 60;" xml:space="preserve">
<style type="text/css">
	.st0{display:none;}
	.st1{display:inline;fill:#B13E97;}
	.st2{display:inline;}
	.st3{fill:#60A9DD;}
	.st4{display:inline;fill:#60A9DD;}
	.st5{fill:#FFFFFF;}
	.st6{display:none;fill:#947223;}
	.st7{fill:#00398B;}
</style>
<g id="Layer_4" class="st0">
	<rect x="-615.9" y="739.1" class="st1" width="42" height="42"/>
</g>
<g id="Layer_1_1_" class="st0">
	<g id="g10" transform="matrix(1.25,0,0,-1.25,0,277.725)" class="st2">
		<g id="g12" transform="scale(0.1,0.1)">
			<path id="path14" class="st3" d="M-4843.9-4038.7c-51.6,0-99.6,15.1-140.1,41c7.1-0.8,14.4-1.3,21.8-1.3
				c42.8,0,82.2,14.6,113.5,39.1c-40,0.7-73.7,27.2-85.4,63.5c5.6-1.1,11.3-1.6,17.2-1.6c8.3,0,16.4,1.1,24.1,3.2
				c-41.8,8.4-73.3,45.3-73.3,89.6c0,0.4,0,0.8,0,1.1c12.3-6.8,26.4-11,41.4-11.4c-24.5,16.4-40.6,44.4-40.6,76
				c0,16.7,4.5,32.4,12.4,45.9c45.1-55.3,112.4-91.7,188.3-95.5c-1.6,6.7-2.4,13.7-2.4,20.8c0,50.5,40.9,91.4,91.4,91.4
				c26.3,0,50-11.1,66.7-28.9c20.8,4.1,40.4,11.7,58,22.2c-6.8-21.3-21.3-39.2-40.2-50.6c18.5,2.2,36.1,7.1,52.5,14.4
				c-12.3-18.3-27.7-34.4-45.6-47.3c0.2-3.9,0.3-7.9,0.3-11.8C-4584-3899.5-4675.9-4038.7-4843.9-4038.7"/>
		</g>
	</g>
</g>
<g id="Layer_2" class="st0">
	<rect x="-634.4" y="723.4" class="st4" width="73.9" height="78"/>
	<g class="st2">
		
			<rect x="-620.7" y="756.5" transform="matrix(-0.6992 0.715 -0.715 -0.6992 -467.5992 1716.8322)" class="st5" width="51.4" height="7"/>
		
			<rect x="-620.7" y="756.5" transform="matrix(0.6992 0.715 -0.715 0.6992 364.3776 654.0398)" class="st5" width="51.4" height="7"/>
	</g>
</g>
<text transform="matrix(1 0 0 1 -319 1126)" style="font-family:'MyriadPro-Regular'; font-size:12px;">947223</text>
<rect x="-620.1" y="734.4" class="st6" width="49.9" height="49.2"/>
<g>
	<rect x="-59.1" y="16.2" class="st7" width="28.3" height="3"/>
	<rect x="-59.1" y="23.4" class="st7" width="28.3" height="3"/>
	<rect x="-59.1" y="30.7" class="st7" width="28.3" height="3"/>
</g>
</svg>
