<?xml version="1.0" encoding="utf-8"?>
<!-- Generator: Adobe Illustrator 19.0.0, SVG Export Plug-In . SVG Version: 6.00 Build 0)  -->
<svg version="1.1" id="Layer_1" xmlns="http://www.w3.org/2000/svg" xmlns:xlink="http://www.w3.org/1999/xlink" x="0px" y="0px"
	 viewBox="-75 -4 60 60" style="enable-background:new -75 -4 60 60;" xml:space="preserve">
<style type="text/css">
	.st0{display:none;}
	.st1{display:inline;fill:#B13E97;}
	.st2{display:inline;}
	.st3{fill:#60A9DD;}
	.st4{display:none;fill:#947223;}
	.st5{fill:#FFFFFF;}
	.st6{fill:#00398B;}
</style>
<g id="Layer_4" class="st0">
	<rect x="-890.9" y="679.1" class="st1" width="42" height="42"/>
</g>
<g id="Layer_1_1_" class="st0">
	<g id="g10" transform="matrix(1.25,0,0,-1.25,0,277.725)" class="st2">
		<g id="g12" transform="scale(0.1,0.1)">
			<path id="path14" class="st3" d="M-5255.5-5847.4c-6.4,0-12.5-1.9-17.5-5.1c0.9,0.1,1.8,0.2,2.7,0.2c5.4,0,10.3-1.8,14.2-4.9
				c-5-0.1-9.2-3.4-10.7-7.9c0.7,0.1,1.4,0.2,2.1,0.2c1,0,2.1-0.1,3-0.4c-5.2-1-9.2-5.7-9.2-11.2v-0.1c1.5,0.9,3.3,1.4,5.2,1.4
				c-3.1-2-5.1-5.5-5.1-9.5c0-2.1,0.6-4.1,1.5-5.7c5.6,6.9,14,11.5,23.5,11.9c-0.2-0.8-0.3-1.7-0.3-2.6c0-6.3,5.1-11.4,11.4-11.4
				c3.3,0,6.3,1.4,8.3,3.6c2.6-0.5,5-1.5,7.3-2.8c-0.9,2.7-2.7,4.9-5,6.3c2.3-0.3,4.5-0.9,6.6-1.8c-1.5,2.3-3.5,4.3-5.7,5.9
				c0,0.5,0,1,0,1.5C-5223-5864.8-5234.5-5847.4-5255.5-5847.4"/>
		</g>
	</g>
</g>
<rect x="-621.4" y="731" class="st4" width="51.9" height="54.8"/>
<g id="Layer_3" class="st0">
	<rect x="-658.9" y="696.6" class="st2" width="67.8" height="66.8"/>
	
		<image style="display:inline;overflow:visible;enable-background:new    ;" width="60" height="60" xlink:href="btn-open.png"  transform="matrix(1 0 0 1 -625 730)">
	</image>
	<g class="st2">
		<rect x="-645.1" y="726.5" class="st5" width="40.2" height="7.1"/>
		<rect x="-645.1" y="726.5" class="st5" width="40.2" height="7.1"/>
		<rect x="-645.1" y="726.5" class="st5" width="40.2" height="7.1"/>
	</g>
</g>
<rect x="-58.8" y="23.9" transform="matrix(-0.7071 -0.7071 0.7071 -0.7071 -94.4071 12.5684)" class="st6" width="28.3" height="3.9"/>
<rect x="-59.5" y="24.2" transform="matrix(0.7071 -0.7071 0.7071 0.7071 -31.7976 -24.4392)" class="st6" width="28.3" height="3.9"/>
</svg>
